%TF.GenerationSoftware,KiCad,Pcbnew,(5.1.6)-1*%
%TF.CreationDate,2021-01-29T14:11:21+08:00*%
%TF.ProjectId,STM32F0_Nixie_Clock,53544d33-3246-4305-9f4e-697869655f43,V3.0*%
%TF.SameCoordinates,Original*%
%TF.FileFunction,Legend,Bot*%
%TF.FilePolarity,Positive*%
%FSLAX46Y46*%
G04 Gerber Fmt 4.6, Leading zero omitted, Abs format (unit mm)*
G04 Created by KiCad (PCBNEW (5.1.6)-1) date 2021-01-29 14:11:21*
%MOMM*%
%LPD*%
G01*
G04 APERTURE LIST*
%ADD10C,0.100000*%
%ADD11C,0.150000*%
%ADD12C,0.500000*%
%ADD13C,0.120000*%
%ADD14C,0.010000*%
%ADD15C,0.381000*%
%ADD16C,0.400000*%
G04 APERTURE END LIST*
D10*
X202766714Y-111067904D02*
X202271476Y-111067904D01*
X202538142Y-111372666D01*
X202423857Y-111372666D01*
X202347666Y-111410761D01*
X202309571Y-111448857D01*
X202271476Y-111525047D01*
X202271476Y-111715523D01*
X202309571Y-111791714D01*
X202347666Y-111829809D01*
X202423857Y-111867904D01*
X202652428Y-111867904D01*
X202728619Y-111829809D01*
X202766714Y-111791714D01*
X202042904Y-111067904D02*
X201776238Y-111867904D01*
X201509571Y-111067904D01*
X201319095Y-111067904D02*
X200823857Y-111067904D01*
X201090523Y-111372666D01*
X200976238Y-111372666D01*
X200900047Y-111410761D01*
X200861952Y-111448857D01*
X200823857Y-111525047D01*
X200823857Y-111715523D01*
X200861952Y-111791714D01*
X200900047Y-111829809D01*
X200976238Y-111867904D01*
X201204809Y-111867904D01*
X201281000Y-111829809D01*
X201319095Y-111791714D01*
X202804809Y-103447904D02*
X202347666Y-103447904D01*
X202576238Y-104247904D02*
X202576238Y-103447904D01*
X202157190Y-103447904D02*
X201623857Y-104247904D01*
X201623857Y-103447904D02*
X202157190Y-104247904D01*
X202271476Y-108566000D02*
X202347666Y-108527904D01*
X202461952Y-108527904D01*
X202576238Y-108566000D01*
X202652428Y-108642190D01*
X202690523Y-108718380D01*
X202728619Y-108870761D01*
X202728619Y-108985047D01*
X202690523Y-109137428D01*
X202652428Y-109213619D01*
X202576238Y-109289809D01*
X202461952Y-109327904D01*
X202385761Y-109327904D01*
X202271476Y-109289809D01*
X202233380Y-109251714D01*
X202233380Y-108985047D01*
X202385761Y-108985047D01*
X201890523Y-109327904D02*
X201890523Y-108527904D01*
X201433380Y-109327904D01*
X201433380Y-108527904D01*
X201052428Y-109327904D02*
X201052428Y-108527904D01*
X200861952Y-108527904D01*
X200747666Y-108566000D01*
X200671476Y-108642190D01*
X200633380Y-108718380D01*
X200595285Y-108870761D01*
X200595285Y-108985047D01*
X200633380Y-109137428D01*
X200671476Y-109213619D01*
X200747666Y-109289809D01*
X200861952Y-109327904D01*
X201052428Y-109327904D01*
X202233380Y-106787904D02*
X202500047Y-106406952D01*
X202690523Y-106787904D02*
X202690523Y-105987904D01*
X202385761Y-105987904D01*
X202309571Y-106026000D01*
X202271476Y-106064095D01*
X202233380Y-106140285D01*
X202233380Y-106254571D01*
X202271476Y-106330761D01*
X202309571Y-106368857D01*
X202385761Y-106406952D01*
X202690523Y-106406952D01*
X201966714Y-105987904D02*
X201433380Y-106787904D01*
X201433380Y-105987904D02*
X201966714Y-106787904D01*
D11*
X184457357Y-125208571D02*
X184457357Y-123708571D01*
X184100214Y-123708571D01*
X183885928Y-123780000D01*
X183743071Y-123922857D01*
X183671642Y-124065714D01*
X183600214Y-124351428D01*
X183600214Y-124565714D01*
X183671642Y-124851428D01*
X183743071Y-124994285D01*
X183885928Y-125137142D01*
X184100214Y-125208571D01*
X184457357Y-125208571D01*
X183028785Y-124780000D02*
X182314500Y-124780000D01*
X183171642Y-125208571D02*
X182671642Y-123708571D01*
X182171642Y-125208571D01*
X181671642Y-125208571D02*
X181671642Y-123708571D01*
X180814500Y-125208571D01*
X180814500Y-123708571D01*
X179314500Y-123780000D02*
X179457357Y-123708571D01*
X179671642Y-123708571D01*
X179885928Y-123780000D01*
X180028785Y-123922857D01*
X180100214Y-124065714D01*
X180171642Y-124351428D01*
X180171642Y-124565714D01*
X180100214Y-124851428D01*
X180028785Y-124994285D01*
X179885928Y-125137142D01*
X179671642Y-125208571D01*
X179528785Y-125208571D01*
X179314500Y-125137142D01*
X179243071Y-125065714D01*
X179243071Y-124565714D01*
X179528785Y-124565714D01*
X178600214Y-124422857D02*
X178100214Y-124422857D01*
X177885928Y-125208571D02*
X178600214Y-125208571D01*
X178600214Y-123708571D01*
X177885928Y-123708571D01*
X176385928Y-125208571D02*
X176885928Y-124494285D01*
X177243071Y-125208571D02*
X177243071Y-123708571D01*
X176671642Y-123708571D01*
X176528785Y-123780000D01*
X176457357Y-123851428D01*
X176385928Y-123994285D01*
X176385928Y-124208571D01*
X176457357Y-124351428D01*
X176528785Y-124422857D01*
X176671642Y-124494285D01*
X177243071Y-124494285D01*
X184457357Y-127608571D02*
X184457357Y-126108571D01*
X184457357Y-126822857D02*
X183600214Y-126822857D01*
X183600214Y-127608571D02*
X183600214Y-126108571D01*
X182885928Y-127608571D02*
X182885928Y-126108571D01*
X181385928Y-126180000D02*
X181528785Y-126108571D01*
X181743071Y-126108571D01*
X181957357Y-126180000D01*
X182100214Y-126322857D01*
X182171642Y-126465714D01*
X182243071Y-126751428D01*
X182243071Y-126965714D01*
X182171642Y-127251428D01*
X182100214Y-127394285D01*
X181957357Y-127537142D01*
X181743071Y-127608571D01*
X181600214Y-127608571D01*
X181385928Y-127537142D01*
X181314500Y-127465714D01*
X181314500Y-126965714D01*
X181600214Y-126965714D01*
X180671642Y-127608571D02*
X180671642Y-126108571D01*
X180671642Y-126822857D02*
X179814500Y-126822857D01*
X179814500Y-127608571D02*
X179814500Y-126108571D01*
X178171642Y-126108571D02*
X177671642Y-127608571D01*
X177171642Y-126108571D01*
X176385928Y-126108571D02*
X176100214Y-126108571D01*
X175957357Y-126180000D01*
X175814500Y-126322857D01*
X175743071Y-126608571D01*
X175743071Y-127108571D01*
X175814500Y-127394285D01*
X175957357Y-127537142D01*
X176100214Y-127608571D01*
X176385928Y-127608571D01*
X176528785Y-127537142D01*
X176671642Y-127394285D01*
X176743071Y-127108571D01*
X176743071Y-126608571D01*
X176671642Y-126322857D01*
X176528785Y-126180000D01*
X176385928Y-126108571D01*
X174385928Y-127608571D02*
X175100214Y-127608571D01*
X175100214Y-126108571D01*
X174100214Y-126108571D02*
X173243071Y-126108571D01*
X173671642Y-127608571D02*
X173671642Y-126108571D01*
X172814500Y-127180000D02*
X172100214Y-127180000D01*
X172957357Y-127608571D02*
X172457357Y-126108571D01*
X171957357Y-127608571D01*
X170671642Y-126180000D02*
X170814500Y-126108571D01*
X171028785Y-126108571D01*
X171243071Y-126180000D01*
X171385928Y-126322857D01*
X171457357Y-126465714D01*
X171528785Y-126751428D01*
X171528785Y-126965714D01*
X171457357Y-127251428D01*
X171385928Y-127394285D01*
X171243071Y-127537142D01*
X171028785Y-127608571D01*
X170885928Y-127608571D01*
X170671642Y-127537142D01*
X170600214Y-127465714D01*
X170600214Y-126965714D01*
X170885928Y-126965714D01*
X169957357Y-126822857D02*
X169457357Y-126822857D01*
X169243071Y-127608571D02*
X169957357Y-127608571D01*
X169957357Y-126108571D01*
X169243071Y-126108571D01*
D12*
X185293000Y-130149600D02*
X191008000Y-119976900D01*
X196710300Y-130136900D02*
X185293000Y-130149600D01*
X191020700Y-119976900D02*
X196723000Y-130136900D01*
D13*
%TO.C,TP101*%
X205166000Y-111506000D02*
G75*
G03*
X205166000Y-111506000I-950000J0D01*
G01*
%TO.C,TP107*%
X205166000Y-108966000D02*
G75*
G03*
X205166000Y-108966000I-950000J0D01*
G01*
%TO.C,TP104*%
X205166000Y-106426000D02*
G75*
G03*
X205166000Y-106426000I-950000J0D01*
G01*
%TO.C,TP103*%
X205166000Y-103886000D02*
G75*
G03*
X205166000Y-103886000I-950000J0D01*
G01*
%TO.C,BT101*%
X198630000Y-93686000D02*
X201830000Y-93686000D01*
X201830000Y-93686000D02*
X201830000Y-95236000D01*
X198630000Y-89186000D02*
X198630000Y-93686000D01*
X198630000Y-89186000D02*
X177730000Y-89186000D01*
X175930000Y-90986000D02*
X175930000Y-93686000D01*
X177730000Y-89186000D02*
X175930000Y-90986000D01*
X175930000Y-93686000D02*
X172730000Y-93686000D01*
X172730000Y-93686000D02*
X172730000Y-95236000D01*
X175930000Y-101386000D02*
X172730000Y-101386000D01*
X172730000Y-101386000D02*
X172730000Y-99836000D01*
X198630000Y-101386000D02*
X201830000Y-101386000D01*
X201830000Y-101386000D02*
X201830000Y-99836000D01*
X175930000Y-105886000D02*
X198630000Y-105886000D01*
X175930000Y-105886000D02*
X175930000Y-101386000D01*
X198630000Y-105886000D02*
X198630000Y-101386000D01*
D14*
%TO.C,REF\u002A\u002A*%
G36*
X161189906Y-126021158D02*
G01*
X161157381Y-126033736D01*
X161107807Y-126058712D01*
X161036626Y-126097876D01*
X161031084Y-126100988D01*
X160965526Y-126138476D01*
X160910202Y-126171319D01*
X160870545Y-126196205D01*
X160851988Y-126209820D01*
X160851469Y-126210487D01*
X160855952Y-126229390D01*
X160876514Y-126271605D01*
X160911817Y-126334832D01*
X160960520Y-126416772D01*
X161021282Y-126515122D01*
X161092764Y-126627585D01*
X161110555Y-126655165D01*
X161156907Y-126731699D01*
X161190658Y-126797556D01*
X161208847Y-126846782D01*
X161210714Y-126856507D01*
X161209885Y-126899312D01*
X161200606Y-126967209D01*
X161184032Y-127055843D01*
X161161320Y-127160859D01*
X161133627Y-127277902D01*
X161102110Y-127402616D01*
X161067925Y-127530645D01*
X161032229Y-127657634D01*
X160996179Y-127779228D01*
X160960932Y-127891072D01*
X160927644Y-127988810D01*
X160897472Y-128068087D01*
X160876439Y-128115122D01*
X160851663Y-128165225D01*
X160828270Y-128213168D01*
X160827003Y-128215793D01*
X160788301Y-128264220D01*
X160731816Y-128296828D01*
X160666061Y-128312454D01*
X160599549Y-128309937D01*
X160540795Y-128288114D01*
X160507742Y-128259382D01*
X160460141Y-128180583D01*
X160425261Y-128082378D01*
X160406123Y-127974779D01*
X160403412Y-127913780D01*
X160414330Y-127799935D01*
X160446376Y-127705660D01*
X160501274Y-127626379D01*
X160518393Y-127608733D01*
X160569339Y-127559235D01*
X160572837Y-127209362D01*
X160576336Y-126859489D01*
X160487182Y-126724531D01*
X160445346Y-126663445D01*
X160405055Y-126608493D01*
X160372057Y-126567336D01*
X160357874Y-126552192D01*
X160317719Y-126514810D01*
X160263335Y-126544098D01*
X160228961Y-126565084D01*
X160210154Y-126581378D01*
X160208951Y-126584307D01*
X160196097Y-126596728D01*
X160174104Y-126605977D01*
X160152850Y-126614313D01*
X160120306Y-126630149D01*
X160073678Y-126655033D01*
X160010171Y-126690509D01*
X159926992Y-126738123D01*
X159821347Y-126799422D01*
X159763938Y-126832932D01*
X159696406Y-126873071D01*
X159652115Y-126901659D01*
X159627145Y-126922039D01*
X159617577Y-126937553D01*
X159619492Y-126951546D01*
X159621089Y-126954796D01*
X159636624Y-126975266D01*
X159669864Y-127013665D01*
X159716938Y-127065696D01*
X159773972Y-127127066D01*
X159823300Y-127179090D01*
X159936970Y-127302567D01*
X160025895Y-127409591D01*
X160090866Y-127501240D01*
X160132679Y-127578588D01*
X160146783Y-127617866D01*
X160152608Y-127652249D01*
X160158625Y-127710899D01*
X160164304Y-127787117D01*
X160169116Y-127874202D01*
X160171381Y-127929268D01*
X160174541Y-128024464D01*
X160175931Y-128094062D01*
X160175142Y-128143409D01*
X160171765Y-128177854D01*
X160165392Y-128202743D01*
X160155613Y-128223425D01*
X160147933Y-128236053D01*
X160103579Y-128284726D01*
X160046426Y-128318645D01*
X159986292Y-128333438D01*
X159941227Y-128328086D01*
X159900424Y-128304930D01*
X159849276Y-128263462D01*
X159794958Y-128210912D01*
X159744643Y-128154516D01*
X159705506Y-128101505D01*
X159691095Y-128075889D01*
X159669509Y-128040814D01*
X159630247Y-127987389D01*
X159576898Y-127919789D01*
X159513048Y-127842190D01*
X159442285Y-127758768D01*
X159368196Y-127673698D01*
X159294368Y-127591155D01*
X159224389Y-127515316D01*
X159161845Y-127450356D01*
X159112740Y-127402669D01*
X159058221Y-127355032D01*
X159012358Y-127319908D01*
X158980189Y-127300949D01*
X158969511Y-127298864D01*
X158953147Y-127307274D01*
X158912329Y-127329846D01*
X158849414Y-127365224D01*
X158766756Y-127412054D01*
X158666711Y-127468981D01*
X158551634Y-127534649D01*
X158423881Y-127607703D01*
X158285806Y-127686788D01*
X158139766Y-127770548D01*
X157988116Y-127857629D01*
X157833210Y-127946676D01*
X157677405Y-128036332D01*
X157523056Y-128125243D01*
X157372518Y-128212054D01*
X157228146Y-128295409D01*
X157092296Y-128373954D01*
X156967323Y-128446333D01*
X156855583Y-128511190D01*
X156759430Y-128567171D01*
X156681221Y-128612920D01*
X156623311Y-128647083D01*
X156588054Y-128668304D01*
X156577835Y-128674963D01*
X156591598Y-128676280D01*
X156634896Y-128677559D01*
X156706286Y-128678796D01*
X156804327Y-128679983D01*
X156927578Y-128681115D01*
X157074597Y-128682186D01*
X157243943Y-128683189D01*
X157434174Y-128684119D01*
X157643849Y-128684968D01*
X157871527Y-128685732D01*
X158115765Y-128686403D01*
X158375123Y-128686976D01*
X158648159Y-128687444D01*
X158933432Y-128687802D01*
X159229500Y-128688042D01*
X159534921Y-128688159D01*
X159663076Y-128688171D01*
X162763030Y-128688171D01*
X162541947Y-128304847D01*
X162495144Y-128223680D01*
X162434898Y-128119166D01*
X162363222Y-127994801D01*
X162282131Y-127854082D01*
X162193638Y-127700503D01*
X162099760Y-127537562D01*
X162002509Y-127368754D01*
X161903900Y-127197575D01*
X161805947Y-127027521D01*
X161781175Y-126984512D01*
X161690848Y-126827857D01*
X161604711Y-126678803D01*
X161524058Y-126539568D01*
X161450184Y-126412371D01*
X161384383Y-126299432D01*
X161327950Y-126202968D01*
X161282179Y-126125200D01*
X161248365Y-126068346D01*
X161227802Y-126034625D01*
X161222047Y-126026040D01*
X161209942Y-126019189D01*
X161189906Y-126021158D01*
G37*
X161189906Y-126021158D02*
X161157381Y-126033736D01*
X161107807Y-126058712D01*
X161036626Y-126097876D01*
X161031084Y-126100988D01*
X160965526Y-126138476D01*
X160910202Y-126171319D01*
X160870545Y-126196205D01*
X160851988Y-126209820D01*
X160851469Y-126210487D01*
X160855952Y-126229390D01*
X160876514Y-126271605D01*
X160911817Y-126334832D01*
X160960520Y-126416772D01*
X161021282Y-126515122D01*
X161092764Y-126627585D01*
X161110555Y-126655165D01*
X161156907Y-126731699D01*
X161190658Y-126797556D01*
X161208847Y-126846782D01*
X161210714Y-126856507D01*
X161209885Y-126899312D01*
X161200606Y-126967209D01*
X161184032Y-127055843D01*
X161161320Y-127160859D01*
X161133627Y-127277902D01*
X161102110Y-127402616D01*
X161067925Y-127530645D01*
X161032229Y-127657634D01*
X160996179Y-127779228D01*
X160960932Y-127891072D01*
X160927644Y-127988810D01*
X160897472Y-128068087D01*
X160876439Y-128115122D01*
X160851663Y-128165225D01*
X160828270Y-128213168D01*
X160827003Y-128215793D01*
X160788301Y-128264220D01*
X160731816Y-128296828D01*
X160666061Y-128312454D01*
X160599549Y-128309937D01*
X160540795Y-128288114D01*
X160507742Y-128259382D01*
X160460141Y-128180583D01*
X160425261Y-128082378D01*
X160406123Y-127974779D01*
X160403412Y-127913780D01*
X160414330Y-127799935D01*
X160446376Y-127705660D01*
X160501274Y-127626379D01*
X160518393Y-127608733D01*
X160569339Y-127559235D01*
X160572837Y-127209362D01*
X160576336Y-126859489D01*
X160487182Y-126724531D01*
X160445346Y-126663445D01*
X160405055Y-126608493D01*
X160372057Y-126567336D01*
X160357874Y-126552192D01*
X160317719Y-126514810D01*
X160263335Y-126544098D01*
X160228961Y-126565084D01*
X160210154Y-126581378D01*
X160208951Y-126584307D01*
X160196097Y-126596728D01*
X160174104Y-126605977D01*
X160152850Y-126614313D01*
X160120306Y-126630149D01*
X160073678Y-126655033D01*
X160010171Y-126690509D01*
X159926992Y-126738123D01*
X159821347Y-126799422D01*
X159763938Y-126832932D01*
X159696406Y-126873071D01*
X159652115Y-126901659D01*
X159627145Y-126922039D01*
X159617577Y-126937553D01*
X159619492Y-126951546D01*
X159621089Y-126954796D01*
X159636624Y-126975266D01*
X159669864Y-127013665D01*
X159716938Y-127065696D01*
X159773972Y-127127066D01*
X159823300Y-127179090D01*
X159936970Y-127302567D01*
X160025895Y-127409591D01*
X160090866Y-127501240D01*
X160132679Y-127578588D01*
X160146783Y-127617866D01*
X160152608Y-127652249D01*
X160158625Y-127710899D01*
X160164304Y-127787117D01*
X160169116Y-127874202D01*
X160171381Y-127929268D01*
X160174541Y-128024464D01*
X160175931Y-128094062D01*
X160175142Y-128143409D01*
X160171765Y-128177854D01*
X160165392Y-128202743D01*
X160155613Y-128223425D01*
X160147933Y-128236053D01*
X160103579Y-128284726D01*
X160046426Y-128318645D01*
X159986292Y-128333438D01*
X159941227Y-128328086D01*
X159900424Y-128304930D01*
X159849276Y-128263462D01*
X159794958Y-128210912D01*
X159744643Y-128154516D01*
X159705506Y-128101505D01*
X159691095Y-128075889D01*
X159669509Y-128040814D01*
X159630247Y-127987389D01*
X159576898Y-127919789D01*
X159513048Y-127842190D01*
X159442285Y-127758768D01*
X159368196Y-127673698D01*
X159294368Y-127591155D01*
X159224389Y-127515316D01*
X159161845Y-127450356D01*
X159112740Y-127402669D01*
X159058221Y-127355032D01*
X159012358Y-127319908D01*
X158980189Y-127300949D01*
X158969511Y-127298864D01*
X158953147Y-127307274D01*
X158912329Y-127329846D01*
X158849414Y-127365224D01*
X158766756Y-127412054D01*
X158666711Y-127468981D01*
X158551634Y-127534649D01*
X158423881Y-127607703D01*
X158285806Y-127686788D01*
X158139766Y-127770548D01*
X157988116Y-127857629D01*
X157833210Y-127946676D01*
X157677405Y-128036332D01*
X157523056Y-128125243D01*
X157372518Y-128212054D01*
X157228146Y-128295409D01*
X157092296Y-128373954D01*
X156967323Y-128446333D01*
X156855583Y-128511190D01*
X156759430Y-128567171D01*
X156681221Y-128612920D01*
X156623311Y-128647083D01*
X156588054Y-128668304D01*
X156577835Y-128674963D01*
X156591598Y-128676280D01*
X156634896Y-128677559D01*
X156706286Y-128678796D01*
X156804327Y-128679983D01*
X156927578Y-128681115D01*
X157074597Y-128682186D01*
X157243943Y-128683189D01*
X157434174Y-128684119D01*
X157643849Y-128684968D01*
X157871527Y-128685732D01*
X158115765Y-128686403D01*
X158375123Y-128686976D01*
X158648159Y-128687444D01*
X158933432Y-128687802D01*
X159229500Y-128688042D01*
X159534921Y-128688159D01*
X159663076Y-128688171D01*
X162763030Y-128688171D01*
X162541947Y-128304847D01*
X162495144Y-128223680D01*
X162434898Y-128119166D01*
X162363222Y-127994801D01*
X162282131Y-127854082D01*
X162193638Y-127700503D01*
X162099760Y-127537562D01*
X162002509Y-127368754D01*
X161903900Y-127197575D01*
X161805947Y-127027521D01*
X161781175Y-126984512D01*
X161690848Y-126827857D01*
X161604711Y-126678803D01*
X161524058Y-126539568D01*
X161450184Y-126412371D01*
X161384383Y-126299432D01*
X161327950Y-126202968D01*
X161282179Y-126125200D01*
X161248365Y-126068346D01*
X161227802Y-126034625D01*
X161222047Y-126026040D01*
X161209942Y-126019189D01*
X161189906Y-126021158D01*
G36*
X157524472Y-125964619D02*
G01*
X157513092Y-125983693D01*
X157487512Y-126027421D01*
X157448998Y-126093619D01*
X157398814Y-126180102D01*
X157338225Y-126284685D01*
X157268497Y-126405183D01*
X157190893Y-126539412D01*
X157106680Y-126685187D01*
X157017121Y-126840323D01*
X156925002Y-127000000D01*
X156830924Y-127163117D01*
X156740598Y-127319709D01*
X156655335Y-127467506D01*
X156576443Y-127604240D01*
X156505231Y-127727642D01*
X156443009Y-127835444D01*
X156391087Y-127925377D01*
X156350772Y-127995173D01*
X156323376Y-128042564D01*
X156310493Y-128064786D01*
X156289493Y-128102330D01*
X156278075Y-128125831D01*
X156277449Y-128129920D01*
X156291364Y-128122242D01*
X156330059Y-128100203D01*
X156391513Y-128064971D01*
X156473702Y-128017711D01*
X156574604Y-127959589D01*
X156692195Y-127891771D01*
X156824454Y-127815424D01*
X156969358Y-127731714D01*
X157124883Y-127641806D01*
X157289008Y-127546867D01*
X157351451Y-127510732D01*
X157518513Y-127414083D01*
X157677926Y-127321938D01*
X157827645Y-127235475D01*
X157965624Y-127155871D01*
X158089815Y-127084305D01*
X158198173Y-127021955D01*
X158288652Y-126969998D01*
X158359204Y-126929613D01*
X158407785Y-126901978D01*
X158432346Y-126888272D01*
X158434915Y-126886974D01*
X158427431Y-126875220D01*
X158401386Y-126843795D01*
X158359441Y-126795594D01*
X158304254Y-126733510D01*
X158238483Y-126660439D01*
X158164788Y-126579276D01*
X158085827Y-126492916D01*
X158004260Y-126404253D01*
X157922746Y-126316182D01*
X157843943Y-126231599D01*
X157770510Y-126153397D01*
X157705107Y-126084472D01*
X157650392Y-126027719D01*
X157609023Y-125986032D01*
X157594836Y-125972363D01*
X157547820Y-125928201D01*
X157524472Y-125964619D01*
G37*
X157524472Y-125964619D02*
X157513092Y-125983693D01*
X157487512Y-126027421D01*
X157448998Y-126093619D01*
X157398814Y-126180102D01*
X157338225Y-126284685D01*
X157268497Y-126405183D01*
X157190893Y-126539412D01*
X157106680Y-126685187D01*
X157017121Y-126840323D01*
X156925002Y-127000000D01*
X156830924Y-127163117D01*
X156740598Y-127319709D01*
X156655335Y-127467506D01*
X156576443Y-127604240D01*
X156505231Y-127727642D01*
X156443009Y-127835444D01*
X156391087Y-127925377D01*
X156350772Y-127995173D01*
X156323376Y-128042564D01*
X156310493Y-128064786D01*
X156289493Y-128102330D01*
X156278075Y-128125831D01*
X156277449Y-128129920D01*
X156291364Y-128122242D01*
X156330059Y-128100203D01*
X156391513Y-128064971D01*
X156473702Y-128017711D01*
X156574604Y-127959589D01*
X156692195Y-127891771D01*
X156824454Y-127815424D01*
X156969358Y-127731714D01*
X157124883Y-127641806D01*
X157289008Y-127546867D01*
X157351451Y-127510732D01*
X157518513Y-127414083D01*
X157677926Y-127321938D01*
X157827645Y-127235475D01*
X157965624Y-127155871D01*
X158089815Y-127084305D01*
X158198173Y-127021955D01*
X158288652Y-126969998D01*
X158359204Y-126929613D01*
X158407785Y-126901978D01*
X158432346Y-126888272D01*
X158434915Y-126886974D01*
X158427431Y-126875220D01*
X158401386Y-126843795D01*
X158359441Y-126795594D01*
X158304254Y-126733510D01*
X158238483Y-126660439D01*
X158164788Y-126579276D01*
X158085827Y-126492916D01*
X158004260Y-126404253D01*
X157922746Y-126316182D01*
X157843943Y-126231599D01*
X157770510Y-126153397D01*
X157705107Y-126084472D01*
X157650392Y-126027719D01*
X157609023Y-125986032D01*
X157594836Y-125972363D01*
X157547820Y-125928201D01*
X157524472Y-125964619D01*
G36*
X159347957Y-122815835D02*
G01*
X159324935Y-122853245D01*
X159289466Y-122912514D01*
X159243004Y-122991118D01*
X159187004Y-123086538D01*
X159122919Y-123196250D01*
X159052204Y-123317734D01*
X158976313Y-123448468D01*
X158896701Y-123585930D01*
X158814822Y-123727598D01*
X158732130Y-123870951D01*
X158650079Y-124013467D01*
X158570124Y-124152624D01*
X158493719Y-124285901D01*
X158422318Y-124410776D01*
X158357376Y-124524727D01*
X158300347Y-124625233D01*
X158252685Y-124709772D01*
X158215845Y-124775822D01*
X158191280Y-124820862D01*
X158180446Y-124842370D01*
X158180049Y-124843714D01*
X158193499Y-124861965D01*
X158230886Y-124889882D01*
X158287765Y-124924725D01*
X158359688Y-124963754D01*
X158434985Y-125000843D01*
X158537440Y-125045817D01*
X158645183Y-125086226D01*
X158761927Y-125122969D01*
X158891382Y-125156942D01*
X159037260Y-125189044D01*
X159203274Y-125220173D01*
X159393134Y-125251227D01*
X159589531Y-125280145D01*
X159760166Y-125305800D01*
X159903455Y-125331198D01*
X160022992Y-125357602D01*
X160122370Y-125386273D01*
X160205182Y-125418473D01*
X160275022Y-125455465D01*
X160335482Y-125498512D01*
X160390155Y-125548875D01*
X160407786Y-125567583D01*
X160446000Y-125611139D01*
X160474268Y-125646682D01*
X160487382Y-125667583D01*
X160487732Y-125669297D01*
X160492320Y-125679806D01*
X160508242Y-125679924D01*
X160538734Y-125668254D01*
X160587032Y-125643396D01*
X160656373Y-125603952D01*
X160704561Y-125575587D01*
X160776417Y-125531247D01*
X160832258Y-125493279D01*
X160868333Y-125464416D01*
X160880887Y-125447388D01*
X160880879Y-125447264D01*
X160873094Y-125431037D01*
X160851108Y-125390400D01*
X160816197Y-125327567D01*
X160769637Y-125244752D01*
X160712705Y-125144172D01*
X160646677Y-125028040D01*
X160572828Y-124898571D01*
X160492436Y-124757980D01*
X160406776Y-124608482D01*
X160317124Y-124452292D01*
X160224757Y-124291624D01*
X160130951Y-124128693D01*
X160036982Y-123965713D01*
X159944126Y-123804900D01*
X159853660Y-123648468D01*
X159766859Y-123498633D01*
X159685000Y-123357608D01*
X159609359Y-123227609D01*
X159541213Y-123110849D01*
X159481837Y-123009545D01*
X159432507Y-122925911D01*
X159394500Y-122862162D01*
X159369093Y-122820511D01*
X159357560Y-122803175D01*
X159357077Y-122802805D01*
X159347957Y-122815835D01*
G37*
X159347957Y-122815835D02*
X159324935Y-122853245D01*
X159289466Y-122912514D01*
X159243004Y-122991118D01*
X159187004Y-123086538D01*
X159122919Y-123196250D01*
X159052204Y-123317734D01*
X158976313Y-123448468D01*
X158896701Y-123585930D01*
X158814822Y-123727598D01*
X158732130Y-123870951D01*
X158650079Y-124013467D01*
X158570124Y-124152624D01*
X158493719Y-124285901D01*
X158422318Y-124410776D01*
X158357376Y-124524727D01*
X158300347Y-124625233D01*
X158252685Y-124709772D01*
X158215845Y-124775822D01*
X158191280Y-124820862D01*
X158180446Y-124842370D01*
X158180049Y-124843714D01*
X158193499Y-124861965D01*
X158230886Y-124889882D01*
X158287765Y-124924725D01*
X158359688Y-124963754D01*
X158434985Y-125000843D01*
X158537440Y-125045817D01*
X158645183Y-125086226D01*
X158761927Y-125122969D01*
X158891382Y-125156942D01*
X159037260Y-125189044D01*
X159203274Y-125220173D01*
X159393134Y-125251227D01*
X159589531Y-125280145D01*
X159760166Y-125305800D01*
X159903455Y-125331198D01*
X160022992Y-125357602D01*
X160122370Y-125386273D01*
X160205182Y-125418473D01*
X160275022Y-125455465D01*
X160335482Y-125498512D01*
X160390155Y-125548875D01*
X160407786Y-125567583D01*
X160446000Y-125611139D01*
X160474268Y-125646682D01*
X160487382Y-125667583D01*
X160487732Y-125669297D01*
X160492320Y-125679806D01*
X160508242Y-125679924D01*
X160538734Y-125668254D01*
X160587032Y-125643396D01*
X160656373Y-125603952D01*
X160704561Y-125575587D01*
X160776417Y-125531247D01*
X160832258Y-125493279D01*
X160868333Y-125464416D01*
X160880887Y-125447388D01*
X160880879Y-125447264D01*
X160873094Y-125431037D01*
X160851108Y-125390400D01*
X160816197Y-125327567D01*
X160769637Y-125244752D01*
X160712705Y-125144172D01*
X160646677Y-125028040D01*
X160572828Y-124898571D01*
X160492436Y-124757980D01*
X160406776Y-124608482D01*
X160317124Y-124452292D01*
X160224757Y-124291624D01*
X160130951Y-124128693D01*
X160036982Y-123965713D01*
X159944126Y-123804900D01*
X159853660Y-123648468D01*
X159766859Y-123498633D01*
X159685000Y-123357608D01*
X159609359Y-123227609D01*
X159541213Y-123110849D01*
X159481837Y-123009545D01*
X159432507Y-122925911D01*
X159394500Y-122862162D01*
X159369093Y-122820511D01*
X159357560Y-122803175D01*
X159357077Y-122802805D01*
X159347957Y-122815835D01*
G36*
X164368178Y-128747822D02*
G01*
X167888971Y-128747822D01*
X167888971Y-127880198D01*
X164368178Y-127880198D01*
X164368178Y-128747822D01*
G37*
X164368178Y-128747822D02*
X167888971Y-128747822D01*
X167888971Y-127880198D01*
X164368178Y-127880198D01*
X164368178Y-128747822D01*
G36*
X163991570Y-122794848D02*
G01*
X163992189Y-122881931D01*
X164443914Y-123340891D01*
X164895639Y-123799852D01*
X164895968Y-124010471D01*
X164896297Y-124221089D01*
X165171390Y-124221089D01*
X165178478Y-124274530D01*
X165181162Y-124298888D01*
X165185687Y-124344759D01*
X165191809Y-124409405D01*
X165199288Y-124490091D01*
X165207881Y-124584081D01*
X165217346Y-124688637D01*
X165227442Y-124801025D01*
X165237926Y-124918507D01*
X165248556Y-125038348D01*
X165259091Y-125157811D01*
X165269287Y-125274159D01*
X165278905Y-125384657D01*
X165287700Y-125486569D01*
X165295432Y-125577158D01*
X165301858Y-125653687D01*
X165306737Y-125713421D01*
X165309825Y-125753624D01*
X165310883Y-125771559D01*
X165310882Y-125771644D01*
X165303173Y-125786035D01*
X165280019Y-125815748D01*
X165241105Y-125861131D01*
X165186116Y-125922529D01*
X165114736Y-126000288D01*
X165026651Y-126094754D01*
X164921546Y-126206272D01*
X164799105Y-126335188D01*
X164764690Y-126371287D01*
X164218863Y-126943416D01*
X164307119Y-127031436D01*
X164378515Y-126953758D01*
X164404634Y-126925686D01*
X164445434Y-126882274D01*
X164498223Y-126826366D01*
X164560309Y-126760808D01*
X164629000Y-126688441D01*
X164701604Y-126612112D01*
X164745040Y-126566524D01*
X164826584Y-126481119D01*
X164892496Y-126412710D01*
X164944456Y-126360053D01*
X164984145Y-126321905D01*
X165013243Y-126297020D01*
X165033431Y-126284156D01*
X165046390Y-126282068D01*
X165053800Y-126289513D01*
X165057342Y-126305246D01*
X165058697Y-126328023D01*
X165058879Y-126334239D01*
X165068297Y-126377061D01*
X165091503Y-126428819D01*
X165123864Y-126481328D01*
X165160748Y-126526403D01*
X165175507Y-126540328D01*
X165251233Y-126589047D01*
X165339692Y-126616306D01*
X165417900Y-126622773D01*
X165506532Y-126610576D01*
X165588388Y-126574813D01*
X165660836Y-126516722D01*
X165674203Y-126502262D01*
X165723082Y-126446733D01*
X166568674Y-126446733D01*
X166568674Y-126622773D01*
X166795010Y-126622773D01*
X166795010Y-126540531D01*
X166797850Y-126484386D01*
X166807393Y-126445416D01*
X166818991Y-126424219D01*
X166827277Y-126409052D01*
X166834373Y-126387062D01*
X166840748Y-126354987D01*
X166846872Y-126309569D01*
X166853216Y-126247548D01*
X166860250Y-126165662D01*
X166865066Y-126104746D01*
X166887161Y-125819343D01*
X167429565Y-126368805D01*
X167527637Y-126468228D01*
X167621784Y-126563815D01*
X167710285Y-126653810D01*
X167791420Y-126736457D01*
X167863469Y-126810001D01*
X167924712Y-126872684D01*
X167973427Y-126922752D01*
X168007896Y-126958448D01*
X168026379Y-126977995D01*
X168056743Y-127008944D01*
X168082071Y-127030530D01*
X168095695Y-127037723D01*
X168113095Y-127029297D01*
X168138460Y-127008245D01*
X168147058Y-126999671D01*
X168183514Y-126961620D01*
X167982802Y-126757658D01*
X167931596Y-126705699D01*
X167865569Y-126638820D01*
X167787618Y-126559950D01*
X167700638Y-126472014D01*
X167607526Y-126377941D01*
X167511179Y-126280658D01*
X167414492Y-126183093D01*
X167345134Y-126113145D01*
X167239703Y-126006550D01*
X167151129Y-125916307D01*
X167078281Y-125841192D01*
X167020023Y-125779986D01*
X166975225Y-125731466D01*
X166953021Y-125706129D01*
X166774724Y-125706129D01*
X166752401Y-125991555D01*
X166745669Y-126075219D01*
X166739157Y-126151727D01*
X166733234Y-126217081D01*
X166728268Y-126267281D01*
X166724629Y-126298329D01*
X166723458Y-126305273D01*
X166716838Y-126333565D01*
X165767364Y-126333565D01*
X165761026Y-126254606D01*
X165741890Y-126161315D01*
X165701846Y-126078791D01*
X165643418Y-126010038D01*
X165569129Y-125958063D01*
X165485748Y-125926863D01*
X165458698Y-125912228D01*
X165445156Y-125880819D01*
X165444872Y-125879434D01*
X165443247Y-125866174D01*
X165445256Y-125852595D01*
X165452858Y-125836181D01*
X165468016Y-125814411D01*
X165492688Y-125784767D01*
X165528836Y-125744732D01*
X165578420Y-125691785D01*
X165643401Y-125623409D01*
X165647599Y-125619005D01*
X165717493Y-125545611D01*
X165791800Y-125467437D01*
X165865414Y-125389864D01*
X165933229Y-125318275D01*
X165990140Y-125258051D01*
X166002832Y-125244587D01*
X166051487Y-125193820D01*
X166094709Y-125150375D01*
X166129395Y-125117241D01*
X166152444Y-125097405D01*
X166160182Y-125093046D01*
X166171722Y-125102170D01*
X166198710Y-125127200D01*
X166239021Y-125166052D01*
X166290529Y-125216643D01*
X166351109Y-125276888D01*
X166418636Y-125344704D01*
X166473826Y-125400565D01*
X166774724Y-125706129D01*
X166953021Y-125706129D01*
X166942751Y-125694411D01*
X166921471Y-125667599D01*
X166910251Y-125649808D01*
X166907754Y-125641570D01*
X166908700Y-125623590D01*
X166911573Y-125582892D01*
X166916187Y-125521819D01*
X166922358Y-125442713D01*
X166929898Y-125347914D01*
X166938621Y-125239767D01*
X166948343Y-125120612D01*
X166958876Y-124992791D01*
X166967365Y-124890635D01*
X167015396Y-124314674D01*
X166891805Y-124314674D01*
X166891273Y-124327104D01*
X166888769Y-124362110D01*
X166884496Y-124417215D01*
X166878653Y-124489943D01*
X166871443Y-124577814D01*
X166863066Y-124678351D01*
X166853723Y-124789077D01*
X166844758Y-124894205D01*
X166834602Y-125013483D01*
X166825142Y-125126080D01*
X166816596Y-125229305D01*
X166809179Y-125320473D01*
X166803108Y-125396895D01*
X166798601Y-125455883D01*
X166795873Y-125494749D01*
X166795116Y-125509844D01*
X166793935Y-125519238D01*
X166789256Y-125522966D01*
X166779276Y-125519471D01*
X166762190Y-125507199D01*
X166736196Y-125484594D01*
X166699490Y-125450100D01*
X166650267Y-125402162D01*
X166586726Y-125339224D01*
X166519305Y-125271968D01*
X166243601Y-124996477D01*
X166245533Y-124994406D01*
X166063290Y-124994406D01*
X166054984Y-125005780D01*
X166031733Y-125032563D01*
X165995865Y-125072292D01*
X165949713Y-125122507D01*
X165895606Y-125180746D01*
X165835874Y-125244547D01*
X165772848Y-125311449D01*
X165708858Y-125378990D01*
X165646236Y-125444710D01*
X165587310Y-125506146D01*
X165534412Y-125560837D01*
X165489872Y-125606322D01*
X165456020Y-125640138D01*
X165435188Y-125659826D01*
X165429506Y-125663837D01*
X165427634Y-125650891D01*
X165423746Y-125615134D01*
X165418057Y-125558804D01*
X165410781Y-125484140D01*
X165402131Y-125393380D01*
X165392322Y-125288762D01*
X165381566Y-125172526D01*
X165370079Y-125046908D01*
X165360907Y-124945618D01*
X165349174Y-124814279D01*
X165338335Y-124690552D01*
X165328570Y-124576681D01*
X165320063Y-124474911D01*
X165312995Y-124387487D01*
X165307549Y-124316653D01*
X165303908Y-124264653D01*
X165302253Y-124233732D01*
X165302442Y-124225703D01*
X165312334Y-124232854D01*
X165337524Y-124255841D01*
X165375810Y-124292439D01*
X165424989Y-124340422D01*
X165482861Y-124397566D01*
X165547222Y-124461647D01*
X165615871Y-124530438D01*
X165686605Y-124601716D01*
X165757222Y-124673255D01*
X165825520Y-124742830D01*
X165889296Y-124808217D01*
X165946350Y-124867191D01*
X165994478Y-124917527D01*
X166031478Y-124956999D01*
X166055148Y-124983383D01*
X166063290Y-124994406D01*
X166245533Y-124994406D01*
X166346409Y-124886295D01*
X166398768Y-124830377D01*
X166457535Y-124767948D01*
X166520385Y-124701443D01*
X166584995Y-124633298D01*
X166649042Y-124565948D01*
X166710203Y-124501828D01*
X166766153Y-124443372D01*
X166814570Y-124393018D01*
X166853130Y-124353198D01*
X166879509Y-124326350D01*
X166891384Y-124314908D01*
X166891805Y-124314674D01*
X167015396Y-124314674D01*
X167027401Y-124170726D01*
X167627938Y-123539158D01*
X168228475Y-122907589D01*
X168228034Y-122819315D01*
X168227592Y-122731040D01*
X168130583Y-122834666D01*
X168076291Y-122892463D01*
X168012192Y-122960368D01*
X167940016Y-123036572D01*
X167861492Y-123119269D01*
X167778349Y-123206653D01*
X167692319Y-123296915D01*
X167605130Y-123388250D01*
X167518513Y-123478849D01*
X167434197Y-123566907D01*
X167353912Y-123650615D01*
X167279387Y-123728167D01*
X167212354Y-123797757D01*
X167154541Y-123857576D01*
X167107679Y-123905818D01*
X167073496Y-123940676D01*
X167053724Y-123960343D01*
X167049390Y-123964116D01*
X167049092Y-123950992D01*
X167050731Y-123917389D01*
X167054023Y-123867880D01*
X167058682Y-123807037D01*
X167060682Y-123782732D01*
X167075577Y-123604951D01*
X166958955Y-123604951D01*
X166952934Y-123633243D01*
X166949863Y-123655618D01*
X166945548Y-123697717D01*
X166940488Y-123754178D01*
X166935181Y-123819635D01*
X166933344Y-123843862D01*
X166927927Y-123913421D01*
X166922459Y-123978018D01*
X166917488Y-124031548D01*
X166913561Y-124067910D01*
X166912675Y-124074509D01*
X166909334Y-124088056D01*
X166902101Y-124103914D01*
X166889440Y-124123861D01*
X166869811Y-124149673D01*
X166841678Y-124183129D01*
X166803502Y-124226007D01*
X166753746Y-124280083D01*
X166690871Y-124347136D01*
X166613341Y-124428943D01*
X166534251Y-124511950D01*
X166455564Y-124594094D01*
X166382112Y-124670169D01*
X166315724Y-124738325D01*
X166258227Y-124796712D01*
X166211451Y-124843481D01*
X166177224Y-124876782D01*
X166157373Y-124894767D01*
X166153140Y-124897442D01*
X166142003Y-124887741D01*
X166115971Y-124862441D01*
X166077570Y-124824082D01*
X166029328Y-124775200D01*
X165973770Y-124718334D01*
X165933592Y-124676906D01*
X165723831Y-124460000D01*
X166342337Y-124460000D01*
X166342337Y-124221089D01*
X165587881Y-124221089D01*
X165587881Y-124327542D01*
X165449565Y-124189654D01*
X165351447Y-124091840D01*
X165160357Y-124091840D01*
X165158529Y-124107270D01*
X165149277Y-124115867D01*
X165126950Y-124119613D01*
X165085895Y-124120489D01*
X165078624Y-124120495D01*
X164996891Y-124120495D01*
X164996891Y-123901172D01*
X165078624Y-123982179D01*
X165124730Y-124031428D01*
X165152306Y-124069159D01*
X165160357Y-124091840D01*
X165351447Y-124091840D01*
X165311248Y-124051766D01*
X165311248Y-123928952D01*
X165310863Y-123872450D01*
X165309100Y-123836505D01*
X165305050Y-123816530D01*
X165297801Y-123807937D01*
X165286870Y-123806139D01*
X165274712Y-123803498D01*
X165265727Y-123792912D01*
X165258826Y-123770381D01*
X165252924Y-123731909D01*
X165246935Y-123673498D01*
X165245013Y-123652104D01*
X165240852Y-123604951D01*
X166958955Y-123604951D01*
X167075577Y-123604951D01*
X167235109Y-123604951D01*
X167235109Y-123491782D01*
X167167314Y-123491782D01*
X167127662Y-123490696D01*
X167106116Y-123485454D01*
X167103480Y-123482334D01*
X166964616Y-123482334D01*
X166957308Y-123489462D01*
X166931993Y-123491662D01*
X166914908Y-123491782D01*
X166857881Y-123491782D01*
X166645221Y-123491782D01*
X165230698Y-123491782D01*
X165278542Y-123442786D01*
X165352850Y-123382324D01*
X165444816Y-123335691D01*
X165555998Y-123302249D01*
X165666471Y-123283753D01*
X165738773Y-123275122D01*
X165738773Y-123366040D01*
X166317188Y-123366040D01*
X166317188Y-123262893D01*
X166402065Y-123271496D01*
X166461368Y-123278756D01*
X166524551Y-123288379D01*
X166562386Y-123295252D01*
X166637832Y-123310407D01*
X166641526Y-123401095D01*
X166645221Y-123491782D01*
X166857881Y-123491782D01*
X166857881Y-123441485D01*
X166859544Y-123409976D01*
X166863697Y-123392463D01*
X166865371Y-123391188D01*
X166883987Y-123399254D01*
X166911183Y-123418820D01*
X166938448Y-123442944D01*
X166957267Y-123464682D01*
X166958943Y-123467508D01*
X166964616Y-123482334D01*
X167103480Y-123482334D01*
X167095662Y-123473081D01*
X167091442Y-123459604D01*
X167074219Y-123424627D01*
X167041138Y-123382579D01*
X166997893Y-123339356D01*
X166950174Y-123300854D01*
X166918830Y-123280801D01*
X166883123Y-123258851D01*
X166864819Y-123240411D01*
X166858388Y-123218668D01*
X166857894Y-123205718D01*
X166857894Y-123202575D01*
X166216594Y-123202575D01*
X166216594Y-123265446D01*
X165839367Y-123265446D01*
X165839367Y-123202575D01*
X166216594Y-123202575D01*
X166857894Y-123202575D01*
X166857881Y-123164852D01*
X166752048Y-123164852D01*
X166703355Y-123166029D01*
X166665405Y-123169165D01*
X166644308Y-123173671D01*
X166642023Y-123175495D01*
X166628641Y-123178295D01*
X166596074Y-123177148D01*
X166549916Y-123172393D01*
X166518376Y-123168003D01*
X166461188Y-123159378D01*
X166408886Y-123151591D01*
X166369582Y-123145847D01*
X166358055Y-123144215D01*
X166327937Y-123134888D01*
X166317188Y-123120272D01*
X166313920Y-123114320D01*
X166302230Y-123109778D01*
X166279288Y-123106470D01*
X166242265Y-123104215D01*
X166188332Y-123102834D01*
X166114660Y-123102150D01*
X166027980Y-123101980D01*
X165935471Y-123102077D01*
X165865094Y-123102530D01*
X165813836Y-123103590D01*
X165778680Y-123105503D01*
X165756611Y-123108519D01*
X165744615Y-123112885D01*
X165739676Y-123118849D01*
X165738773Y-123125784D01*
X165731079Y-123147795D01*
X165705879Y-123160321D01*
X165659991Y-123164788D01*
X165651736Y-123164852D01*
X165574027Y-123172868D01*
X165485767Y-123194936D01*
X165394915Y-123228084D01*
X165309430Y-123269339D01*
X165237274Y-123315731D01*
X165227928Y-123323082D01*
X165197467Y-123346998D01*
X165179428Y-123356576D01*
X165166831Y-123353480D01*
X165153900Y-123340704D01*
X165115707Y-123315678D01*
X165066002Y-123306071D01*
X165012476Y-123311067D01*
X164962822Y-123329851D01*
X164924733Y-123361606D01*
X164921975Y-123365297D01*
X164893474Y-123424575D01*
X164888172Y-123485934D01*
X164905482Y-123544427D01*
X164944820Y-123595104D01*
X164949630Y-123599289D01*
X164977560Y-123619167D01*
X165005898Y-123627921D01*
X165045737Y-123628553D01*
X165055689Y-123627992D01*
X165094668Y-123626562D01*
X165114746Y-123629839D01*
X165122015Y-123639728D01*
X165122760Y-123648961D01*
X165124284Y-123675744D01*
X165128065Y-123716025D01*
X165130782Y-123740124D01*
X165134723Y-123778401D01*
X165133084Y-123797996D01*
X165123579Y-123805158D01*
X165106649Y-123806139D01*
X165096608Y-123802901D01*
X165080410Y-123792420D01*
X165056855Y-123773548D01*
X165024743Y-123745135D01*
X164982872Y-123706035D01*
X164930043Y-123655097D01*
X164865055Y-123591173D01*
X164786709Y-123513114D01*
X164693803Y-123419772D01*
X164585137Y-123309998D01*
X164532769Y-123256952D01*
X163990951Y-122707767D01*
X163991570Y-122794848D01*
G37*
X163991570Y-122794848D02*
X163992189Y-122881931D01*
X164443914Y-123340891D01*
X164895639Y-123799852D01*
X164895968Y-124010471D01*
X164896297Y-124221089D01*
X165171390Y-124221089D01*
X165178478Y-124274530D01*
X165181162Y-124298888D01*
X165185687Y-124344759D01*
X165191809Y-124409405D01*
X165199288Y-124490091D01*
X165207881Y-124584081D01*
X165217346Y-124688637D01*
X165227442Y-124801025D01*
X165237926Y-124918507D01*
X165248556Y-125038348D01*
X165259091Y-125157811D01*
X165269287Y-125274159D01*
X165278905Y-125384657D01*
X165287700Y-125486569D01*
X165295432Y-125577158D01*
X165301858Y-125653687D01*
X165306737Y-125713421D01*
X165309825Y-125753624D01*
X165310883Y-125771559D01*
X165310882Y-125771644D01*
X165303173Y-125786035D01*
X165280019Y-125815748D01*
X165241105Y-125861131D01*
X165186116Y-125922529D01*
X165114736Y-126000288D01*
X165026651Y-126094754D01*
X164921546Y-126206272D01*
X164799105Y-126335188D01*
X164764690Y-126371287D01*
X164218863Y-126943416D01*
X164307119Y-127031436D01*
X164378515Y-126953758D01*
X164404634Y-126925686D01*
X164445434Y-126882274D01*
X164498223Y-126826366D01*
X164560309Y-126760808D01*
X164629000Y-126688441D01*
X164701604Y-126612112D01*
X164745040Y-126566524D01*
X164826584Y-126481119D01*
X164892496Y-126412710D01*
X164944456Y-126360053D01*
X164984145Y-126321905D01*
X165013243Y-126297020D01*
X165033431Y-126284156D01*
X165046390Y-126282068D01*
X165053800Y-126289513D01*
X165057342Y-126305246D01*
X165058697Y-126328023D01*
X165058879Y-126334239D01*
X165068297Y-126377061D01*
X165091503Y-126428819D01*
X165123864Y-126481328D01*
X165160748Y-126526403D01*
X165175507Y-126540328D01*
X165251233Y-126589047D01*
X165339692Y-126616306D01*
X165417900Y-126622773D01*
X165506532Y-126610576D01*
X165588388Y-126574813D01*
X165660836Y-126516722D01*
X165674203Y-126502262D01*
X165723082Y-126446733D01*
X166568674Y-126446733D01*
X166568674Y-126622773D01*
X166795010Y-126622773D01*
X166795010Y-126540531D01*
X166797850Y-126484386D01*
X166807393Y-126445416D01*
X166818991Y-126424219D01*
X166827277Y-126409052D01*
X166834373Y-126387062D01*
X166840748Y-126354987D01*
X166846872Y-126309569D01*
X166853216Y-126247548D01*
X166860250Y-126165662D01*
X166865066Y-126104746D01*
X166887161Y-125819343D01*
X167429565Y-126368805D01*
X167527637Y-126468228D01*
X167621784Y-126563815D01*
X167710285Y-126653810D01*
X167791420Y-126736457D01*
X167863469Y-126810001D01*
X167924712Y-126872684D01*
X167973427Y-126922752D01*
X168007896Y-126958448D01*
X168026379Y-126977995D01*
X168056743Y-127008944D01*
X168082071Y-127030530D01*
X168095695Y-127037723D01*
X168113095Y-127029297D01*
X168138460Y-127008245D01*
X168147058Y-126999671D01*
X168183514Y-126961620D01*
X167982802Y-126757658D01*
X167931596Y-126705699D01*
X167865569Y-126638820D01*
X167787618Y-126559950D01*
X167700638Y-126472014D01*
X167607526Y-126377941D01*
X167511179Y-126280658D01*
X167414492Y-126183093D01*
X167345134Y-126113145D01*
X167239703Y-126006550D01*
X167151129Y-125916307D01*
X167078281Y-125841192D01*
X167020023Y-125779986D01*
X166975225Y-125731466D01*
X166953021Y-125706129D01*
X166774724Y-125706129D01*
X166752401Y-125991555D01*
X166745669Y-126075219D01*
X166739157Y-126151727D01*
X166733234Y-126217081D01*
X166728268Y-126267281D01*
X166724629Y-126298329D01*
X166723458Y-126305273D01*
X166716838Y-126333565D01*
X165767364Y-126333565D01*
X165761026Y-126254606D01*
X165741890Y-126161315D01*
X165701846Y-126078791D01*
X165643418Y-126010038D01*
X165569129Y-125958063D01*
X165485748Y-125926863D01*
X165458698Y-125912228D01*
X165445156Y-125880819D01*
X165444872Y-125879434D01*
X165443247Y-125866174D01*
X165445256Y-125852595D01*
X165452858Y-125836181D01*
X165468016Y-125814411D01*
X165492688Y-125784767D01*
X165528836Y-125744732D01*
X165578420Y-125691785D01*
X165643401Y-125623409D01*
X165647599Y-125619005D01*
X165717493Y-125545611D01*
X165791800Y-125467437D01*
X165865414Y-125389864D01*
X165933229Y-125318275D01*
X165990140Y-125258051D01*
X166002832Y-125244587D01*
X166051487Y-125193820D01*
X166094709Y-125150375D01*
X166129395Y-125117241D01*
X166152444Y-125097405D01*
X166160182Y-125093046D01*
X166171722Y-125102170D01*
X166198710Y-125127200D01*
X166239021Y-125166052D01*
X166290529Y-125216643D01*
X166351109Y-125276888D01*
X166418636Y-125344704D01*
X166473826Y-125400565D01*
X166774724Y-125706129D01*
X166953021Y-125706129D01*
X166942751Y-125694411D01*
X166921471Y-125667599D01*
X166910251Y-125649808D01*
X166907754Y-125641570D01*
X166908700Y-125623590D01*
X166911573Y-125582892D01*
X166916187Y-125521819D01*
X166922358Y-125442713D01*
X166929898Y-125347914D01*
X166938621Y-125239767D01*
X166948343Y-125120612D01*
X166958876Y-124992791D01*
X166967365Y-124890635D01*
X167015396Y-124314674D01*
X166891805Y-124314674D01*
X166891273Y-124327104D01*
X166888769Y-124362110D01*
X166884496Y-124417215D01*
X166878653Y-124489943D01*
X166871443Y-124577814D01*
X166863066Y-124678351D01*
X166853723Y-124789077D01*
X166844758Y-124894205D01*
X166834602Y-125013483D01*
X166825142Y-125126080D01*
X166816596Y-125229305D01*
X166809179Y-125320473D01*
X166803108Y-125396895D01*
X166798601Y-125455883D01*
X166795873Y-125494749D01*
X166795116Y-125509844D01*
X166793935Y-125519238D01*
X166789256Y-125522966D01*
X166779276Y-125519471D01*
X166762190Y-125507199D01*
X166736196Y-125484594D01*
X166699490Y-125450100D01*
X166650267Y-125402162D01*
X166586726Y-125339224D01*
X166519305Y-125271968D01*
X166243601Y-124996477D01*
X166245533Y-124994406D01*
X166063290Y-124994406D01*
X166054984Y-125005780D01*
X166031733Y-125032563D01*
X165995865Y-125072292D01*
X165949713Y-125122507D01*
X165895606Y-125180746D01*
X165835874Y-125244547D01*
X165772848Y-125311449D01*
X165708858Y-125378990D01*
X165646236Y-125444710D01*
X165587310Y-125506146D01*
X165534412Y-125560837D01*
X165489872Y-125606322D01*
X165456020Y-125640138D01*
X165435188Y-125659826D01*
X165429506Y-125663837D01*
X165427634Y-125650891D01*
X165423746Y-125615134D01*
X165418057Y-125558804D01*
X165410781Y-125484140D01*
X165402131Y-125393380D01*
X165392322Y-125288762D01*
X165381566Y-125172526D01*
X165370079Y-125046908D01*
X165360907Y-124945618D01*
X165349174Y-124814279D01*
X165338335Y-124690552D01*
X165328570Y-124576681D01*
X165320063Y-124474911D01*
X165312995Y-124387487D01*
X165307549Y-124316653D01*
X165303908Y-124264653D01*
X165302253Y-124233732D01*
X165302442Y-124225703D01*
X165312334Y-124232854D01*
X165337524Y-124255841D01*
X165375810Y-124292439D01*
X165424989Y-124340422D01*
X165482861Y-124397566D01*
X165547222Y-124461647D01*
X165615871Y-124530438D01*
X165686605Y-124601716D01*
X165757222Y-124673255D01*
X165825520Y-124742830D01*
X165889296Y-124808217D01*
X165946350Y-124867191D01*
X165994478Y-124917527D01*
X166031478Y-124956999D01*
X166055148Y-124983383D01*
X166063290Y-124994406D01*
X166245533Y-124994406D01*
X166346409Y-124886295D01*
X166398768Y-124830377D01*
X166457535Y-124767948D01*
X166520385Y-124701443D01*
X166584995Y-124633298D01*
X166649042Y-124565948D01*
X166710203Y-124501828D01*
X166766153Y-124443372D01*
X166814570Y-124393018D01*
X166853130Y-124353198D01*
X166879509Y-124326350D01*
X166891384Y-124314908D01*
X166891805Y-124314674D01*
X167015396Y-124314674D01*
X167027401Y-124170726D01*
X167627938Y-123539158D01*
X168228475Y-122907589D01*
X168228034Y-122819315D01*
X168227592Y-122731040D01*
X168130583Y-122834666D01*
X168076291Y-122892463D01*
X168012192Y-122960368D01*
X167940016Y-123036572D01*
X167861492Y-123119269D01*
X167778349Y-123206653D01*
X167692319Y-123296915D01*
X167605130Y-123388250D01*
X167518513Y-123478849D01*
X167434197Y-123566907D01*
X167353912Y-123650615D01*
X167279387Y-123728167D01*
X167212354Y-123797757D01*
X167154541Y-123857576D01*
X167107679Y-123905818D01*
X167073496Y-123940676D01*
X167053724Y-123960343D01*
X167049390Y-123964116D01*
X167049092Y-123950992D01*
X167050731Y-123917389D01*
X167054023Y-123867880D01*
X167058682Y-123807037D01*
X167060682Y-123782732D01*
X167075577Y-123604951D01*
X166958955Y-123604951D01*
X166952934Y-123633243D01*
X166949863Y-123655618D01*
X166945548Y-123697717D01*
X166940488Y-123754178D01*
X166935181Y-123819635D01*
X166933344Y-123843862D01*
X166927927Y-123913421D01*
X166922459Y-123978018D01*
X166917488Y-124031548D01*
X166913561Y-124067910D01*
X166912675Y-124074509D01*
X166909334Y-124088056D01*
X166902101Y-124103914D01*
X166889440Y-124123861D01*
X166869811Y-124149673D01*
X166841678Y-124183129D01*
X166803502Y-124226007D01*
X166753746Y-124280083D01*
X166690871Y-124347136D01*
X166613341Y-124428943D01*
X166534251Y-124511950D01*
X166455564Y-124594094D01*
X166382112Y-124670169D01*
X166315724Y-124738325D01*
X166258227Y-124796712D01*
X166211451Y-124843481D01*
X166177224Y-124876782D01*
X166157373Y-124894767D01*
X166153140Y-124897442D01*
X166142003Y-124887741D01*
X166115971Y-124862441D01*
X166077570Y-124824082D01*
X166029328Y-124775200D01*
X165973770Y-124718334D01*
X165933592Y-124676906D01*
X165723831Y-124460000D01*
X166342337Y-124460000D01*
X166342337Y-124221089D01*
X165587881Y-124221089D01*
X165587881Y-124327542D01*
X165449565Y-124189654D01*
X165351447Y-124091840D01*
X165160357Y-124091840D01*
X165158529Y-124107270D01*
X165149277Y-124115867D01*
X165126950Y-124119613D01*
X165085895Y-124120489D01*
X165078624Y-124120495D01*
X164996891Y-124120495D01*
X164996891Y-123901172D01*
X165078624Y-123982179D01*
X165124730Y-124031428D01*
X165152306Y-124069159D01*
X165160357Y-124091840D01*
X165351447Y-124091840D01*
X165311248Y-124051766D01*
X165311248Y-123928952D01*
X165310863Y-123872450D01*
X165309100Y-123836505D01*
X165305050Y-123816530D01*
X165297801Y-123807937D01*
X165286870Y-123806139D01*
X165274712Y-123803498D01*
X165265727Y-123792912D01*
X165258826Y-123770381D01*
X165252924Y-123731909D01*
X165246935Y-123673498D01*
X165245013Y-123652104D01*
X165240852Y-123604951D01*
X166958955Y-123604951D01*
X167075577Y-123604951D01*
X167235109Y-123604951D01*
X167235109Y-123491782D01*
X167167314Y-123491782D01*
X167127662Y-123490696D01*
X167106116Y-123485454D01*
X167103480Y-123482334D01*
X166964616Y-123482334D01*
X166957308Y-123489462D01*
X166931993Y-123491662D01*
X166914908Y-123491782D01*
X166857881Y-123491782D01*
X166645221Y-123491782D01*
X165230698Y-123491782D01*
X165278542Y-123442786D01*
X165352850Y-123382324D01*
X165444816Y-123335691D01*
X165555998Y-123302249D01*
X165666471Y-123283753D01*
X165738773Y-123275122D01*
X165738773Y-123366040D01*
X166317188Y-123366040D01*
X166317188Y-123262893D01*
X166402065Y-123271496D01*
X166461368Y-123278756D01*
X166524551Y-123288379D01*
X166562386Y-123295252D01*
X166637832Y-123310407D01*
X166641526Y-123401095D01*
X166645221Y-123491782D01*
X166857881Y-123491782D01*
X166857881Y-123441485D01*
X166859544Y-123409976D01*
X166863697Y-123392463D01*
X166865371Y-123391188D01*
X166883987Y-123399254D01*
X166911183Y-123418820D01*
X166938448Y-123442944D01*
X166957267Y-123464682D01*
X166958943Y-123467508D01*
X166964616Y-123482334D01*
X167103480Y-123482334D01*
X167095662Y-123473081D01*
X167091442Y-123459604D01*
X167074219Y-123424627D01*
X167041138Y-123382579D01*
X166997893Y-123339356D01*
X166950174Y-123300854D01*
X166918830Y-123280801D01*
X166883123Y-123258851D01*
X166864819Y-123240411D01*
X166858388Y-123218668D01*
X166857894Y-123205718D01*
X166857894Y-123202575D01*
X166216594Y-123202575D01*
X166216594Y-123265446D01*
X165839367Y-123265446D01*
X165839367Y-123202575D01*
X166216594Y-123202575D01*
X166857894Y-123202575D01*
X166857881Y-123164852D01*
X166752048Y-123164852D01*
X166703355Y-123166029D01*
X166665405Y-123169165D01*
X166644308Y-123173671D01*
X166642023Y-123175495D01*
X166628641Y-123178295D01*
X166596074Y-123177148D01*
X166549916Y-123172393D01*
X166518376Y-123168003D01*
X166461188Y-123159378D01*
X166408886Y-123151591D01*
X166369582Y-123145847D01*
X166358055Y-123144215D01*
X166327937Y-123134888D01*
X166317188Y-123120272D01*
X166313920Y-123114320D01*
X166302230Y-123109778D01*
X166279288Y-123106470D01*
X166242265Y-123104215D01*
X166188332Y-123102834D01*
X166114660Y-123102150D01*
X166027980Y-123101980D01*
X165935471Y-123102077D01*
X165865094Y-123102530D01*
X165813836Y-123103590D01*
X165778680Y-123105503D01*
X165756611Y-123108519D01*
X165744615Y-123112885D01*
X165739676Y-123118849D01*
X165738773Y-123125784D01*
X165731079Y-123147795D01*
X165705879Y-123160321D01*
X165659991Y-123164788D01*
X165651736Y-123164852D01*
X165574027Y-123172868D01*
X165485767Y-123194936D01*
X165394915Y-123228084D01*
X165309430Y-123269339D01*
X165237274Y-123315731D01*
X165227928Y-123323082D01*
X165197467Y-123346998D01*
X165179428Y-123356576D01*
X165166831Y-123353480D01*
X165153900Y-123340704D01*
X165115707Y-123315678D01*
X165066002Y-123306071D01*
X165012476Y-123311067D01*
X164962822Y-123329851D01*
X164924733Y-123361606D01*
X164921975Y-123365297D01*
X164893474Y-123424575D01*
X164888172Y-123485934D01*
X164905482Y-123544427D01*
X164944820Y-123595104D01*
X164949630Y-123599289D01*
X164977560Y-123619167D01*
X165005898Y-123627921D01*
X165045737Y-123628553D01*
X165055689Y-123627992D01*
X165094668Y-123626562D01*
X165114746Y-123629839D01*
X165122015Y-123639728D01*
X165122760Y-123648961D01*
X165124284Y-123675744D01*
X165128065Y-123716025D01*
X165130782Y-123740124D01*
X165134723Y-123778401D01*
X165133084Y-123797996D01*
X165123579Y-123805158D01*
X165106649Y-123806139D01*
X165096608Y-123802901D01*
X165080410Y-123792420D01*
X165056855Y-123773548D01*
X165024743Y-123745135D01*
X164982872Y-123706035D01*
X164930043Y-123655097D01*
X164865055Y-123591173D01*
X164786709Y-123513114D01*
X164693803Y-123419772D01*
X164585137Y-123309998D01*
X164532769Y-123256952D01*
X163990951Y-122707767D01*
X163991570Y-122794848D01*
D15*
X190754000Y-124079000D02*
X192151000Y-125984000D01*
X192151000Y-125984000D02*
X190881000Y-125984000D01*
X192405000Y-127889000D02*
X192532000Y-128905000D01*
X192532000Y-128905000D02*
X191770000Y-128270000D01*
X191770000Y-128270000D02*
X192278000Y-128524000D01*
X192278000Y-128524000D02*
X190500000Y-125730000D01*
X190500000Y-125730000D02*
X191770000Y-125730000D01*
X191770000Y-125730000D02*
X189992000Y-123698000D01*
X189992000Y-123698000D02*
X190754000Y-124206000D01*
X190754000Y-124206000D02*
X190881000Y-123698000D01*
X190881000Y-123698000D02*
X192532000Y-126111000D01*
X192532000Y-126111000D02*
X191135000Y-126111000D01*
X191135000Y-126111000D02*
X192278000Y-128397000D01*
X192278000Y-128397000D02*
X192405000Y-127889000D01*
D16*
X190881000Y-123698000D02*
X189992000Y-123698000D01*
%TD*%
M02*
