%TF.GenerationSoftware,KiCad,Pcbnew,(5.1.6)-1*%
%TF.CreationDate,2021-01-29T14:11:21+08:00*%
%TF.ProjectId,STM32F0_Nixie_Clock,53544d33-3246-4305-9f4e-697869655f43,V3.0*%
%TF.SameCoordinates,Original*%
%TF.FileFunction,Copper,L2,Bot*%
%TF.FilePolarity,Positive*%
%FSLAX46Y46*%
G04 Gerber Fmt 4.6, Leading zero omitted, Abs format (unit mm)*
G04 Created by KiCad (PCBNEW (5.1.6)-1) date 2021-01-29 14:11:21*
%MOMM*%
%LPD*%
G01*
G04 APERTURE LIST*
%TA.AperFunction,SMDPad,CuDef*%
%ADD10C,1.500000*%
%TD*%
%TA.AperFunction,SMDPad,CuDef*%
%ADD11R,2.600000X3.600000*%
%TD*%
%TA.AperFunction,ComponentPad*%
%ADD12O,1.750000X1.200000*%
%TD*%
%TA.AperFunction,ComponentPad*%
%ADD13C,1.440000*%
%TD*%
%TA.AperFunction,ComponentPad*%
%ADD14O,1.600000X1.000000*%
%TD*%
%TA.AperFunction,ComponentPad*%
%ADD15O,2.100000X1.000000*%
%TD*%
%TA.AperFunction,ComponentPad*%
%ADD16O,1.200000X1.750000*%
%TD*%
%TA.AperFunction,ViaPad*%
%ADD17C,0.800000*%
%TD*%
%TA.AperFunction,Conductor*%
%ADD18C,0.250000*%
%TD*%
%TA.AperFunction,Conductor*%
%ADD19C,0.254000*%
%TD*%
G04 APERTURE END LIST*
D10*
%TO.P,TP101,1*%
%TO.N,+3V3*%
X204216000Y-111506000D03*
%TD*%
%TO.P,TP107,1*%
%TO.N,GNDA*%
X204216000Y-108966000D03*
%TD*%
%TO.P,TP104,1*%
%TO.N,/RX*%
X204216000Y-106426000D03*
%TD*%
%TO.P,TP103,1*%
%TO.N,/TX*%
X204216000Y-103886000D03*
%TD*%
D11*
%TO.P,BT101,1*%
%TO.N,+BATT*%
X172630000Y-97536000D03*
%TO.P,BT101,2*%
%TO.N,GNDA*%
X201930000Y-97536000D03*
%TD*%
D12*
%TO.P,DS103,11*%
%TO.N,D3_1*%
X128270000Y-109286000D03*
%TO.P,DS103,10*%
%TO.N,D3_2*%
X128270000Y-111286000D03*
%TO.P,DS103,9*%
%TO.N,D3_3*%
X128270000Y-113286000D03*
%TO.P,DS103,8*%
%TO.N,D3_4*%
X128270000Y-115286000D03*
%TO.P,DS103,7*%
%TO.N,D3_5*%
X128270000Y-117286000D03*
%TO.P,DS103,6*%
%TO.N,D3_6*%
X128270000Y-119286000D03*
%TO.P,DS103,5*%
%TO.N,D3_7*%
X128270000Y-121286000D03*
%TO.P,DS103,4*%
%TO.N,D3_8*%
X128270000Y-123286000D03*
%TO.P,DS103,3*%
%TO.N,D3_9*%
X128270000Y-125286000D03*
%TO.P,DS103,2*%
%TO.N,D3_0*%
X128270000Y-127286000D03*
%TO.P,DS103,1*%
%TO.N,Net-(DS103-Pad1)*%
%TA.AperFunction,ComponentPad*%
G36*
G01*
X128895001Y-129886000D02*
X127644999Y-129886000D01*
G75*
G02*
X127395000Y-129636001I0J249999D01*
G01*
X127395000Y-128935999D01*
G75*
G02*
X127644999Y-128686000I249999J0D01*
G01*
X128895001Y-128686000D01*
G75*
G02*
X129145000Y-128935999I0J-249999D01*
G01*
X129145000Y-129636001D01*
G75*
G02*
X128895001Y-129886000I-249999J0D01*
G01*
G37*
%TD.AperFunction*%
%TD*%
%TO.P,DS102,11*%
%TO.N,D2_1*%
X121920000Y-109286000D03*
%TO.P,DS102,10*%
%TO.N,D2_2*%
X121920000Y-111286000D03*
%TO.P,DS102,9*%
%TO.N,D2_3*%
X121920000Y-113286000D03*
%TO.P,DS102,8*%
%TO.N,D2_4*%
X121920000Y-115286000D03*
%TO.P,DS102,7*%
%TO.N,D2_5*%
X121920000Y-117286000D03*
%TO.P,DS102,6*%
%TO.N,D2_6*%
X121920000Y-119286000D03*
%TO.P,DS102,5*%
%TO.N,D2_7*%
X121920000Y-121286000D03*
%TO.P,DS102,4*%
%TO.N,D2_8*%
X121920000Y-123286000D03*
%TO.P,DS102,3*%
%TO.N,D2_9*%
X121920000Y-125286000D03*
%TO.P,DS102,2*%
%TO.N,D2_0*%
X121920000Y-127286000D03*
%TO.P,DS102,1*%
%TO.N,Net-(DS102-Pad1)*%
%TA.AperFunction,ComponentPad*%
G36*
G01*
X122545001Y-129886000D02*
X121294999Y-129886000D01*
G75*
G02*
X121045000Y-129636001I0J249999D01*
G01*
X121045000Y-128935999D01*
G75*
G02*
X121294999Y-128686000I249999J0D01*
G01*
X122545001Y-128686000D01*
G75*
G02*
X122795000Y-128935999I0J-249999D01*
G01*
X122795000Y-129636001D01*
G75*
G02*
X122545001Y-129886000I-249999J0D01*
G01*
G37*
%TD.AperFunction*%
%TD*%
D13*
%TO.P,RV101,1*%
%TO.N,Net-(R107-Pad1)*%
X179832000Y-114554000D03*
%TO.P,RV101,2*%
X177292000Y-112014000D03*
%TO.P,RV101,3*%
%TO.N,Net-(R105-Pad2)*%
X174752000Y-114554000D03*
%TD*%
D14*
%TO.P,P101,S1*%
%TO.N,GNDA*%
X204550000Y-114680000D03*
X204550000Y-123320000D03*
D15*
X200370000Y-123320000D03*
X200370000Y-114680000D03*
%TD*%
D16*
%TO.P,NE104,2*%
%TO.N,Net-(NE104-Pad2)*%
X166338000Y-99060000D03*
%TO.P,NE104,1*%
%TO.N,C_4*%
%TA.AperFunction,ComponentPad*%
G36*
G01*
X163738000Y-99685001D02*
X163738000Y-98434999D01*
G75*
G02*
X163987999Y-98185000I249999J0D01*
G01*
X164688001Y-98185000D01*
G75*
G02*
X164938000Y-98434999I0J-249999D01*
G01*
X164938000Y-99685001D01*
G75*
G02*
X164688001Y-99935000I-249999J0D01*
G01*
X163987999Y-99935000D01*
G75*
G02*
X163738000Y-99685001I0J249999D01*
G01*
G37*
%TD.AperFunction*%
%TD*%
%TO.P,NE103,1*%
%TO.N,C_3*%
%TA.AperFunction,ComponentPad*%
G36*
G01*
X156150000Y-99685001D02*
X156150000Y-98434999D01*
G75*
G02*
X156399999Y-98185000I249999J0D01*
G01*
X157100001Y-98185000D01*
G75*
G02*
X157350000Y-98434999I0J-249999D01*
G01*
X157350000Y-99685001D01*
G75*
G02*
X157100001Y-99935000I-249999J0D01*
G01*
X156399999Y-99935000D01*
G75*
G02*
X156150000Y-99685001I0J249999D01*
G01*
G37*
%TD.AperFunction*%
%TO.P,NE103,2*%
%TO.N,Net-(NE103-Pad2)*%
X158750000Y-99060000D03*
%TD*%
%TO.P,NE102,2*%
%TO.N,Net-(NE102-Pad2)*%
X166338000Y-91440000D03*
%TO.P,NE102,1*%
%TO.N,C_2*%
%TA.AperFunction,ComponentPad*%
G36*
G01*
X163738000Y-92065001D02*
X163738000Y-90814999D01*
G75*
G02*
X163987999Y-90565000I249999J0D01*
G01*
X164688001Y-90565000D01*
G75*
G02*
X164938000Y-90814999I0J-249999D01*
G01*
X164938000Y-92065001D01*
G75*
G02*
X164688001Y-92315000I-249999J0D01*
G01*
X163987999Y-92315000D01*
G75*
G02*
X163738000Y-92065001I0J249999D01*
G01*
G37*
%TD.AperFunction*%
%TD*%
%TO.P,NE101,2*%
%TO.N,Net-(NE101-Pad2)*%
X158718000Y-91440000D03*
%TO.P,NE101,1*%
%TO.N,C_1*%
%TA.AperFunction,ComponentPad*%
G36*
G01*
X156118000Y-92065001D02*
X156118000Y-90814999D01*
G75*
G02*
X156367999Y-90565000I249999J0D01*
G01*
X157068001Y-90565000D01*
G75*
G02*
X157318000Y-90814999I0J-249999D01*
G01*
X157318000Y-92065001D01*
G75*
G02*
X157068001Y-92315000I-249999J0D01*
G01*
X156367999Y-92315000D01*
G75*
G02*
X156118000Y-92065001I0J249999D01*
G01*
G37*
%TD.AperFunction*%
%TD*%
D12*
%TO.P,DS106,11*%
%TO.N,D6_1*%
X147320000Y-109286000D03*
%TO.P,DS106,10*%
%TO.N,D6_2*%
X147320000Y-111286000D03*
%TO.P,DS106,9*%
%TO.N,D6_3*%
X147320000Y-113286000D03*
%TO.P,DS106,8*%
%TO.N,D6_4*%
X147320000Y-115286000D03*
%TO.P,DS106,7*%
%TO.N,D6_5*%
X147320000Y-117286000D03*
%TO.P,DS106,6*%
%TO.N,D6_6*%
X147320000Y-119286000D03*
%TO.P,DS106,5*%
%TO.N,D6_7*%
X147320000Y-121286000D03*
%TO.P,DS106,4*%
%TO.N,D6_8*%
X147320000Y-123286000D03*
%TO.P,DS106,3*%
%TO.N,D6_9*%
X147320000Y-125286000D03*
%TO.P,DS106,2*%
%TO.N,D6_0*%
X147320000Y-127286000D03*
%TO.P,DS106,1*%
%TO.N,Net-(DS106-Pad1)*%
%TA.AperFunction,ComponentPad*%
G36*
G01*
X147945001Y-129886000D02*
X146694999Y-129886000D01*
G75*
G02*
X146445000Y-129636001I0J249999D01*
G01*
X146445000Y-128935999D01*
G75*
G02*
X146694999Y-128686000I249999J0D01*
G01*
X147945001Y-128686000D01*
G75*
G02*
X148195000Y-128935999I0J-249999D01*
G01*
X148195000Y-129636001D01*
G75*
G02*
X147945001Y-129886000I-249999J0D01*
G01*
G37*
%TD.AperFunction*%
%TD*%
%TO.P,DS105,11*%
%TO.N,D5_1*%
X140970000Y-109286000D03*
%TO.P,DS105,10*%
%TO.N,D5_2*%
X140970000Y-111286000D03*
%TO.P,DS105,9*%
%TO.N,D5_3*%
X140970000Y-113286000D03*
%TO.P,DS105,8*%
%TO.N,D5_4*%
X140970000Y-115286000D03*
%TO.P,DS105,7*%
%TO.N,D5_5*%
X140970000Y-117286000D03*
%TO.P,DS105,6*%
%TO.N,D5_6*%
X140970000Y-119286000D03*
%TO.P,DS105,5*%
%TO.N,D5_7*%
X140970000Y-121286000D03*
%TO.P,DS105,4*%
%TO.N,D5_8*%
X140970000Y-123286000D03*
%TO.P,DS105,3*%
%TO.N,D5_9*%
X140970000Y-125286000D03*
%TO.P,DS105,2*%
%TO.N,D5_0*%
X140970000Y-127286000D03*
%TO.P,DS105,1*%
%TO.N,Net-(DS105-Pad1)*%
%TA.AperFunction,ComponentPad*%
G36*
G01*
X141595001Y-129886000D02*
X140344999Y-129886000D01*
G75*
G02*
X140095000Y-129636001I0J249999D01*
G01*
X140095000Y-128935999D01*
G75*
G02*
X140344999Y-128686000I249999J0D01*
G01*
X141595001Y-128686000D01*
G75*
G02*
X141845000Y-128935999I0J-249999D01*
G01*
X141845000Y-129636001D01*
G75*
G02*
X141595001Y-129886000I-249999J0D01*
G01*
G37*
%TD.AperFunction*%
%TD*%
%TO.P,DS104,1*%
%TO.N,Net-(DS104-Pad1)*%
%TA.AperFunction,ComponentPad*%
G36*
G01*
X135245001Y-129886000D02*
X133994999Y-129886000D01*
G75*
G02*
X133745000Y-129636001I0J249999D01*
G01*
X133745000Y-128935999D01*
G75*
G02*
X133994999Y-128686000I249999J0D01*
G01*
X135245001Y-128686000D01*
G75*
G02*
X135495000Y-128935999I0J-249999D01*
G01*
X135495000Y-129636001D01*
G75*
G02*
X135245001Y-129886000I-249999J0D01*
G01*
G37*
%TD.AperFunction*%
%TO.P,DS104,2*%
%TO.N,D4_0*%
X134620000Y-127286000D03*
%TO.P,DS104,3*%
%TO.N,D4_9*%
X134620000Y-125286000D03*
%TO.P,DS104,4*%
%TO.N,D4_8*%
X134620000Y-123286000D03*
%TO.P,DS104,5*%
%TO.N,D4_7*%
X134620000Y-121286000D03*
%TO.P,DS104,6*%
%TO.N,D4_6*%
X134620000Y-119286000D03*
%TO.P,DS104,7*%
%TO.N,D4_5*%
X134620000Y-117286000D03*
%TO.P,DS104,8*%
%TO.N,D4_4*%
X134620000Y-115286000D03*
%TO.P,DS104,9*%
%TO.N,D4_3*%
X134620000Y-113286000D03*
%TO.P,DS104,10*%
%TO.N,D4_2*%
X134620000Y-111286000D03*
%TO.P,DS104,11*%
%TO.N,D4_1*%
X134620000Y-109286000D03*
%TD*%
%TO.P,DS101,11*%
%TO.N,D1_1*%
X115570000Y-109220000D03*
%TO.P,DS101,10*%
%TO.N,D1_2*%
X115570000Y-111220000D03*
%TO.P,DS101,9*%
%TO.N,D1_3*%
X115570000Y-113220000D03*
%TO.P,DS101,8*%
%TO.N,D1_4*%
X115570000Y-115220000D03*
%TO.P,DS101,7*%
%TO.N,D1_5*%
X115570000Y-117220000D03*
%TO.P,DS101,6*%
%TO.N,D1_6*%
X115570000Y-119220000D03*
%TO.P,DS101,5*%
%TO.N,D1_7*%
X115570000Y-121220000D03*
%TO.P,DS101,4*%
%TO.N,D1_8*%
X115570000Y-123220000D03*
%TO.P,DS101,3*%
%TO.N,D1_9*%
X115570000Y-125220000D03*
%TO.P,DS101,2*%
%TO.N,D1_0*%
X115570000Y-127220000D03*
%TO.P,DS101,1*%
%TO.N,Net-(DS101-Pad1)*%
%TA.AperFunction,ComponentPad*%
G36*
G01*
X116195001Y-129820000D02*
X114944999Y-129820000D01*
G75*
G02*
X114695000Y-129570001I0J249999D01*
G01*
X114695000Y-128869999D01*
G75*
G02*
X114944999Y-128620000I249999J0D01*
G01*
X116195001Y-128620000D01*
G75*
G02*
X116445000Y-128869999I0J-249999D01*
G01*
X116445000Y-129570001D01*
G75*
G02*
X116195001Y-129820000I-249999J0D01*
G01*
G37*
%TD.AperFunction*%
%TD*%
D17*
%TO.N,+BATT*%
X188849000Y-97536000D03*
%TO.N,+3V3*%
X129794000Y-104902000D03*
X133350000Y-104902000D03*
X177038000Y-106426000D03*
X192405000Y-113919000D03*
X154294010Y-104531990D03*
X190500000Y-93726000D03*
X185674000Y-106934000D03*
X191643000Y-106299000D03*
%TO.N,GNDA*%
X200660000Y-93980000D03*
X162814000Y-106426000D03*
X154305000Y-101600000D03*
X114935000Y-107315000D03*
X111760000Y-124460000D03*
X109220000Y-124460000D03*
X110490000Y-123190000D03*
X111760000Y-121920000D03*
X109220000Y-121920000D03*
X110490000Y-120650000D03*
X111760000Y-119380000D03*
X109220000Y-119380000D03*
X110490000Y-118110000D03*
X111760000Y-116840000D03*
X109220000Y-116840000D03*
X110490000Y-115570000D03*
X111760000Y-114300000D03*
X109220000Y-114300000D03*
X110490000Y-113030000D03*
X111760000Y-111760000D03*
X109220000Y-111760000D03*
X110490000Y-110490000D03*
X111760000Y-109220000D03*
X109220000Y-109220000D03*
X110490000Y-107950000D03*
X111760000Y-106680000D03*
X109220000Y-106680000D03*
X110490000Y-105410000D03*
X111760000Y-104140000D03*
X109220000Y-104140000D03*
X110490000Y-102870000D03*
X111760000Y-101600000D03*
X109220000Y-101600000D03*
X110490000Y-100330000D03*
X111760000Y-99060000D03*
X109220000Y-99060000D03*
X110490000Y-97790000D03*
X111760000Y-96520000D03*
X109220000Y-96520000D03*
X110490000Y-95250000D03*
X111760000Y-93980000D03*
X109220000Y-93980000D03*
X110490000Y-92710000D03*
X111760000Y-91440000D03*
X109220000Y-91440000D03*
X204470000Y-116840000D03*
X201930000Y-116840000D03*
X203200000Y-118110000D03*
X204470000Y-119380000D03*
X201930000Y-119380000D03*
X203200000Y-120650000D03*
X201930000Y-92710000D03*
X199390000Y-92710000D03*
X196850000Y-92710000D03*
X198120000Y-93980000D03*
X194310000Y-92710000D03*
X195580000Y-93980000D03*
X198120000Y-91440000D03*
X195580000Y-91440000D03*
X203200000Y-91440000D03*
X200660000Y-91440000D03*
X199390000Y-90170000D03*
X196850000Y-90170000D03*
X194310000Y-90170000D03*
X198120000Y-88900000D03*
X195580000Y-88900000D03*
X196850000Y-87630000D03*
X194310000Y-87630000D03*
X198120000Y-86360000D03*
X195580000Y-86360000D03*
X193040000Y-86360000D03*
X191770000Y-87630000D03*
X193040000Y-88900000D03*
X190500000Y-86360000D03*
X189230000Y-87630000D03*
X190500000Y-88900000D03*
X187960000Y-86360000D03*
X187960000Y-88900000D03*
X185420000Y-86360000D03*
X186690000Y-87630000D03*
X185420000Y-88900000D03*
X184150000Y-87630000D03*
X182880000Y-86360000D03*
X182880000Y-88900000D03*
X181610000Y-87630000D03*
X180340000Y-88900000D03*
X180340000Y-86360000D03*
X179070000Y-87630000D03*
X177800000Y-88900000D03*
X177800000Y-86360000D03*
X176530000Y-87630000D03*
X175260000Y-86360000D03*
X173990000Y-87630000D03*
X172720000Y-88900000D03*
X172720000Y-86360000D03*
X171450000Y-87630000D03*
X170180000Y-88900000D03*
X170180000Y-86360000D03*
X168910000Y-87630000D03*
X167640000Y-88900000D03*
X167640000Y-86360000D03*
X166370000Y-87630000D03*
X165100000Y-88900000D03*
X165100000Y-86360000D03*
X163830000Y-87630000D03*
X162560000Y-88900000D03*
X162560000Y-86360000D03*
X161290000Y-87630000D03*
X160020000Y-88900000D03*
X160020000Y-86360000D03*
X158750000Y-87630000D03*
X157480000Y-88900000D03*
X157480000Y-86360000D03*
X156210000Y-87630000D03*
X154940000Y-88900000D03*
X154940000Y-86360000D03*
X121920000Y-131064000D03*
X187325000Y-116967000D03*
X153670000Y-118872000D03*
X153670000Y-117602000D03*
X153670000Y-111760000D03*
X153670000Y-113030000D03*
X203200000Y-93980000D03*
%TO.N,D1_1*%
X115824000Y-104648000D03*
%TO.N,D1_2*%
X117362250Y-101077750D03*
%TO.N,D1_3*%
X117856000Y-100076000D03*
%TO.N,D1_4*%
X117348000Y-98552000D03*
%TO.N,D1_5*%
X118491000Y-98552000D03*
%TO.N,D1_6*%
X118491000Y-97282000D03*
%TO.N,D1_7*%
X118462499Y-96167501D03*
%TO.N,D1_8*%
X119126000Y-95250000D03*
%TO.N,D1_9*%
X120142000Y-95250000D03*
%TO.N,D2_1*%
X118807795Y-91948000D03*
%TO.N,D2_2*%
X119634000Y-91186000D03*
%TO.N,D2_3*%
X120396000Y-91948000D03*
%TO.N,D2_4*%
X121158000Y-91186000D03*
%TO.N,D2_5*%
X121920000Y-91948000D03*
%TO.N,D2_6*%
X122682000Y-91186000D03*
%TO.N,D2_7*%
X123444000Y-91948000D03*
%TO.N,D2_8*%
X124206000Y-91186000D03*
%TO.N,D2_9*%
X124968000Y-91948000D03*
%TO.N,D2_0*%
X117856000Y-91186000D03*
%TO.N,D3_1*%
X129540000Y-89154000D03*
%TO.N,D3_2*%
X132842000Y-88900000D03*
%TO.N,D3_3*%
X133350000Y-90170000D03*
%TO.N,D3_4*%
X133350000Y-91440000D03*
%TO.N,D3_5*%
X133350000Y-92710000D03*
%TO.N,D3_6*%
X127254000Y-107696000D03*
X129540000Y-93980000D03*
%TO.N,D3_7*%
X129286000Y-107950000D03*
X129540000Y-95250000D03*
%TO.N,D3_8*%
X129286000Y-106934000D03*
X129540000Y-96520000D03*
%TO.N,D3_9*%
X129286000Y-105918000D03*
X129667000Y-97790000D03*
%TO.N,D3_0*%
X125730000Y-91186000D03*
X126238000Y-104902000D03*
%TO.N,D4_1*%
X137377001Y-104938999D03*
X129540000Y-100330000D03*
%TO.N,D4_2*%
X136652000Y-102870000D03*
%TO.N,D4_3*%
X138176000Y-100330000D03*
%TO.N,D4_4*%
X138176000Y-99060000D03*
%TO.N,D4_5*%
X138176000Y-97790000D03*
%TO.N,D5_2*%
X138684000Y-90297000D03*
%TO.N,D5_3*%
X138684000Y-89154000D03*
%TO.N,D5_4*%
X140716000Y-90678000D03*
%TO.N,D5_5*%
X140744501Y-89633499D03*
%TO.N,D5_6*%
X141986000Y-89662000D03*
%TO.N,D5_7*%
X143256000Y-89662000D03*
%TO.N,D5_8*%
X144526000Y-89662000D03*
%TO.N,D5_9*%
X145796000Y-89662000D03*
%TO.N,D5_0*%
X138801010Y-112912990D03*
X138801010Y-115452990D03*
%TO.N,D6_1*%
X145288000Y-92456000D03*
%TO.N,D6_2*%
X146304000Y-92456000D03*
%TO.N,D6_3*%
X147320000Y-92456000D03*
%TO.N,D6_4*%
X148393002Y-93726000D03*
%TO.N,D6_5*%
X148336000Y-94742000D03*
%TO.N,D6_6*%
X148336000Y-95758000D03*
%TO.N,D6_7*%
X148336000Y-96774000D03*
%TO.N,D6_8*%
X148336000Y-97790000D03*
%TO.N,D6_9*%
X148336000Y-98806000D03*
%TO.N,D6_0*%
X144272000Y-92456000D03*
%TO.N,Net-(NE101-Pad2)*%
X156464000Y-101600000D03*
%TO.N,Net-(NE103-Pad2)*%
X159512000Y-101600000D03*
%TO.N,Net-(Q101-Pad3)*%
X181991000Y-115697000D03*
X165354000Y-115697000D03*
%TO.N,Net-(Q101-Pad1)*%
X187325000Y-115824000D03*
X177546000Y-116840000D03*
%TO.N,NRST*%
X174244000Y-104140000D03*
X181737000Y-106553000D03*
%TO.N,SDA*%
X187706000Y-105283000D03*
X189865000Y-103378000D03*
X181800500Y-104203500D03*
%TO.N,SCL*%
X181737000Y-105410000D03*
X187706000Y-106426000D03*
%TO.N,Net-(R105-Pad2)*%
X166116000Y-110236000D03*
%TO.N,DATA*%
X129286000Y-91186000D03*
X194564000Y-105664000D03*
%TO.N,CLK*%
X128016000Y-89408000D03*
X152527000Y-105283000D03*
X192595500Y-104648000D03*
%TO.N,OE*%
X127254000Y-90170000D03*
X133985000Y-88519000D03*
X130810000Y-86614000D03*
X152400000Y-106934000D03*
X181864000Y-109474000D03*
%TO.N,DATA_OUT*%
X126492000Y-91948000D03*
X152908000Y-103124000D03*
%TO.N,/TX*%
X185420000Y-109982000D03*
%TO.N,/RX*%
X185410250Y-111252000D03*
%TD*%
D18*
%TO.N,+BATT*%
X172630000Y-97536000D02*
X188722000Y-97536000D01*
%TO.N,+3V3*%
X129794000Y-104902000D02*
X133350000Y-104902000D01*
X191643000Y-106553000D02*
X191643000Y-94869000D01*
X190500000Y-93726000D02*
X191643000Y-94869000D01*
X185166000Y-106934000D02*
X185674000Y-106934000D01*
X184821999Y-107278001D02*
X185166000Y-106934000D01*
X177038000Y-106426000D02*
X177890001Y-107278001D01*
X177890001Y-107278001D02*
X181446001Y-107278001D01*
X181192001Y-107278001D02*
X181446001Y-107278001D01*
X181446001Y-107278001D02*
X184821999Y-107278001D01*
X190917999Y-107278001D02*
X191643000Y-106553000D01*
X186583686Y-107278001D02*
X190917999Y-107278001D01*
X185674000Y-106934000D02*
X186239685Y-106934000D01*
X186239685Y-106934000D02*
X186583686Y-107278001D01*
X192405000Y-113919000D02*
X194564000Y-113919000D01*
X196977000Y-111506000D02*
X204216000Y-111506000D01*
X194564000Y-113919000D02*
X196977000Y-111506000D01*
%TO.N,D1_1*%
X116623935Y-106209935D02*
X116623935Y-108166065D01*
X115824000Y-105410000D02*
X116623935Y-106209935D01*
X115824000Y-104648000D02*
X115824000Y-105410000D01*
X116623935Y-108166065D02*
X115570000Y-109220000D01*
%TO.N,D1_2*%
X117348000Y-101063499D02*
X117362250Y-101077750D01*
X117847870Y-101563369D02*
X117847870Y-105378020D01*
X117073945Y-109716055D02*
X115570000Y-111220000D01*
X117073945Y-106151945D02*
X117073945Y-109716055D01*
X117847870Y-105378020D02*
X117073945Y-106151945D01*
X117362250Y-101077750D02*
X117847870Y-101563369D01*
%TO.N,D1_3*%
X117535880Y-111254120D02*
X117535880Y-106326420D01*
X115570000Y-113220000D02*
X117535880Y-111254120D01*
X117535880Y-106326420D02*
X118297880Y-105564420D01*
X117856000Y-100076000D02*
X118292100Y-100512100D01*
X118297880Y-105564420D02*
X118297880Y-102428120D01*
X118297880Y-102428120D02*
X118297880Y-101787880D01*
X118297880Y-100517880D02*
X118297880Y-102428120D01*
X118297880Y-100517880D02*
X117856000Y-100076000D01*
%TO.N,D1_4*%
X115570000Y-115220000D02*
X115920000Y-115220000D01*
X115920000Y-115220000D02*
X117985890Y-113154110D01*
X117985890Y-106512820D02*
X118747890Y-105750820D01*
X117985890Y-113154110D02*
X117985890Y-106512820D01*
X118747890Y-100708110D02*
X118747890Y-99894888D01*
X118747890Y-99894888D02*
X117405002Y-98552000D01*
X118747890Y-100708110D02*
X118747890Y-100454110D01*
X117405002Y-98552000D02*
X117348000Y-98552000D01*
X118747890Y-105750820D02*
X118747890Y-100708110D01*
%TO.N,D1_5*%
X118618000Y-98298000D02*
X118491000Y-98298000D01*
X119197900Y-99258900D02*
X118491000Y-98552000D01*
X119197900Y-105937220D02*
X119197900Y-99258900D01*
X117919000Y-114871000D02*
X117936800Y-114871000D01*
X117936800Y-114871000D02*
X118435900Y-114371900D01*
X118435900Y-114371900D02*
X118435900Y-106699220D01*
X118435900Y-106699220D02*
X119197900Y-105937220D01*
X115587800Y-117220000D02*
X118435900Y-114371900D01*
X115570000Y-117220000D02*
X115587800Y-117220000D01*
%TO.N,D1_6*%
X119647910Y-98438910D02*
X118491000Y-97282000D01*
X115570000Y-119220000D02*
X115570000Y-119049920D01*
X115570000Y-119049920D02*
X118885910Y-115734010D01*
X118885910Y-115734010D02*
X118885910Y-106904840D01*
X118885910Y-106904840D02*
X119647910Y-106142840D01*
X119647910Y-106142840D02*
X119647910Y-98438910D01*
%TO.N,D1_7*%
X115570000Y-121158000D02*
X115570000Y-121220000D01*
X118462499Y-96167501D02*
X120097920Y-97802922D01*
X120097920Y-106329240D02*
X119335920Y-107091240D01*
X120097920Y-97802922D02*
X120097920Y-106329240D01*
X119335920Y-117392080D02*
X115570000Y-121158000D01*
X119335920Y-107091240D02*
X119335920Y-117392080D01*
%TO.N,D1_8*%
X115570000Y-123220000D02*
X115570000Y-123190000D01*
X119785930Y-119004070D02*
X115570000Y-123220000D01*
X119126000Y-95561002D02*
X120547930Y-96982932D01*
X119785930Y-107277640D02*
X119785930Y-119004070D01*
X119126000Y-95250000D02*
X119126000Y-95561002D01*
X120547930Y-96982932D02*
X120547930Y-106515640D01*
X120547930Y-106515640D02*
X119785930Y-107277640D01*
%TO.N,D1_9*%
X120235940Y-120556060D02*
X120235940Y-107464040D01*
X120058990Y-120733010D02*
X120235940Y-120556060D01*
X120235940Y-107464040D02*
X120997940Y-106702040D01*
X120056990Y-120733010D02*
X120058990Y-120733010D01*
X115570000Y-125220000D02*
X120056990Y-120733010D01*
X120997940Y-96105940D02*
X120997940Y-96486940D01*
X120142000Y-95250000D02*
X120997940Y-96105940D01*
X120997940Y-106702040D02*
X120997940Y-96486940D01*
X120997940Y-96486940D02*
X120997940Y-96359940D01*
%TO.N,D2_1*%
X121897960Y-109263960D02*
X121920000Y-109286000D01*
X118807795Y-92069207D02*
X121897959Y-95159371D01*
X121897959Y-95159371D02*
X121897960Y-109263960D01*
X118807795Y-91948000D02*
X118807795Y-92069207D01*
%TO.N,D2_2*%
X121920000Y-111229960D02*
X121920000Y-111286000D01*
X123305980Y-107811980D02*
X123305980Y-109843980D01*
X122347970Y-106853970D02*
X123305980Y-107811980D01*
X119634000Y-91186000D02*
X119634000Y-92259002D01*
X119634000Y-92259002D02*
X122347968Y-94972970D01*
X122347968Y-94972970D02*
X122347968Y-95584028D01*
X123305980Y-109843980D02*
X121920000Y-111229960D01*
X122347970Y-95584030D02*
X122347970Y-106853970D01*
X122347968Y-95584028D02*
X122347970Y-95584030D01*
%TO.N,D2_3*%
X123755990Y-111450010D02*
X121920000Y-113286000D01*
X120396000Y-91948000D02*
X120396000Y-92384592D01*
X120396000Y-92384592D02*
X122797980Y-94786572D01*
X122797980Y-94786572D02*
X122797980Y-106667570D01*
X122797980Y-106667570D02*
X123755990Y-107625580D01*
X123755990Y-107625580D02*
X123755990Y-111450010D01*
%TO.N,D2_4*%
X124206000Y-113000000D02*
X121920000Y-115286000D01*
X121158000Y-91186000D02*
X121158000Y-92510182D01*
X121158000Y-92510182D02*
X123247990Y-94600172D01*
X123247990Y-94600172D02*
X123247990Y-106481170D01*
X123247990Y-106481170D02*
X124205999Y-107439179D01*
X124205999Y-107439179D02*
X124206000Y-113000000D01*
%TO.N,D2_5*%
X121920000Y-91948000D02*
X121920000Y-92635772D01*
X123698000Y-94413772D02*
X123698000Y-106294770D01*
X121920000Y-92635772D02*
X123698000Y-94413772D01*
X123698000Y-106294770D02*
X124691960Y-107288730D01*
X121937920Y-117286000D02*
X124691960Y-114531960D01*
X121920000Y-117286000D02*
X121937920Y-117286000D01*
X124691960Y-107288730D02*
X124691960Y-114531960D01*
%TO.N,D2_6*%
X122268000Y-119286000D02*
X121920000Y-119286000D01*
X125141970Y-116412030D02*
X122268000Y-119286000D01*
X122682000Y-91186000D02*
X122682000Y-92761362D01*
X122682000Y-92761362D02*
X124148010Y-94227372D01*
X124148010Y-94227372D02*
X124148010Y-106108370D01*
X125141970Y-107102330D02*
X125141970Y-116412030D01*
X124148010Y-106108370D02*
X125141970Y-107102330D01*
%TO.N,D2_7*%
X121920000Y-121286000D02*
X122046000Y-121286000D01*
X123444000Y-92133412D02*
X123444000Y-91948000D01*
X125591980Y-117614020D02*
X121920000Y-121286000D01*
X123444000Y-92886952D02*
X124612979Y-94055931D01*
X124612979Y-94055931D02*
X124612979Y-105936929D01*
X123444000Y-91948000D02*
X123444000Y-92886952D01*
X124612979Y-105936929D02*
X125591980Y-106915930D01*
X125591980Y-106915930D02*
X125591980Y-117614020D01*
%TO.N,D2_8*%
X126041990Y-119164010D02*
X121920000Y-123286000D01*
X124206000Y-91186000D02*
X124206000Y-93012542D01*
X124206000Y-93012542D02*
X125062989Y-93869531D01*
X125062989Y-105750529D02*
X126041989Y-106729529D01*
X126041989Y-106729529D02*
X126041990Y-119164010D01*
X125062989Y-93869531D02*
X125062989Y-105750529D01*
%TO.N,D2_9*%
X121920000Y-125222000D02*
X121920000Y-125286000D01*
X126492000Y-120650000D02*
X121920000Y-125222000D01*
X124968000Y-91948000D02*
X124968000Y-93138132D01*
X126492000Y-106543130D02*
X126492000Y-120650000D01*
X124968000Y-93138132D02*
X125512999Y-93683131D01*
X125512999Y-93683131D02*
X125512999Y-105564129D01*
X125512999Y-105564129D02*
X126492000Y-106543130D01*
%TO.N,D2_0*%
X120685950Y-126051950D02*
X121920000Y-127286000D01*
X120685950Y-107731950D02*
X120685950Y-126051950D01*
X121447950Y-106969950D02*
X120685950Y-107731950D01*
X121447950Y-95345772D02*
X121447950Y-106969950D01*
X118775179Y-92673001D02*
X121447950Y-95345772D01*
X117856000Y-92069207D02*
X118459794Y-92673001D01*
X118459794Y-92673001D02*
X118775179Y-92673001D01*
X117856000Y-91186000D02*
X117856000Y-92069207D01*
%TO.N,D3_1*%
X133661990Y-104135042D02*
X132710042Y-104135042D01*
X132710042Y-104135042D02*
X130867990Y-102292990D01*
X134075001Y-104548053D02*
X133661990Y-104135042D01*
X128270000Y-109286000D02*
X129023002Y-109286000D01*
X129023002Y-109286000D02*
X132587012Y-105721990D01*
X133661990Y-105721990D02*
X134075001Y-105308979D01*
X134075001Y-105308979D02*
X134075001Y-104548053D01*
X132587012Y-105721990D02*
X133661990Y-105721990D01*
X130867990Y-90481990D02*
X130867990Y-102292990D01*
X129540000Y-89154000D02*
X130867990Y-90481990D01*
%TO.N,D3_2*%
X132773412Y-106172000D02*
X131317295Y-107628117D01*
X131318000Y-102106590D02*
X132896442Y-103685032D01*
X132896442Y-103685032D02*
X133848390Y-103685032D01*
X134525011Y-105495379D02*
X133848391Y-106171999D01*
X134525011Y-104361653D02*
X134525011Y-105495379D01*
X133848390Y-103685032D02*
X134525011Y-104361653D01*
X131317295Y-108330295D02*
X128361590Y-111286000D01*
X128361590Y-111286000D02*
X128270000Y-111286000D01*
X133848391Y-106171999D02*
X132773412Y-106172000D01*
X131317295Y-107628117D02*
X131317295Y-108330295D01*
X131318000Y-90424000D02*
X131318000Y-102106590D01*
X132842000Y-88900000D02*
X131318000Y-90424000D01*
%TO.N,D3_3*%
X131826000Y-107755822D02*
X132959814Y-106622008D01*
X132959814Y-106622008D02*
X134044402Y-106622008D01*
X134975021Y-104175253D02*
X134034790Y-103235022D01*
X131826000Y-109728000D02*
X131826000Y-107755822D01*
X128270000Y-113286000D02*
X128270000Y-113284000D01*
X128270000Y-113284000D02*
X131826000Y-109728000D01*
X134044402Y-106622008D02*
X134975020Y-105691390D01*
X134975020Y-105691390D02*
X134975021Y-104175253D01*
X134034790Y-103235022D02*
X133082842Y-103235022D01*
X133082842Y-103235022D02*
X131826000Y-101978180D01*
X133350000Y-90170000D02*
X131826000Y-91694000D01*
X131826000Y-91694000D02*
X131826000Y-101978180D01*
%TO.N,D3_4*%
X134221191Y-102785013D02*
X135425029Y-103988851D01*
X132276010Y-111448010D02*
X128438020Y-115286000D01*
X132276010Y-101791780D02*
X133269242Y-102785012D01*
X134230802Y-107072018D02*
X133146214Y-107072018D01*
X133269242Y-102785012D02*
X134221191Y-102785013D01*
X132276010Y-92513990D02*
X132276010Y-101791780D01*
X135425029Y-105877791D02*
X134230802Y-107072018D01*
X133350000Y-91440000D02*
X132276010Y-92513990D01*
X132276011Y-107942221D02*
X132276010Y-111448010D01*
X128438020Y-115286000D02*
X128270000Y-115286000D01*
X135425029Y-103988851D02*
X135425029Y-105877791D01*
X133146214Y-107072018D02*
X132276011Y-107942221D01*
%TO.N,D3_5*%
X132726020Y-101605380D02*
X133455643Y-102335003D01*
X133455643Y-102335003D02*
X134407592Y-102335004D01*
X134407592Y-102335004D02*
X135875038Y-103802450D01*
X135875038Y-103802450D02*
X135875038Y-106064190D01*
X135875038Y-106064190D02*
X134359208Y-107580020D01*
X132726020Y-112829980D02*
X128270000Y-117286000D01*
X134359208Y-107580020D02*
X133274622Y-107580020D01*
X133274622Y-107580020D02*
X132726020Y-108128622D01*
X132726020Y-108128622D02*
X132726020Y-112829980D01*
X132726020Y-93079980D02*
X133350000Y-92456000D01*
X132726020Y-101605380D02*
X132726020Y-93079980D01*
%TO.N,D3_6*%
X127254000Y-96266000D02*
X129540000Y-93980000D01*
X127254000Y-107696000D02*
X127254000Y-96266000D01*
%TO.N,D3_7*%
X129286000Y-107950000D02*
X128720315Y-107950000D01*
X128720315Y-107950000D02*
X127704010Y-106933695D01*
X127704010Y-97085990D02*
X129540000Y-95250000D01*
X127704010Y-106933695D02*
X127704010Y-97085990D01*
%TO.N,D3_8*%
X128154020Y-97905980D02*
X129540000Y-96520000D01*
X128154020Y-106367705D02*
X128154020Y-97905980D01*
X128720315Y-106934000D02*
X128154020Y-106367705D01*
X129286000Y-106934000D02*
X128720315Y-106934000D01*
%TO.N,D3_9*%
X129667000Y-97917000D02*
X129794000Y-97790000D01*
X129286000Y-105918000D02*
X128604030Y-105236030D01*
X128604030Y-98852970D02*
X129667000Y-97790000D01*
X128604030Y-105236030D02*
X128604030Y-98852970D01*
%TO.N,D3_0*%
X125730000Y-93218000D02*
X125730000Y-91186000D01*
X126238000Y-104902000D02*
X126238000Y-103949500D01*
X125963009Y-103674509D02*
X125963009Y-93451009D01*
X126238000Y-103949500D02*
X125963009Y-103674509D01*
X125963009Y-93451009D02*
X125730000Y-93218000D01*
%TO.N,D4_1*%
X134620000Y-109286000D02*
X134620000Y-109220000D01*
X137377001Y-106462999D02*
X137377001Y-104938999D01*
X134620000Y-109220000D02*
X137377001Y-106462999D01*
%TO.N,D4_2*%
X138233990Y-104451990D02*
X136652000Y-102870000D01*
X138233990Y-107638010D02*
X138233990Y-104451990D01*
X134620000Y-111252000D02*
X138233990Y-107638010D01*
X134620000Y-111286000D02*
X134620000Y-111252000D01*
%TO.N,D4_3*%
X138684000Y-109222000D02*
X134620000Y-113286000D01*
X138684000Y-100838000D02*
X138684000Y-109222000D01*
X138684000Y-100838000D02*
X138176000Y-100330000D01*
%TO.N,D4_4*%
X134620000Y-115286000D02*
X134650000Y-115286000D01*
X134620000Y-115286000D02*
X139192000Y-110714000D01*
X139192000Y-100076000D02*
X139192000Y-110714000D01*
X138176000Y-99060000D02*
X139192000Y-100076000D01*
%TO.N,D4_5*%
X136325048Y-106250592D02*
X136325048Y-103616050D01*
X134620000Y-117286000D02*
X133176030Y-115842030D01*
X133176030Y-109573970D02*
X133176030Y-109139970D01*
X133176030Y-115842030D02*
X133176030Y-109573970D01*
X134545609Y-108030029D02*
X136325048Y-106250590D01*
X133461023Y-108030029D02*
X134545609Y-108030029D01*
X133176030Y-109573970D02*
X133176030Y-108315022D01*
X133176030Y-108315022D02*
X133461023Y-108030029D01*
X138176000Y-97790000D02*
X135926999Y-100039001D01*
X135926999Y-100039001D02*
X135926999Y-103218001D01*
X135926999Y-103218001D02*
X136325048Y-103616050D01*
X136325048Y-106250590D02*
X136325048Y-103616050D01*
%TO.N,D5_2*%
X140970000Y-111286000D02*
X139769990Y-110085990D01*
X139769990Y-110085990D02*
X139769990Y-91638400D01*
X138430000Y-90298410D02*
X139769990Y-91638400D01*
X138430000Y-90170000D02*
X138430000Y-90298410D01*
%TO.N,D5_3*%
X142170010Y-112337990D02*
X141222000Y-113286000D01*
X141222000Y-113286000D02*
X140970000Y-113286000D01*
X139954000Y-91186000D02*
X139954000Y-90424000D01*
X139954000Y-90424000D02*
X138684000Y-89154000D01*
X142170010Y-108388010D02*
X142170010Y-112337990D01*
X140220000Y-91452000D02*
X140220000Y-106438000D01*
X140220000Y-106438000D02*
X142170010Y-108388010D01*
X139954000Y-91186000D02*
X140220000Y-91452000D01*
%TO.N,D5_4*%
X142620020Y-108076020D02*
X140670010Y-106126010D01*
X140670010Y-90723990D02*
X140716000Y-90678000D01*
X142620020Y-113635980D02*
X142620020Y-108076020D01*
X140670010Y-106126010D02*
X140670010Y-90723990D01*
X140970000Y-115286000D02*
X142620020Y-113635980D01*
%TO.N,D5_5*%
X140716000Y-89604998D02*
X140744501Y-89633499D01*
X141441001Y-90329999D02*
X140744501Y-89633499D01*
X141441001Y-91026001D02*
X141441001Y-90329999D01*
X141120020Y-105814020D02*
X141120020Y-91346982D01*
X143070030Y-107764030D02*
X141120020Y-105814020D01*
X141120020Y-91346982D02*
X141441001Y-91026001D01*
X143070030Y-115185970D02*
X143070030Y-107764030D01*
X140970000Y-117286000D02*
X143070030Y-115185970D01*
%TO.N,D5_6*%
X143520040Y-116735960D02*
X140970000Y-119286000D01*
X141986000Y-91117412D02*
X141570030Y-91533382D01*
X141986000Y-89662000D02*
X141986000Y-91117412D01*
X141570030Y-91533382D02*
X141570030Y-105502030D01*
X141570030Y-105502030D02*
X143520040Y-107452040D01*
X143520040Y-107452040D02*
X143520040Y-116735960D01*
%TO.N,D5_7*%
X143256000Y-90483822D02*
X143256000Y-89662000D01*
X142043685Y-91696137D02*
X143256000Y-90483822D01*
X142043685Y-105098315D02*
X142043685Y-91696137D01*
X140970000Y-121158000D02*
X144018000Y-118110000D01*
X142020040Y-105121960D02*
X142043685Y-105098315D01*
X144018000Y-107313590D02*
X142020040Y-105315630D01*
X144018000Y-118110000D02*
X144018000Y-107313590D01*
X140970000Y-121286000D02*
X140970000Y-121158000D01*
X142020040Y-105315630D02*
X142020040Y-105121960D01*
%TO.N,D5_8*%
X140970000Y-123286000D02*
X144468010Y-119787990D01*
X144468010Y-107127190D02*
X142493695Y-105152875D01*
X144468010Y-119787990D02*
X144468010Y-107127190D01*
X142493695Y-105152875D02*
X142493695Y-91882537D01*
X144526000Y-89850232D02*
X144526000Y-89662000D01*
X142493695Y-91882537D02*
X144526000Y-89850232D01*
%TO.N,D5_9*%
X142943705Y-92514295D02*
X145796000Y-89662000D01*
X142943705Y-104966475D02*
X142943705Y-92514295D01*
X144918020Y-121337980D02*
X144918020Y-106940790D01*
X144918020Y-106940790D02*
X142943705Y-104966475D01*
X140970000Y-125286000D02*
X144918020Y-121337980D01*
%TO.N,D5_0*%
X138801010Y-112912990D02*
X138801010Y-115452990D01*
%TO.N,D6_1*%
X143843725Y-104593675D02*
X143843725Y-94408275D01*
X147320000Y-109286000D02*
X147320000Y-108069950D01*
X147320000Y-108069950D02*
X143843725Y-104593675D01*
X145288000Y-92456000D02*
X145288000Y-92964000D01*
X143843725Y-94408275D02*
X145288000Y-92964000D01*
%TO.N,D6_2*%
X148520010Y-110085990D02*
X147320000Y-111286000D01*
X146304000Y-92964000D02*
X144293735Y-94974265D01*
X146304000Y-92456000D02*
X146304000Y-92964000D01*
X148520010Y-108616045D02*
X148520010Y-110085990D01*
X144293735Y-94974265D02*
X144293735Y-104389770D01*
X144293735Y-104389770D02*
X148520010Y-108616045D01*
%TO.N,D6_3*%
X148970020Y-111635980D02*
X147320000Y-113286000D01*
X147320000Y-92456000D02*
X147320000Y-93021002D01*
X147320000Y-93021002D02*
X144743745Y-95597257D01*
X144743745Y-104203370D02*
X148970019Y-108429644D01*
X144743745Y-95597257D02*
X144743745Y-104203370D01*
X148970019Y-108429644D02*
X148970020Y-111635980D01*
%TO.N,D6_4*%
X148247003Y-93871999D02*
X148393002Y-93726000D01*
X148393002Y-93726000D02*
X147673598Y-93726000D01*
X147574000Y-93726000D02*
X148393002Y-93726000D01*
X147320000Y-115286000D02*
X149420028Y-113185972D01*
X149420028Y-113185972D02*
X149420028Y-108243245D01*
X145193756Y-96106244D02*
X147574000Y-93726000D01*
X149420028Y-108243245D02*
X145193755Y-104016970D01*
X145193755Y-104016970D02*
X145193756Y-96106244D01*
%TO.N,D6_5*%
X147320000Y-117286000D02*
X149870038Y-114735962D01*
X149870038Y-114735962D02*
X149870038Y-108056844D01*
X149870038Y-108056844D02*
X145643765Y-103830571D01*
X145643765Y-96672235D02*
X147713996Y-94602004D01*
X147713996Y-94602004D02*
X148336000Y-94602004D01*
X145643765Y-103830571D02*
X145643765Y-96672235D01*
%TO.N,D6_6*%
X150320048Y-107870444D02*
X146093775Y-103644171D01*
X150320048Y-116285952D02*
X150320048Y-107870444D01*
X147320000Y-119286000D02*
X150320048Y-116285952D01*
X146093775Y-97238225D02*
X147574000Y-95758000D01*
X147574000Y-95758000D02*
X148590000Y-95758000D01*
X146093775Y-103644171D02*
X146093775Y-97238225D01*
%TO.N,D6_7*%
X150770058Y-117835942D02*
X147320000Y-121286000D01*
X150770058Y-107684044D02*
X150770058Y-117835942D01*
X146558000Y-103471986D02*
X150770058Y-107684044D01*
X146558000Y-97790000D02*
X147574000Y-96774000D01*
X148336000Y-96774000D02*
X147574000Y-96774000D01*
X146558000Y-97790000D02*
X146558000Y-103471986D01*
%TO.N,D6_8*%
X151220068Y-119385932D02*
X147320000Y-123286000D01*
X147008010Y-103285586D02*
X151220068Y-107497644D01*
X147447000Y-97917000D02*
X147008010Y-98355990D01*
X147008010Y-98355990D02*
X147008010Y-103285586D01*
X151220068Y-107497644D02*
X151220068Y-119385932D01*
X147574000Y-97790000D02*
X147008010Y-98355990D01*
X148336000Y-97790000D02*
X147574000Y-97790000D01*
%TO.N,D6_9*%
X151670078Y-120935922D02*
X147320000Y-125286000D01*
X147770315Y-98806000D02*
X147458020Y-99118295D01*
X151670078Y-107311244D02*
X151670078Y-120935922D01*
X148336000Y-98806000D02*
X147770315Y-98806000D01*
X147458020Y-99118295D02*
X147458020Y-103099186D01*
X147458020Y-103099186D02*
X151670078Y-107311244D01*
%TO.N,D6_0*%
X145368030Y-125334030D02*
X147320000Y-127286000D01*
X144272000Y-92456000D02*
X144272000Y-92985430D01*
X143393715Y-93863715D02*
X143393715Y-104780075D01*
X143393715Y-104780075D02*
X145368030Y-106754390D01*
X144272000Y-92985430D02*
X143393715Y-93863715D01*
X145368030Y-106754390D02*
X145368030Y-125334030D01*
%TO.N,Net-(NE101-Pad2)*%
X156464000Y-101600000D02*
X156464000Y-101346000D01*
X156464000Y-101346000D02*
X156521684Y-101346000D01*
X158718000Y-93250000D02*
X157675010Y-94292990D01*
X158718000Y-91440000D02*
X158718000Y-93250000D01*
X157675010Y-100388990D02*
X157675010Y-94292990D01*
X156464000Y-101600000D02*
X157675010Y-100388990D01*
%TO.N,Net-(NE103-Pad2)*%
X158750000Y-99060000D02*
X158750000Y-100838000D01*
X158750000Y-100838000D02*
X159512000Y-101600000D01*
%TO.N,Net-(Q101-Pad3)*%
X181991000Y-115697000D02*
X165354000Y-115697000D01*
%TO.N,Net-(Q101-Pad1)*%
X178238990Y-116147010D02*
X177546000Y-116840000D01*
X187325000Y-115824000D02*
X182937002Y-115824000D01*
X181642999Y-116422001D02*
X181368008Y-116147010D01*
X182339001Y-116422001D02*
X181642999Y-116422001D01*
X182937002Y-115824000D02*
X182339001Y-116422001D01*
X181368008Y-116147010D02*
X178238990Y-116147010D01*
%TO.N,NRST*%
X174379001Y-104004999D02*
X174244000Y-104140000D01*
X181737000Y-106553000D02*
X179324000Y-104140000D01*
X179324000Y-104140000D02*
X174244000Y-104140000D01*
%TO.N,SDA*%
X182880000Y-105283000D02*
X181800500Y-104203500D01*
X181800500Y-104203500D02*
X181737000Y-104140000D01*
X182880000Y-105283000D02*
X187706000Y-105283000D01*
X189865000Y-103378000D02*
X189865000Y-104775000D01*
X189357000Y-105283000D02*
X187706000Y-105283000D01*
X189865000Y-104775000D02*
X189357000Y-105283000D01*
%TO.N,SCL*%
X182060010Y-105733010D02*
X181737000Y-105410000D01*
X186759010Y-105733010D02*
X182060010Y-105733010D01*
X187579000Y-106553000D02*
X186759010Y-105733010D01*
%TO.N,Net-(R105-Pad2)*%
X170434000Y-114554000D02*
X166116000Y-110236000D01*
X174752000Y-114554000D02*
X170434000Y-114554000D01*
%TO.N,DATA*%
X194564000Y-105664000D02*
X193802000Y-106426000D01*
X193802000Y-106426000D02*
X194056000Y-106172000D01*
X152210205Y-106107795D02*
X152737425Y-106107795D01*
X148628409Y-87793999D02*
X150310009Y-89475599D01*
X150310009Y-89475599D02*
X150310010Y-104207600D01*
X150310010Y-104207600D02*
X152210205Y-106107795D01*
X129376001Y-87793999D02*
X148628409Y-87793999D01*
X152737425Y-106107795D02*
X154807651Y-108178021D01*
X129286000Y-90604002D02*
X128814999Y-90133001D01*
X154807651Y-108178021D02*
X192049979Y-108178021D01*
X129286000Y-91186000D02*
X129286000Y-90604002D01*
X128814999Y-88355001D02*
X129376001Y-87793999D01*
X128814999Y-90133001D02*
X128814999Y-88355001D01*
X192049979Y-108178021D02*
X193802000Y-106426000D01*
%TO.N,CLK*%
X128016000Y-89408000D02*
X128016000Y-89222588D01*
X150760020Y-103493980D02*
X150769630Y-103503590D01*
X150760020Y-89289200D02*
X150760020Y-103493980D01*
X148814809Y-87343989D02*
X150760020Y-89289200D01*
X128745990Y-87343990D02*
X148814809Y-87343989D01*
X128016000Y-88073980D02*
X128745990Y-87343990D01*
X128016000Y-89408000D02*
X128016000Y-88073980D01*
X150769630Y-103503590D02*
X150769630Y-104030810D01*
X152400000Y-105283000D02*
X152021820Y-105283000D01*
X152021820Y-105283000D02*
X150769630Y-104030810D01*
X192595500Y-106616500D02*
X192595500Y-104648000D01*
X191483989Y-107728011D02*
X192595500Y-106616500D01*
X152422040Y-105156000D02*
X154994051Y-107728011D01*
X152400000Y-105156000D02*
X152422040Y-105156000D01*
X154994051Y-107728011D02*
X191483989Y-107728011D01*
%TO.N,OE*%
X133985000Y-88519000D02*
X133858000Y-88646000D01*
X152654000Y-106934000D02*
X152927220Y-106934000D01*
X152400000Y-106934000D02*
X152654000Y-106934000D01*
X152654000Y-106934000D02*
X152908000Y-106934000D01*
X134075001Y-88428999D02*
X133985000Y-88519000D01*
X149860000Y-89662000D02*
X148626999Y-88428999D01*
X148626999Y-88428999D02*
X134075001Y-88428999D01*
X149860000Y-104394000D02*
X149860000Y-89662000D01*
X152400000Y-106934000D02*
X149860000Y-104394000D01*
X127254000Y-87884000D02*
X128524000Y-86614000D01*
X128524000Y-86614000D02*
X130810000Y-86614000D01*
X127254000Y-90170000D02*
X127254000Y-87884000D01*
X181018031Y-108628031D02*
X181864000Y-109474000D01*
X153171610Y-107178390D02*
X153425610Y-107432390D01*
X152927220Y-106934000D02*
X153425610Y-107432390D01*
X152927220Y-106934000D02*
X154621251Y-108628031D01*
X153425610Y-107432390D02*
X154378110Y-108384890D01*
X154621251Y-108628031D02*
X181018031Y-108628031D01*
%TO.N,DATA_OUT*%
X126492000Y-87630000D02*
X126492000Y-91948000D01*
X128233001Y-85888999D02*
X126492000Y-87630000D01*
X149001208Y-86893980D02*
X132162982Y-86893980D01*
X151210029Y-89102799D02*
X149001208Y-86893980D01*
X151210030Y-101426030D02*
X151210029Y-89102799D01*
X131158001Y-85888999D02*
X128233001Y-85888999D01*
X132162982Y-86893980D02*
X131158001Y-85888999D01*
X152908000Y-103124000D02*
X151210030Y-101426030D01*
%TO.N,/TX*%
X185420000Y-109982000D02*
X186690000Y-108712000D01*
X192859885Y-108638115D02*
X186763885Y-108638115D01*
X200912590Y-104649410D02*
X196848590Y-104649410D01*
X201676000Y-103886000D02*
X200912590Y-104649410D01*
X204216000Y-103886000D02*
X201676000Y-103886000D01*
X196848590Y-104649410D02*
X192859885Y-108638115D01*
X186763885Y-108638115D02*
X185420000Y-109982000D01*
%TO.N,/RX*%
X186727222Y-109935028D02*
X185410250Y-111252000D01*
X187574125Y-109088125D02*
X193557105Y-109088125D01*
X201676000Y-106426000D02*
X204216000Y-106426000D01*
X196981230Y-105664000D02*
X200914000Y-105664000D01*
X193557105Y-109088125D02*
X196981230Y-105664000D01*
X200914000Y-105664000D02*
X201676000Y-106426000D01*
X185410250Y-111252000D02*
X187574125Y-109088125D01*
%TD*%
D19*
%TO.N,GNDA*%
G36*
X200783542Y-84299238D02*
G01*
X200299238Y-84783542D01*
X199918722Y-85353023D01*
X199656619Y-85985796D01*
X199523000Y-86657545D01*
X199523000Y-87342455D01*
X199656619Y-88014204D01*
X199918722Y-88646977D01*
X200299238Y-89216458D01*
X200783542Y-89700762D01*
X201353023Y-90081278D01*
X201985796Y-90343381D01*
X202657545Y-90477000D01*
X203342455Y-90477000D01*
X204014204Y-90343381D01*
X204646977Y-90081278D01*
X205216458Y-89700762D01*
X205700762Y-89216458D01*
X205840001Y-89008073D01*
X205840000Y-114117629D01*
X205742369Y-113967236D01*
X205586169Y-113806839D01*
X205401678Y-113679997D01*
X205195987Y-113591585D01*
X204977000Y-113545000D01*
X204677000Y-113545000D01*
X204677000Y-114553000D01*
X204697000Y-114553000D01*
X204697000Y-114807000D01*
X204677000Y-114807000D01*
X204677000Y-115815000D01*
X204977000Y-115815000D01*
X205195987Y-115768415D01*
X205401678Y-115680003D01*
X205586169Y-115553161D01*
X205742369Y-115392764D01*
X205840000Y-115242371D01*
X205840000Y-122757629D01*
X205742369Y-122607236D01*
X205586169Y-122446839D01*
X205401678Y-122319997D01*
X205195987Y-122231585D01*
X204977000Y-122185000D01*
X204677000Y-122185000D01*
X204677000Y-123193000D01*
X204697000Y-123193000D01*
X204697000Y-123447000D01*
X204677000Y-123447000D01*
X204677000Y-124455000D01*
X204977000Y-124455000D01*
X205195987Y-124408415D01*
X205401678Y-124320003D01*
X205586169Y-124193161D01*
X205742369Y-124032764D01*
X205840000Y-123882371D01*
X205840000Y-127991926D01*
X205700762Y-127783542D01*
X205216458Y-127299238D01*
X204646977Y-126918722D01*
X204014204Y-126656619D01*
X203342455Y-126523000D01*
X202657545Y-126523000D01*
X201985796Y-126656619D01*
X201353023Y-126918722D01*
X200783542Y-127299238D01*
X200299238Y-127783542D01*
X199918722Y-128353023D01*
X199656619Y-128985796D01*
X199523000Y-129657545D01*
X199523000Y-130342455D01*
X199656619Y-131014204D01*
X199918722Y-131646977D01*
X200299238Y-132216458D01*
X200783542Y-132700762D01*
X200991926Y-132840000D01*
X112008074Y-132840000D01*
X112216458Y-132700762D01*
X112700762Y-132216458D01*
X113081278Y-131646977D01*
X113343381Y-131014204D01*
X113477000Y-130342455D01*
X113477000Y-129657545D01*
X113343381Y-128985796D01*
X113081278Y-128353023D01*
X112700762Y-127783542D01*
X112216458Y-127299238D01*
X111646977Y-126918722D01*
X111014204Y-126656619D01*
X110342455Y-126523000D01*
X109657545Y-126523000D01*
X108985796Y-126656619D01*
X108353023Y-126918722D01*
X107783542Y-127299238D01*
X107299238Y-127783542D01*
X107160000Y-127991926D01*
X107160000Y-109220000D01*
X114054025Y-109220000D01*
X114077870Y-109462102D01*
X114148489Y-109694901D01*
X114263167Y-109909449D01*
X114417498Y-110097502D01*
X114566762Y-110220000D01*
X114417498Y-110342498D01*
X114263167Y-110530551D01*
X114148489Y-110745099D01*
X114077870Y-110977898D01*
X114054025Y-111220000D01*
X114077870Y-111462102D01*
X114148489Y-111694901D01*
X114263167Y-111909449D01*
X114417498Y-112097502D01*
X114566762Y-112220000D01*
X114417498Y-112342498D01*
X114263167Y-112530551D01*
X114148489Y-112745099D01*
X114077870Y-112977898D01*
X114054025Y-113220000D01*
X114077870Y-113462102D01*
X114148489Y-113694901D01*
X114263167Y-113909449D01*
X114417498Y-114097502D01*
X114566762Y-114220000D01*
X114417498Y-114342498D01*
X114263167Y-114530551D01*
X114148489Y-114745099D01*
X114077870Y-114977898D01*
X114054025Y-115220000D01*
X114077870Y-115462102D01*
X114148489Y-115694901D01*
X114263167Y-115909449D01*
X114417498Y-116097502D01*
X114566762Y-116220000D01*
X114417498Y-116342498D01*
X114263167Y-116530551D01*
X114148489Y-116745099D01*
X114077870Y-116977898D01*
X114054025Y-117220000D01*
X114077870Y-117462102D01*
X114148489Y-117694901D01*
X114263167Y-117909449D01*
X114417498Y-118097502D01*
X114566762Y-118220000D01*
X114417498Y-118342498D01*
X114263167Y-118530551D01*
X114148489Y-118745099D01*
X114077870Y-118977898D01*
X114054025Y-119220000D01*
X114077870Y-119462102D01*
X114148489Y-119694901D01*
X114263167Y-119909449D01*
X114417498Y-120097502D01*
X114566762Y-120220000D01*
X114417498Y-120342498D01*
X114263167Y-120530551D01*
X114148489Y-120745099D01*
X114077870Y-120977898D01*
X114054025Y-121220000D01*
X114077870Y-121462102D01*
X114148489Y-121694901D01*
X114263167Y-121909449D01*
X114417498Y-122097502D01*
X114566762Y-122220000D01*
X114417498Y-122342498D01*
X114263167Y-122530551D01*
X114148489Y-122745099D01*
X114077870Y-122977898D01*
X114054025Y-123220000D01*
X114077870Y-123462102D01*
X114148489Y-123694901D01*
X114263167Y-123909449D01*
X114417498Y-124097502D01*
X114566762Y-124220000D01*
X114417498Y-124342498D01*
X114263167Y-124530551D01*
X114148489Y-124745099D01*
X114077870Y-124977898D01*
X114054025Y-125220000D01*
X114077870Y-125462102D01*
X114148489Y-125694901D01*
X114263167Y-125909449D01*
X114417498Y-126097502D01*
X114566762Y-126220000D01*
X114417498Y-126342498D01*
X114263167Y-126530551D01*
X114148489Y-126745099D01*
X114077870Y-126977898D01*
X114054025Y-127220000D01*
X114077870Y-127462102D01*
X114148489Y-127694901D01*
X114263167Y-127909449D01*
X114417498Y-128097502D01*
X114456111Y-128129191D01*
X114451613Y-128131595D01*
X114317038Y-128242038D01*
X114206595Y-128376613D01*
X114124528Y-128530149D01*
X114073992Y-128696745D01*
X114056928Y-128869999D01*
X114056928Y-129570001D01*
X114073992Y-129743255D01*
X114124528Y-129909851D01*
X114206595Y-130063387D01*
X114317038Y-130197962D01*
X114451613Y-130308405D01*
X114605149Y-130390472D01*
X114771745Y-130441008D01*
X114944999Y-130458072D01*
X116195001Y-130458072D01*
X116368255Y-130441008D01*
X116534851Y-130390472D01*
X116688387Y-130308405D01*
X116822962Y-130197962D01*
X116933405Y-130063387D01*
X117015472Y-129909851D01*
X117066008Y-129743255D01*
X117083072Y-129570001D01*
X117083072Y-128869999D01*
X117066008Y-128696745D01*
X117015472Y-128530149D01*
X116933405Y-128376613D01*
X116822962Y-128242038D01*
X116688387Y-128131595D01*
X116683889Y-128129191D01*
X116722502Y-128097502D01*
X116876833Y-127909449D01*
X116991511Y-127694901D01*
X117062130Y-127462102D01*
X117085975Y-127220000D01*
X117062130Y-126977898D01*
X116991511Y-126745099D01*
X116876833Y-126530551D01*
X116722502Y-126342498D01*
X116573238Y-126220000D01*
X116722502Y-126097502D01*
X116876833Y-125909449D01*
X116991511Y-125694901D01*
X117062130Y-125462102D01*
X117085975Y-125220000D01*
X117062130Y-124977898D01*
X117021347Y-124843454D01*
X119925951Y-121938851D01*
X119925951Y-126014617D01*
X119922274Y-126051950D01*
X119936948Y-126200935D01*
X119980404Y-126344196D01*
X120050976Y-126476226D01*
X120089363Y-126523000D01*
X120145950Y-126591951D01*
X120174948Y-126615749D01*
X120468653Y-126909454D01*
X120427870Y-127043898D01*
X120404025Y-127286000D01*
X120427870Y-127528102D01*
X120498489Y-127760901D01*
X120613167Y-127975449D01*
X120767498Y-128163502D01*
X120806111Y-128195191D01*
X120801613Y-128197595D01*
X120667038Y-128308038D01*
X120556595Y-128442613D01*
X120474528Y-128596149D01*
X120423992Y-128762745D01*
X120406928Y-128935999D01*
X120406928Y-129636001D01*
X120423992Y-129809255D01*
X120474528Y-129975851D01*
X120556595Y-130129387D01*
X120667038Y-130263962D01*
X120801613Y-130374405D01*
X120955149Y-130456472D01*
X121121745Y-130507008D01*
X121294999Y-130524072D01*
X122545001Y-130524072D01*
X122718255Y-130507008D01*
X122884851Y-130456472D01*
X123038387Y-130374405D01*
X123172962Y-130263962D01*
X123283405Y-130129387D01*
X123365472Y-129975851D01*
X123416008Y-129809255D01*
X123433072Y-129636001D01*
X123433072Y-128935999D01*
X123416008Y-128762745D01*
X123365472Y-128596149D01*
X123283405Y-128442613D01*
X123172962Y-128308038D01*
X123038387Y-128197595D01*
X123033889Y-128195191D01*
X123072502Y-128163502D01*
X123226833Y-127975449D01*
X123341511Y-127760901D01*
X123412130Y-127528102D01*
X123435975Y-127286000D01*
X123412130Y-127043898D01*
X123341511Y-126811099D01*
X123226833Y-126596551D01*
X123072502Y-126408498D01*
X122923238Y-126286000D01*
X123072502Y-126163502D01*
X123226833Y-125975449D01*
X123341511Y-125760901D01*
X123412130Y-125528102D01*
X123435975Y-125286000D01*
X123412130Y-125043898D01*
X123356451Y-124860350D01*
X126769875Y-121446928D01*
X126777870Y-121528102D01*
X126848489Y-121760901D01*
X126963167Y-121975449D01*
X127117498Y-122163502D01*
X127266762Y-122286000D01*
X127117498Y-122408498D01*
X126963167Y-122596551D01*
X126848489Y-122811099D01*
X126777870Y-123043898D01*
X126754025Y-123286000D01*
X126777870Y-123528102D01*
X126848489Y-123760901D01*
X126963167Y-123975449D01*
X127117498Y-124163502D01*
X127266762Y-124286000D01*
X127117498Y-124408498D01*
X126963167Y-124596551D01*
X126848489Y-124811099D01*
X126777870Y-125043898D01*
X126754025Y-125286000D01*
X126777870Y-125528102D01*
X126848489Y-125760901D01*
X126963167Y-125975449D01*
X127117498Y-126163502D01*
X127266762Y-126286000D01*
X127117498Y-126408498D01*
X126963167Y-126596551D01*
X126848489Y-126811099D01*
X126777870Y-127043898D01*
X126754025Y-127286000D01*
X126777870Y-127528102D01*
X126848489Y-127760901D01*
X126963167Y-127975449D01*
X127117498Y-128163502D01*
X127156111Y-128195191D01*
X127151613Y-128197595D01*
X127017038Y-128308038D01*
X126906595Y-128442613D01*
X126824528Y-128596149D01*
X126773992Y-128762745D01*
X126756928Y-128935999D01*
X126756928Y-129636001D01*
X126773992Y-129809255D01*
X126824528Y-129975851D01*
X126906595Y-130129387D01*
X127017038Y-130263962D01*
X127151613Y-130374405D01*
X127305149Y-130456472D01*
X127471745Y-130507008D01*
X127644999Y-130524072D01*
X128895001Y-130524072D01*
X129068255Y-130507008D01*
X129234851Y-130456472D01*
X129388387Y-130374405D01*
X129522962Y-130263962D01*
X129633405Y-130129387D01*
X129715472Y-129975851D01*
X129766008Y-129809255D01*
X129783072Y-129636001D01*
X129783072Y-128935999D01*
X129766008Y-128762745D01*
X129715472Y-128596149D01*
X129633405Y-128442613D01*
X129522962Y-128308038D01*
X129388387Y-128197595D01*
X129383889Y-128195191D01*
X129422502Y-128163502D01*
X129576833Y-127975449D01*
X129691511Y-127760901D01*
X129762130Y-127528102D01*
X129785975Y-127286000D01*
X129762130Y-127043898D01*
X129691511Y-126811099D01*
X129576833Y-126596551D01*
X129422502Y-126408498D01*
X129273238Y-126286000D01*
X129422502Y-126163502D01*
X129576833Y-125975449D01*
X129691511Y-125760901D01*
X129762130Y-125528102D01*
X129785975Y-125286000D01*
X129762130Y-125043898D01*
X129691511Y-124811099D01*
X129576833Y-124596551D01*
X129422502Y-124408498D01*
X129273238Y-124286000D01*
X129422502Y-124163502D01*
X129576833Y-123975449D01*
X129691511Y-123760901D01*
X129762130Y-123528102D01*
X129785975Y-123286000D01*
X129762130Y-123043898D01*
X129691511Y-122811099D01*
X129576833Y-122596551D01*
X129422502Y-122408498D01*
X129273238Y-122286000D01*
X129422502Y-122163502D01*
X129576833Y-121975449D01*
X129691511Y-121760901D01*
X129762130Y-121528102D01*
X129785975Y-121286000D01*
X129762130Y-121043898D01*
X129691511Y-120811099D01*
X129576833Y-120596551D01*
X129422502Y-120408498D01*
X129273238Y-120286000D01*
X129422502Y-120163502D01*
X129576833Y-119975449D01*
X129691511Y-119760901D01*
X129762130Y-119528102D01*
X129785975Y-119286000D01*
X129762130Y-119043898D01*
X129691511Y-118811099D01*
X129576833Y-118596551D01*
X129422502Y-118408498D01*
X129273238Y-118286000D01*
X129422502Y-118163502D01*
X129576833Y-117975449D01*
X129691511Y-117760901D01*
X129762130Y-117528102D01*
X129785975Y-117286000D01*
X129762130Y-117043898D01*
X129721347Y-116909454D01*
X132416030Y-114214772D01*
X132416030Y-115804707D01*
X132412354Y-115842030D01*
X132416030Y-115879352D01*
X132416030Y-115879362D01*
X132427027Y-115991015D01*
X132450644Y-116068870D01*
X132470484Y-116134276D01*
X132541056Y-116266306D01*
X132578298Y-116311685D01*
X132636029Y-116382031D01*
X132665033Y-116405834D01*
X133168653Y-116909454D01*
X133127870Y-117043898D01*
X133104025Y-117286000D01*
X133127870Y-117528102D01*
X133198489Y-117760901D01*
X133313167Y-117975449D01*
X133467498Y-118163502D01*
X133616762Y-118286000D01*
X133467498Y-118408498D01*
X133313167Y-118596551D01*
X133198489Y-118811099D01*
X133127870Y-119043898D01*
X133104025Y-119286000D01*
X133127870Y-119528102D01*
X133198489Y-119760901D01*
X133313167Y-119975449D01*
X133467498Y-120163502D01*
X133616762Y-120286000D01*
X133467498Y-120408498D01*
X133313167Y-120596551D01*
X133198489Y-120811099D01*
X133127870Y-121043898D01*
X133104025Y-121286000D01*
X133127870Y-121528102D01*
X133198489Y-121760901D01*
X133313167Y-121975449D01*
X133467498Y-122163502D01*
X133616762Y-122286000D01*
X133467498Y-122408498D01*
X133313167Y-122596551D01*
X133198489Y-122811099D01*
X133127870Y-123043898D01*
X133104025Y-123286000D01*
X133127870Y-123528102D01*
X133198489Y-123760901D01*
X133313167Y-123975449D01*
X133467498Y-124163502D01*
X133616762Y-124286000D01*
X133467498Y-124408498D01*
X133313167Y-124596551D01*
X133198489Y-124811099D01*
X133127870Y-125043898D01*
X133104025Y-125286000D01*
X133127870Y-125528102D01*
X133198489Y-125760901D01*
X133313167Y-125975449D01*
X133467498Y-126163502D01*
X133616762Y-126286000D01*
X133467498Y-126408498D01*
X133313167Y-126596551D01*
X133198489Y-126811099D01*
X133127870Y-127043898D01*
X133104025Y-127286000D01*
X133127870Y-127528102D01*
X133198489Y-127760901D01*
X133313167Y-127975449D01*
X133467498Y-128163502D01*
X133506111Y-128195191D01*
X133501613Y-128197595D01*
X133367038Y-128308038D01*
X133256595Y-128442613D01*
X133174528Y-128596149D01*
X133123992Y-128762745D01*
X133106928Y-128935999D01*
X133106928Y-129636001D01*
X133123992Y-129809255D01*
X133174528Y-129975851D01*
X133256595Y-130129387D01*
X133367038Y-130263962D01*
X133501613Y-130374405D01*
X133655149Y-130456472D01*
X133821745Y-130507008D01*
X133994999Y-130524072D01*
X135245001Y-130524072D01*
X135418255Y-130507008D01*
X135584851Y-130456472D01*
X135738387Y-130374405D01*
X135872962Y-130263962D01*
X135983405Y-130129387D01*
X136065472Y-129975851D01*
X136116008Y-129809255D01*
X136133072Y-129636001D01*
X136133072Y-128935999D01*
X136116008Y-128762745D01*
X136065472Y-128596149D01*
X135983405Y-128442613D01*
X135872962Y-128308038D01*
X135738387Y-128197595D01*
X135733889Y-128195191D01*
X135772502Y-128163502D01*
X135926833Y-127975449D01*
X136041511Y-127760901D01*
X136112130Y-127528102D01*
X136135975Y-127286000D01*
X136112130Y-127043898D01*
X136041511Y-126811099D01*
X135926833Y-126596551D01*
X135772502Y-126408498D01*
X135623238Y-126286000D01*
X135772502Y-126163502D01*
X135926833Y-125975449D01*
X136041511Y-125760901D01*
X136112130Y-125528102D01*
X136135975Y-125286000D01*
X136112130Y-125043898D01*
X136041511Y-124811099D01*
X135926833Y-124596551D01*
X135772502Y-124408498D01*
X135623238Y-124286000D01*
X135772502Y-124163502D01*
X135926833Y-123975449D01*
X136041511Y-123760901D01*
X136112130Y-123528102D01*
X136135975Y-123286000D01*
X136112130Y-123043898D01*
X136041511Y-122811099D01*
X135926833Y-122596551D01*
X135772502Y-122408498D01*
X135623238Y-122286000D01*
X135772502Y-122163502D01*
X135926833Y-121975449D01*
X136041511Y-121760901D01*
X136112130Y-121528102D01*
X136135975Y-121286000D01*
X136112130Y-121043898D01*
X136041511Y-120811099D01*
X135926833Y-120596551D01*
X135772502Y-120408498D01*
X135623238Y-120286000D01*
X135772502Y-120163502D01*
X135926833Y-119975449D01*
X136041511Y-119760901D01*
X136112130Y-119528102D01*
X136135975Y-119286000D01*
X136112130Y-119043898D01*
X136041511Y-118811099D01*
X135926833Y-118596551D01*
X135772502Y-118408498D01*
X135623238Y-118286000D01*
X135772502Y-118163502D01*
X135926833Y-117975449D01*
X136041511Y-117760901D01*
X136112130Y-117528102D01*
X136135975Y-117286000D01*
X136112130Y-117043898D01*
X136041511Y-116811099D01*
X135926833Y-116596551D01*
X135772502Y-116408498D01*
X135623238Y-116286000D01*
X135772502Y-116163502D01*
X135926833Y-115975449D01*
X136041511Y-115760901D01*
X136112130Y-115528102D01*
X136135975Y-115286000D01*
X136112130Y-115043898D01*
X136071347Y-114909455D01*
X137799169Y-113181633D01*
X137805784Y-113214888D01*
X137883805Y-113403246D01*
X137997073Y-113572764D01*
X138041010Y-113616701D01*
X138041011Y-114749278D01*
X137997073Y-114793216D01*
X137883805Y-114962734D01*
X137805784Y-115151092D01*
X137766010Y-115351051D01*
X137766010Y-115554929D01*
X137805784Y-115754888D01*
X137883805Y-115943246D01*
X137997073Y-116112764D01*
X138141236Y-116256927D01*
X138310754Y-116370195D01*
X138499112Y-116448216D01*
X138699071Y-116487990D01*
X138902949Y-116487990D01*
X139102908Y-116448216D01*
X139291266Y-116370195D01*
X139460784Y-116256927D01*
X139604947Y-116112764D01*
X139681650Y-115997970D01*
X139817498Y-116163502D01*
X139966762Y-116286000D01*
X139817498Y-116408498D01*
X139663167Y-116596551D01*
X139548489Y-116811099D01*
X139477870Y-117043898D01*
X139454025Y-117286000D01*
X139477870Y-117528102D01*
X139548489Y-117760901D01*
X139663167Y-117975449D01*
X139817498Y-118163502D01*
X139966762Y-118286000D01*
X139817498Y-118408498D01*
X139663167Y-118596551D01*
X139548489Y-118811099D01*
X139477870Y-119043898D01*
X139454025Y-119286000D01*
X139477870Y-119528102D01*
X139548489Y-119760901D01*
X139663167Y-119975449D01*
X139817498Y-120163502D01*
X139966762Y-120286000D01*
X139817498Y-120408498D01*
X139663167Y-120596551D01*
X139548489Y-120811099D01*
X139477870Y-121043898D01*
X139454025Y-121286000D01*
X139477870Y-121528102D01*
X139548489Y-121760901D01*
X139663167Y-121975449D01*
X139817498Y-122163502D01*
X139966762Y-122286000D01*
X139817498Y-122408498D01*
X139663167Y-122596551D01*
X139548489Y-122811099D01*
X139477870Y-123043898D01*
X139454025Y-123286000D01*
X139477870Y-123528102D01*
X139548489Y-123760901D01*
X139663167Y-123975449D01*
X139817498Y-124163502D01*
X139966762Y-124286000D01*
X139817498Y-124408498D01*
X139663167Y-124596551D01*
X139548489Y-124811099D01*
X139477870Y-125043898D01*
X139454025Y-125286000D01*
X139477870Y-125528102D01*
X139548489Y-125760901D01*
X139663167Y-125975449D01*
X139817498Y-126163502D01*
X139966762Y-126286000D01*
X139817498Y-126408498D01*
X139663167Y-126596551D01*
X139548489Y-126811099D01*
X139477870Y-127043898D01*
X139454025Y-127286000D01*
X139477870Y-127528102D01*
X139548489Y-127760901D01*
X139663167Y-127975449D01*
X139817498Y-128163502D01*
X139856111Y-128195191D01*
X139851613Y-128197595D01*
X139717038Y-128308038D01*
X139606595Y-128442613D01*
X139524528Y-128596149D01*
X139473992Y-128762745D01*
X139456928Y-128935999D01*
X139456928Y-129636001D01*
X139473992Y-129809255D01*
X139524528Y-129975851D01*
X139606595Y-130129387D01*
X139717038Y-130263962D01*
X139851613Y-130374405D01*
X140005149Y-130456472D01*
X140171745Y-130507008D01*
X140344999Y-130524072D01*
X141595001Y-130524072D01*
X141768255Y-130507008D01*
X141934851Y-130456472D01*
X142088387Y-130374405D01*
X142222962Y-130263962D01*
X142333405Y-130129387D01*
X142415472Y-129975851D01*
X142466008Y-129809255D01*
X142483072Y-129636001D01*
X142483072Y-128935999D01*
X142466008Y-128762745D01*
X142415472Y-128596149D01*
X142333405Y-128442613D01*
X142222962Y-128308038D01*
X142088387Y-128197595D01*
X142083889Y-128195191D01*
X142122502Y-128163502D01*
X142276833Y-127975449D01*
X142391511Y-127760901D01*
X142462130Y-127528102D01*
X142485975Y-127286000D01*
X142462130Y-127043898D01*
X142391511Y-126811099D01*
X142276833Y-126596551D01*
X142122502Y-126408498D01*
X141973238Y-126286000D01*
X142122502Y-126163502D01*
X142276833Y-125975449D01*
X142391511Y-125760901D01*
X142462130Y-125528102D01*
X142485975Y-125286000D01*
X142462130Y-125043898D01*
X142421347Y-124909455D01*
X144608031Y-122722772D01*
X144608031Y-125296697D01*
X144604354Y-125334030D01*
X144619028Y-125483015D01*
X144662484Y-125626276D01*
X144733056Y-125758306D01*
X144804231Y-125845032D01*
X144828030Y-125874031D01*
X144857028Y-125897829D01*
X145868653Y-126909455D01*
X145827870Y-127043898D01*
X145804025Y-127286000D01*
X145827870Y-127528102D01*
X145898489Y-127760901D01*
X146013167Y-127975449D01*
X146167498Y-128163502D01*
X146206111Y-128195191D01*
X146201613Y-128197595D01*
X146067038Y-128308038D01*
X145956595Y-128442613D01*
X145874528Y-128596149D01*
X145823992Y-128762745D01*
X145806928Y-128935999D01*
X145806928Y-129636001D01*
X145823992Y-129809255D01*
X145874528Y-129975851D01*
X145956595Y-130129387D01*
X146067038Y-130263962D01*
X146201613Y-130374405D01*
X146355149Y-130456472D01*
X146521745Y-130507008D01*
X146694999Y-130524072D01*
X147945001Y-130524072D01*
X148118255Y-130507008D01*
X148284851Y-130456472D01*
X148438387Y-130374405D01*
X148572962Y-130263962D01*
X148683405Y-130129387D01*
X148765472Y-129975851D01*
X148782110Y-129921000D01*
X185547000Y-129921000D01*
X185549440Y-129945776D01*
X185556667Y-129969601D01*
X185568403Y-129991557D01*
X185584197Y-130010803D01*
X185603443Y-130026597D01*
X185625399Y-130038333D01*
X185649224Y-130045560D01*
X185674000Y-130048000D01*
X196342000Y-130048000D01*
X196356835Y-130047131D01*
X196381157Y-130041813D01*
X196403974Y-130031852D01*
X196424409Y-130017632D01*
X196441678Y-129999698D01*
X196455116Y-129978739D01*
X196464207Y-129955562D01*
X196468601Y-129931057D01*
X196468131Y-129906165D01*
X196462813Y-129881843D01*
X196452852Y-129859026D01*
X192965863Y-123621874D01*
X198725881Y-123621874D01*
X198805724Y-123844976D01*
X198927631Y-124032764D01*
X199083831Y-124193161D01*
X199268322Y-124320003D01*
X199474013Y-124408415D01*
X199693000Y-124455000D01*
X200243000Y-124455000D01*
X200243000Y-123447000D01*
X200497000Y-123447000D01*
X200497000Y-124455000D01*
X201047000Y-124455000D01*
X201265987Y-124408415D01*
X201471678Y-124320003D01*
X201656169Y-124193161D01*
X201812369Y-124032764D01*
X201934276Y-123844976D01*
X202014119Y-123621874D01*
X203155881Y-123621874D01*
X203235724Y-123844976D01*
X203357631Y-124032764D01*
X203513831Y-124193161D01*
X203698322Y-124320003D01*
X203904013Y-124408415D01*
X204123000Y-124455000D01*
X204423000Y-124455000D01*
X204423000Y-123447000D01*
X203282046Y-123447000D01*
X203155881Y-123621874D01*
X202014119Y-123621874D01*
X201887954Y-123447000D01*
X200497000Y-123447000D01*
X200243000Y-123447000D01*
X198852046Y-123447000D01*
X198725881Y-123621874D01*
X192965863Y-123621874D01*
X192628328Y-123018126D01*
X198725881Y-123018126D01*
X198852046Y-123193000D01*
X200243000Y-123193000D01*
X200243000Y-122185000D01*
X200497000Y-122185000D01*
X200497000Y-123193000D01*
X201887954Y-123193000D01*
X202014119Y-123018126D01*
X203155881Y-123018126D01*
X203282046Y-123193000D01*
X204423000Y-123193000D01*
X204423000Y-122185000D01*
X204123000Y-122185000D01*
X203904013Y-122231585D01*
X203698322Y-122319997D01*
X203513831Y-122446839D01*
X203357631Y-122607236D01*
X203235724Y-122795024D01*
X203155881Y-123018126D01*
X202014119Y-123018126D01*
X201934276Y-122795024D01*
X201812369Y-122607236D01*
X201656169Y-122446839D01*
X201471678Y-122319997D01*
X201265987Y-122231585D01*
X201047000Y-122185000D01*
X200497000Y-122185000D01*
X200243000Y-122185000D01*
X199693000Y-122185000D01*
X199474013Y-122231585D01*
X199268322Y-122319997D01*
X199083831Y-122446839D01*
X198927631Y-122607236D01*
X198805724Y-122795024D01*
X198725881Y-123018126D01*
X192628328Y-123018126D01*
X191127734Y-120334026D01*
X191116671Y-120317444D01*
X191099428Y-120299485D01*
X191079013Y-120285236D01*
X191056210Y-120275243D01*
X191031896Y-120269891D01*
X191007005Y-120269385D01*
X190982493Y-120273744D01*
X190959303Y-120282802D01*
X190938326Y-120296211D01*
X190920367Y-120313454D01*
X190906118Y-120333869D01*
X185563236Y-129858869D01*
X185556667Y-129872399D01*
X185549440Y-129896224D01*
X185547000Y-129921000D01*
X148782110Y-129921000D01*
X148816008Y-129809255D01*
X148833072Y-129636001D01*
X148833072Y-128935999D01*
X148816008Y-128762745D01*
X148765472Y-128596149D01*
X148683405Y-128442613D01*
X148572962Y-128308038D01*
X148438387Y-128197595D01*
X148433889Y-128195191D01*
X148472502Y-128163502D01*
X148626833Y-127975449D01*
X148741511Y-127760901D01*
X148812130Y-127528102D01*
X148835975Y-127286000D01*
X148812130Y-127043898D01*
X148741511Y-126811099D01*
X148626833Y-126596551D01*
X148472502Y-126408498D01*
X148323238Y-126286000D01*
X148472502Y-126163502D01*
X148626833Y-125975449D01*
X148741511Y-125760901D01*
X148812130Y-125528102D01*
X148835975Y-125286000D01*
X148812130Y-125043898D01*
X148771347Y-124909454D01*
X152181081Y-121499721D01*
X152210079Y-121475923D01*
X152305052Y-121360198D01*
X152375624Y-121228169D01*
X152419081Y-121084908D01*
X152430078Y-120973255D01*
X152430078Y-120973246D01*
X152433754Y-120935923D01*
X152430078Y-120898600D01*
X152430078Y-107969000D01*
X152501939Y-107969000D01*
X152701898Y-107929226D01*
X152804956Y-107886538D01*
X152861811Y-107943392D01*
X153867106Y-108948689D01*
X153867112Y-108948694D01*
X154057451Y-109139033D01*
X154081250Y-109168032D01*
X154110248Y-109191830D01*
X154196975Y-109263005D01*
X154329004Y-109333577D01*
X154472265Y-109377034D01*
X154621251Y-109391708D01*
X154658584Y-109388031D01*
X165522125Y-109388031D01*
X165456226Y-109432063D01*
X165312063Y-109576226D01*
X165198795Y-109745744D01*
X165120774Y-109934102D01*
X165081000Y-110134061D01*
X165081000Y-110337939D01*
X165120774Y-110537898D01*
X165198795Y-110726256D01*
X165312063Y-110895774D01*
X165456226Y-111039937D01*
X165625744Y-111153205D01*
X165814102Y-111231226D01*
X166014061Y-111271000D01*
X166076199Y-111271000D01*
X169742198Y-114937000D01*
X166057711Y-114937000D01*
X166013774Y-114893063D01*
X165844256Y-114779795D01*
X165655898Y-114701774D01*
X165455939Y-114662000D01*
X165252061Y-114662000D01*
X165052102Y-114701774D01*
X164863744Y-114779795D01*
X164694226Y-114893063D01*
X164550063Y-115037226D01*
X164436795Y-115206744D01*
X164358774Y-115395102D01*
X164319000Y-115595061D01*
X164319000Y-115798939D01*
X164358774Y-115998898D01*
X164436795Y-116187256D01*
X164550063Y-116356774D01*
X164694226Y-116500937D01*
X164863744Y-116614205D01*
X165052102Y-116692226D01*
X165252061Y-116732000D01*
X165455939Y-116732000D01*
X165655898Y-116692226D01*
X165844256Y-116614205D01*
X166013774Y-116500937D01*
X166057711Y-116457000D01*
X176584368Y-116457000D01*
X176550774Y-116538102D01*
X176511000Y-116738061D01*
X176511000Y-116941939D01*
X176550774Y-117141898D01*
X176628795Y-117330256D01*
X176742063Y-117499774D01*
X176886226Y-117643937D01*
X177055744Y-117757205D01*
X177244102Y-117835226D01*
X177444061Y-117875000D01*
X177647939Y-117875000D01*
X177847898Y-117835226D01*
X178036256Y-117757205D01*
X178205774Y-117643937D01*
X178349937Y-117499774D01*
X178463205Y-117330256D01*
X178541226Y-117141898D01*
X178581000Y-116941939D01*
X178581000Y-116907010D01*
X181053207Y-116907010D01*
X181079195Y-116932998D01*
X181102998Y-116962002D01*
X181218723Y-117056975D01*
X181350752Y-117127547D01*
X181494013Y-117171004D01*
X181605666Y-117182001D01*
X181605676Y-117182001D01*
X181642998Y-117185677D01*
X181680321Y-117182001D01*
X182301679Y-117182001D01*
X182339001Y-117185677D01*
X182376323Y-117182001D01*
X182376334Y-117182001D01*
X182487987Y-117171004D01*
X182631248Y-117127547D01*
X182763277Y-117056975D01*
X182879002Y-116962002D01*
X182902804Y-116932999D01*
X183251804Y-116584000D01*
X186621289Y-116584000D01*
X186665226Y-116627937D01*
X186834744Y-116741205D01*
X187023102Y-116819226D01*
X187223061Y-116859000D01*
X187426939Y-116859000D01*
X187626898Y-116819226D01*
X187815256Y-116741205D01*
X187984774Y-116627937D01*
X188128937Y-116483774D01*
X188242205Y-116314256D01*
X188320226Y-116125898D01*
X188360000Y-115925939D01*
X188360000Y-115722061D01*
X188320226Y-115522102D01*
X188242205Y-115333744D01*
X188128937Y-115164226D01*
X187984774Y-115020063D01*
X187927620Y-114981874D01*
X198725881Y-114981874D01*
X198805724Y-115204976D01*
X198927631Y-115392764D01*
X199083831Y-115553161D01*
X199268322Y-115680003D01*
X199474013Y-115768415D01*
X199693000Y-115815000D01*
X200243000Y-115815000D01*
X200243000Y-114807000D01*
X200497000Y-114807000D01*
X200497000Y-115815000D01*
X201047000Y-115815000D01*
X201265987Y-115768415D01*
X201471678Y-115680003D01*
X201656169Y-115553161D01*
X201812369Y-115392764D01*
X201934276Y-115204976D01*
X202014119Y-114981874D01*
X203155881Y-114981874D01*
X203235724Y-115204976D01*
X203357631Y-115392764D01*
X203513831Y-115553161D01*
X203698322Y-115680003D01*
X203904013Y-115768415D01*
X204123000Y-115815000D01*
X204423000Y-115815000D01*
X204423000Y-114807000D01*
X203282046Y-114807000D01*
X203155881Y-114981874D01*
X202014119Y-114981874D01*
X201887954Y-114807000D01*
X200497000Y-114807000D01*
X200243000Y-114807000D01*
X198852046Y-114807000D01*
X198725881Y-114981874D01*
X187927620Y-114981874D01*
X187815256Y-114906795D01*
X187626898Y-114828774D01*
X187426939Y-114789000D01*
X187223061Y-114789000D01*
X187023102Y-114828774D01*
X186834744Y-114906795D01*
X186665226Y-115020063D01*
X186621289Y-115064000D01*
X182974324Y-115064000D01*
X182937001Y-115060324D01*
X182899678Y-115064000D01*
X182899669Y-115064000D01*
X182818189Y-115072025D01*
X182794937Y-115037226D01*
X182650774Y-114893063D01*
X182481256Y-114779795D01*
X182292898Y-114701774D01*
X182092939Y-114662000D01*
X181889061Y-114662000D01*
X181689102Y-114701774D01*
X181500744Y-114779795D01*
X181331226Y-114893063D01*
X181287289Y-114937000D01*
X181137362Y-114937000D01*
X181187000Y-114687456D01*
X181187000Y-114420544D01*
X181134928Y-114158761D01*
X181032785Y-113912167D01*
X180969238Y-113817061D01*
X191370000Y-113817061D01*
X191370000Y-114020939D01*
X191409774Y-114220898D01*
X191487795Y-114409256D01*
X191601063Y-114578774D01*
X191745226Y-114722937D01*
X191914744Y-114836205D01*
X192103102Y-114914226D01*
X192303061Y-114954000D01*
X192506939Y-114954000D01*
X192706898Y-114914226D01*
X192895256Y-114836205D01*
X193064774Y-114722937D01*
X193108711Y-114679000D01*
X194526678Y-114679000D01*
X194564000Y-114682676D01*
X194601322Y-114679000D01*
X194601333Y-114679000D01*
X194712986Y-114668003D01*
X194856247Y-114624546D01*
X194988276Y-114553974D01*
X195104001Y-114459001D01*
X195127804Y-114429997D01*
X195179675Y-114378126D01*
X198725881Y-114378126D01*
X198852046Y-114553000D01*
X200243000Y-114553000D01*
X200243000Y-113545000D01*
X200497000Y-113545000D01*
X200497000Y-114553000D01*
X201887954Y-114553000D01*
X202014119Y-114378126D01*
X203155881Y-114378126D01*
X203282046Y-114553000D01*
X204423000Y-114553000D01*
X204423000Y-113545000D01*
X204123000Y-113545000D01*
X203904013Y-113591585D01*
X203698322Y-113679997D01*
X203513831Y-113806839D01*
X203357631Y-113967236D01*
X203235724Y-114155024D01*
X203155881Y-114378126D01*
X202014119Y-114378126D01*
X201934276Y-114155024D01*
X201812369Y-113967236D01*
X201656169Y-113806839D01*
X201471678Y-113679997D01*
X201265987Y-113591585D01*
X201047000Y-113545000D01*
X200497000Y-113545000D01*
X200243000Y-113545000D01*
X199693000Y-113545000D01*
X199474013Y-113591585D01*
X199268322Y-113679997D01*
X199083831Y-113806839D01*
X198927631Y-113967236D01*
X198805724Y-114155024D01*
X198725881Y-114378126D01*
X195179675Y-114378126D01*
X197291802Y-112266000D01*
X203058091Y-112266000D01*
X203140201Y-112388886D01*
X203333114Y-112581799D01*
X203559957Y-112733371D01*
X203812011Y-112837775D01*
X204079589Y-112891000D01*
X204352411Y-112891000D01*
X204619989Y-112837775D01*
X204872043Y-112733371D01*
X205098886Y-112581799D01*
X205291799Y-112388886D01*
X205443371Y-112162043D01*
X205547775Y-111909989D01*
X205601000Y-111642411D01*
X205601000Y-111369589D01*
X205547775Y-111102011D01*
X205443371Y-110849957D01*
X205291799Y-110623114D01*
X205098886Y-110430201D01*
X204872043Y-110278629D01*
X204619989Y-110174225D01*
X204352411Y-110121000D01*
X204079589Y-110121000D01*
X203812011Y-110174225D01*
X203559957Y-110278629D01*
X203333114Y-110430201D01*
X203140201Y-110623114D01*
X203058091Y-110746000D01*
X197014322Y-110746000D01*
X196976999Y-110742324D01*
X196939676Y-110746000D01*
X196939667Y-110746000D01*
X196828014Y-110756997D01*
X196684753Y-110800454D01*
X196552724Y-110871026D01*
X196436999Y-110965999D01*
X196413201Y-110994997D01*
X194249199Y-113159000D01*
X193108711Y-113159000D01*
X193064774Y-113115063D01*
X192895256Y-113001795D01*
X192706898Y-112923774D01*
X192506939Y-112884000D01*
X192303061Y-112884000D01*
X192103102Y-112923774D01*
X191914744Y-113001795D01*
X191745226Y-113115063D01*
X191601063Y-113259226D01*
X191487795Y-113428744D01*
X191409774Y-113617102D01*
X191370000Y-113817061D01*
X180969238Y-113817061D01*
X180884497Y-113690238D01*
X180695762Y-113501503D01*
X180473833Y-113353215D01*
X180227239Y-113251072D01*
X179965456Y-113199000D01*
X179698544Y-113199000D01*
X179436761Y-113251072D01*
X179190167Y-113353215D01*
X178968238Y-113501503D01*
X178779503Y-113690238D01*
X178631215Y-113912167D01*
X178529072Y-114158761D01*
X178477000Y-114420544D01*
X178477000Y-114687456D01*
X178526638Y-114937000D01*
X176057362Y-114937000D01*
X176107000Y-114687456D01*
X176107000Y-114420544D01*
X176054928Y-114158761D01*
X175952785Y-113912167D01*
X175804497Y-113690238D01*
X175615762Y-113501503D01*
X175393833Y-113353215D01*
X175147239Y-113251072D01*
X174885456Y-113199000D01*
X174618544Y-113199000D01*
X174356761Y-113251072D01*
X174110167Y-113353215D01*
X173888238Y-113501503D01*
X173699503Y-113690238D01*
X173630172Y-113794000D01*
X170748802Y-113794000D01*
X168835346Y-111880544D01*
X175937000Y-111880544D01*
X175937000Y-112147456D01*
X175989072Y-112409239D01*
X176091215Y-112655833D01*
X176239503Y-112877762D01*
X176428238Y-113066497D01*
X176650167Y-113214785D01*
X176896761Y-113316928D01*
X177158544Y-113369000D01*
X177425456Y-113369000D01*
X177687239Y-113316928D01*
X177933833Y-113214785D01*
X178155762Y-113066497D01*
X178344497Y-112877762D01*
X178492785Y-112655833D01*
X178594928Y-112409239D01*
X178647000Y-112147456D01*
X178647000Y-111880544D01*
X178594928Y-111618761D01*
X178492785Y-111372167D01*
X178344497Y-111150238D01*
X178155762Y-110961503D01*
X177933833Y-110813215D01*
X177687239Y-110711072D01*
X177425456Y-110659000D01*
X177158544Y-110659000D01*
X176896761Y-110711072D01*
X176650167Y-110813215D01*
X176428238Y-110961503D01*
X176239503Y-111150238D01*
X176091215Y-111372167D01*
X175989072Y-111618761D01*
X175937000Y-111880544D01*
X168835346Y-111880544D01*
X167151000Y-110196199D01*
X167151000Y-110134061D01*
X167111226Y-109934102D01*
X167033205Y-109745744D01*
X166919937Y-109576226D01*
X166775774Y-109432063D01*
X166709875Y-109388031D01*
X180703230Y-109388031D01*
X180829000Y-109513801D01*
X180829000Y-109575939D01*
X180868774Y-109775898D01*
X180946795Y-109964256D01*
X181060063Y-110133774D01*
X181204226Y-110277937D01*
X181373744Y-110391205D01*
X181562102Y-110469226D01*
X181762061Y-110509000D01*
X181965939Y-110509000D01*
X182165898Y-110469226D01*
X182354256Y-110391205D01*
X182523774Y-110277937D01*
X182667937Y-110133774D01*
X182781205Y-109964256D01*
X182859226Y-109775898D01*
X182899000Y-109575939D01*
X182899000Y-109372061D01*
X182859226Y-109172102D01*
X182781205Y-108983744D01*
X182750654Y-108938021D01*
X185389177Y-108938021D01*
X185380198Y-108947000D01*
X185318061Y-108947000D01*
X185118102Y-108986774D01*
X184929744Y-109064795D01*
X184760226Y-109178063D01*
X184616063Y-109322226D01*
X184502795Y-109491744D01*
X184424774Y-109680102D01*
X184385000Y-109880061D01*
X184385000Y-110083939D01*
X184424774Y-110283898D01*
X184502795Y-110472256D01*
X184594635Y-110609704D01*
X184493045Y-110761744D01*
X184415024Y-110950102D01*
X184375250Y-111150061D01*
X184375250Y-111353939D01*
X184415024Y-111553898D01*
X184493045Y-111742256D01*
X184606313Y-111911774D01*
X184750476Y-112055937D01*
X184919994Y-112169205D01*
X185108352Y-112247226D01*
X185308311Y-112287000D01*
X185512189Y-112287000D01*
X185712148Y-112247226D01*
X185900506Y-112169205D01*
X186070024Y-112055937D01*
X186214187Y-111911774D01*
X186327455Y-111742256D01*
X186405476Y-111553898D01*
X186445250Y-111353939D01*
X186445250Y-111291801D01*
X186600038Y-111137013D01*
X187291021Y-110446031D01*
X187888927Y-109848125D01*
X193519783Y-109848125D01*
X193557105Y-109851801D01*
X193594427Y-109848125D01*
X193594438Y-109848125D01*
X193706091Y-109837128D01*
X193849352Y-109793671D01*
X193981381Y-109723099D01*
X194097106Y-109628126D01*
X194120909Y-109599122D01*
X197296032Y-106424000D01*
X200599199Y-106424000D01*
X201112201Y-106937002D01*
X201135999Y-106966001D01*
X201251724Y-107060974D01*
X201383753Y-107131546D01*
X201527014Y-107175003D01*
X201638667Y-107186000D01*
X201638675Y-107186000D01*
X201676000Y-107189676D01*
X201713325Y-107186000D01*
X203058091Y-107186000D01*
X203140201Y-107308886D01*
X203333114Y-107501799D01*
X203559957Y-107653371D01*
X203812011Y-107757775D01*
X204079589Y-107811000D01*
X204352411Y-107811000D01*
X204619989Y-107757775D01*
X204872043Y-107653371D01*
X205098886Y-107501799D01*
X205291799Y-107308886D01*
X205443371Y-107082043D01*
X205547775Y-106829989D01*
X205601000Y-106562411D01*
X205601000Y-106289589D01*
X205547775Y-106022011D01*
X205443371Y-105769957D01*
X205291799Y-105543114D01*
X205098886Y-105350201D01*
X204872043Y-105198629D01*
X204769127Y-105156000D01*
X204872043Y-105113371D01*
X205098886Y-104961799D01*
X205291799Y-104768886D01*
X205443371Y-104542043D01*
X205547775Y-104289989D01*
X205601000Y-104022411D01*
X205601000Y-103749589D01*
X205547775Y-103482011D01*
X205443371Y-103229957D01*
X205291799Y-103003114D01*
X205098886Y-102810201D01*
X204872043Y-102658629D01*
X204619989Y-102554225D01*
X204352411Y-102501000D01*
X204079589Y-102501000D01*
X203812011Y-102554225D01*
X203559957Y-102658629D01*
X203333114Y-102810201D01*
X203140201Y-103003114D01*
X203058091Y-103126000D01*
X201713325Y-103126000D01*
X201676000Y-103122324D01*
X201638675Y-103126000D01*
X201638667Y-103126000D01*
X201527014Y-103136997D01*
X201383753Y-103180454D01*
X201251724Y-103251026D01*
X201135999Y-103345999D01*
X201112201Y-103374998D01*
X200597789Y-103889410D01*
X196885915Y-103889410D01*
X196848590Y-103885734D01*
X196811265Y-103889410D01*
X196811257Y-103889410D01*
X196699604Y-103900407D01*
X196556343Y-103943864D01*
X196424314Y-104014436D01*
X196308589Y-104109409D01*
X196284791Y-104138407D01*
X195388379Y-105034819D01*
X195367937Y-105004226D01*
X195223774Y-104860063D01*
X195054256Y-104746795D01*
X194865898Y-104668774D01*
X194665939Y-104629000D01*
X194462061Y-104629000D01*
X194262102Y-104668774D01*
X194073744Y-104746795D01*
X193904226Y-104860063D01*
X193760063Y-105004226D01*
X193646795Y-105173744D01*
X193568774Y-105362102D01*
X193529000Y-105562061D01*
X193529000Y-105624199D01*
X193355500Y-105797699D01*
X193355500Y-105351711D01*
X193399437Y-105307774D01*
X193512705Y-105138256D01*
X193590726Y-104949898D01*
X193630500Y-104749939D01*
X193630500Y-104546061D01*
X193590726Y-104346102D01*
X193512705Y-104157744D01*
X193399437Y-103988226D01*
X193255274Y-103844063D01*
X193085756Y-103730795D01*
X192897398Y-103652774D01*
X192697439Y-103613000D01*
X192493561Y-103613000D01*
X192403000Y-103631014D01*
X192403000Y-94906322D01*
X192406676Y-94868999D01*
X192403000Y-94831676D01*
X192403000Y-94831667D01*
X192392003Y-94720014D01*
X192348546Y-94576753D01*
X192334240Y-94549989D01*
X192277974Y-94444723D01*
X192206799Y-94357997D01*
X192183001Y-94328999D01*
X192154003Y-94305201D01*
X191535000Y-93686199D01*
X191535000Y-93624061D01*
X191495226Y-93424102D01*
X191417205Y-93235744D01*
X191303937Y-93066226D01*
X191159774Y-92922063D01*
X190990256Y-92808795D01*
X190801898Y-92730774D01*
X190601939Y-92691000D01*
X190398061Y-92691000D01*
X190198102Y-92730774D01*
X190009744Y-92808795D01*
X189840226Y-92922063D01*
X189696063Y-93066226D01*
X189582795Y-93235744D01*
X189504774Y-93424102D01*
X189465000Y-93624061D01*
X189465000Y-93827939D01*
X189504774Y-94027898D01*
X189582795Y-94216256D01*
X189696063Y-94385774D01*
X189840226Y-94529937D01*
X190009744Y-94643205D01*
X190198102Y-94721226D01*
X190398061Y-94761000D01*
X190460199Y-94761000D01*
X190883001Y-95183803D01*
X190883000Y-103190597D01*
X190860226Y-103076102D01*
X190782205Y-102887744D01*
X190668937Y-102718226D01*
X190524774Y-102574063D01*
X190355256Y-102460795D01*
X190166898Y-102382774D01*
X189966939Y-102343000D01*
X189763061Y-102343000D01*
X189563102Y-102382774D01*
X189374744Y-102460795D01*
X189205226Y-102574063D01*
X189061063Y-102718226D01*
X188947795Y-102887744D01*
X188869774Y-103076102D01*
X188830000Y-103276061D01*
X188830000Y-103479939D01*
X188869774Y-103679898D01*
X188947795Y-103868256D01*
X189061063Y-104037774D01*
X189105001Y-104081712D01*
X189105001Y-104460198D01*
X189042199Y-104523000D01*
X188409711Y-104523000D01*
X188365774Y-104479063D01*
X188196256Y-104365795D01*
X188007898Y-104287774D01*
X187807939Y-104248000D01*
X187604061Y-104248000D01*
X187404102Y-104287774D01*
X187215744Y-104365795D01*
X187046226Y-104479063D01*
X187002289Y-104523000D01*
X183194802Y-104523000D01*
X182835500Y-104163699D01*
X182835500Y-104101561D01*
X182795726Y-103901602D01*
X182717705Y-103713244D01*
X182604437Y-103543726D01*
X182460274Y-103399563D01*
X182290756Y-103286295D01*
X182102398Y-103208274D01*
X181902439Y-103168500D01*
X181698561Y-103168500D01*
X181498602Y-103208274D01*
X181310244Y-103286295D01*
X181140726Y-103399563D01*
X180996563Y-103543726D01*
X180883295Y-103713244D01*
X180805274Y-103901602D01*
X180765500Y-104101561D01*
X180765500Y-104305439D01*
X180805274Y-104505398D01*
X180834318Y-104575517D01*
X179887804Y-103629003D01*
X179864001Y-103599999D01*
X179748276Y-103505026D01*
X179616247Y-103434454D01*
X179472986Y-103390997D01*
X179361333Y-103380000D01*
X179361322Y-103380000D01*
X179324000Y-103376324D01*
X179286678Y-103380000D01*
X174947711Y-103380000D01*
X174903774Y-103336063D01*
X174734256Y-103222795D01*
X174545898Y-103144774D01*
X174345939Y-103105000D01*
X174142061Y-103105000D01*
X173942102Y-103144774D01*
X173753744Y-103222795D01*
X173584226Y-103336063D01*
X173440063Y-103480226D01*
X173326795Y-103649744D01*
X173248774Y-103838102D01*
X173209000Y-104038061D01*
X173209000Y-104241939D01*
X173248774Y-104441898D01*
X173326795Y-104630256D01*
X173440063Y-104799774D01*
X173584226Y-104943937D01*
X173753744Y-105057205D01*
X173942102Y-105135226D01*
X174142061Y-105175000D01*
X174345939Y-105175000D01*
X174545898Y-105135226D01*
X174734256Y-105057205D01*
X174903774Y-104943937D01*
X174947711Y-104900000D01*
X179009199Y-104900000D01*
X180627199Y-106518001D01*
X178204803Y-106518001D01*
X178073000Y-106386198D01*
X178073000Y-106324061D01*
X178033226Y-106124102D01*
X177955205Y-105935744D01*
X177841937Y-105766226D01*
X177697774Y-105622063D01*
X177528256Y-105508795D01*
X177339898Y-105430774D01*
X177139939Y-105391000D01*
X176936061Y-105391000D01*
X176736102Y-105430774D01*
X176547744Y-105508795D01*
X176378226Y-105622063D01*
X176234063Y-105766226D01*
X176120795Y-105935744D01*
X176042774Y-106124102D01*
X176003000Y-106324061D01*
X176003000Y-106527939D01*
X176042774Y-106727898D01*
X176120795Y-106916256D01*
X176155376Y-106968011D01*
X155308853Y-106968011D01*
X153762414Y-105421572D01*
X153803754Y-105449195D01*
X153992112Y-105527216D01*
X154192071Y-105566990D01*
X154395949Y-105566990D01*
X154595908Y-105527216D01*
X154784266Y-105449195D01*
X154953784Y-105335927D01*
X155097947Y-105191764D01*
X155211215Y-105022246D01*
X155289236Y-104833888D01*
X155329010Y-104633929D01*
X155329010Y-104430051D01*
X155289236Y-104230092D01*
X155211215Y-104041734D01*
X155097947Y-103872216D01*
X154953784Y-103728053D01*
X154784266Y-103614785D01*
X154595908Y-103536764D01*
X154395949Y-103496990D01*
X154192071Y-103496990D01*
X153992112Y-103536764D01*
X153829383Y-103604169D01*
X153903226Y-103425898D01*
X153943000Y-103225939D01*
X153943000Y-103022061D01*
X153903226Y-102822102D01*
X153825205Y-102633744D01*
X153711937Y-102464226D01*
X153567774Y-102320063D01*
X153398256Y-102206795D01*
X153209898Y-102128774D01*
X153009939Y-102089000D01*
X152947802Y-102089000D01*
X152356863Y-101498061D01*
X155429000Y-101498061D01*
X155429000Y-101701939D01*
X155468774Y-101901898D01*
X155546795Y-102090256D01*
X155660063Y-102259774D01*
X155804226Y-102403937D01*
X155973744Y-102517205D01*
X156162102Y-102595226D01*
X156362061Y-102635000D01*
X156565939Y-102635000D01*
X156765898Y-102595226D01*
X156954256Y-102517205D01*
X157123774Y-102403937D01*
X157267937Y-102259774D01*
X157381205Y-102090256D01*
X157459226Y-101901898D01*
X157499000Y-101701939D01*
X157499000Y-101639801D01*
X158036099Y-101102703D01*
X158044454Y-101130246D01*
X158115026Y-101262276D01*
X158181205Y-101342914D01*
X158210000Y-101378001D01*
X158238998Y-101401799D01*
X158477000Y-101639801D01*
X158477000Y-101701939D01*
X158516774Y-101901898D01*
X158594795Y-102090256D01*
X158708063Y-102259774D01*
X158852226Y-102403937D01*
X159021744Y-102517205D01*
X159210102Y-102595226D01*
X159410061Y-102635000D01*
X159613939Y-102635000D01*
X159813898Y-102595226D01*
X160002256Y-102517205D01*
X160171774Y-102403937D01*
X160315937Y-102259774D01*
X160429205Y-102090256D01*
X160507226Y-101901898D01*
X160547000Y-101701939D01*
X160547000Y-101498061D01*
X160507226Y-101298102D01*
X160429205Y-101109744D01*
X160315937Y-100940226D01*
X160171774Y-100796063D01*
X160002256Y-100682795D01*
X159813898Y-100604774D01*
X159613939Y-100565000D01*
X159551801Y-100565000D01*
X159510000Y-100523199D01*
X159510000Y-100308933D01*
X159627502Y-100212502D01*
X159781833Y-100024449D01*
X159896511Y-99809900D01*
X159967130Y-99577101D01*
X159985000Y-99395664D01*
X159985000Y-98724335D01*
X159967130Y-98542898D01*
X159934400Y-98434999D01*
X163099928Y-98434999D01*
X163099928Y-99685001D01*
X163116992Y-99858255D01*
X163167528Y-100024851D01*
X163249595Y-100178387D01*
X163360038Y-100312962D01*
X163494613Y-100423405D01*
X163648149Y-100505472D01*
X163814745Y-100556008D01*
X163987999Y-100573072D01*
X164688001Y-100573072D01*
X164861255Y-100556008D01*
X165027851Y-100505472D01*
X165181387Y-100423405D01*
X165315962Y-100312962D01*
X165426405Y-100178387D01*
X165428810Y-100173888D01*
X165460499Y-100212502D01*
X165648552Y-100366833D01*
X165863100Y-100481511D01*
X166095899Y-100552130D01*
X166338000Y-100575975D01*
X166580102Y-100552130D01*
X166812901Y-100481511D01*
X167027449Y-100366833D01*
X167215502Y-100212502D01*
X167369833Y-100024449D01*
X167484511Y-99809900D01*
X167555130Y-99577101D01*
X167573000Y-99395664D01*
X167573000Y-98724335D01*
X167555130Y-98542898D01*
X167484511Y-98310099D01*
X167369833Y-98095551D01*
X167215502Y-97907498D01*
X167027448Y-97753167D01*
X166812900Y-97638489D01*
X166580101Y-97567870D01*
X166338000Y-97544025D01*
X166095898Y-97567870D01*
X165863099Y-97638489D01*
X165648551Y-97753167D01*
X165460498Y-97907498D01*
X165428809Y-97946111D01*
X165426405Y-97941613D01*
X165315962Y-97807038D01*
X165181387Y-97696595D01*
X165027851Y-97614528D01*
X164861255Y-97563992D01*
X164688001Y-97546928D01*
X163987999Y-97546928D01*
X163814745Y-97563992D01*
X163648149Y-97614528D01*
X163494613Y-97696595D01*
X163360038Y-97807038D01*
X163249595Y-97941613D01*
X163167528Y-98095149D01*
X163116992Y-98261745D01*
X163099928Y-98434999D01*
X159934400Y-98434999D01*
X159896511Y-98310099D01*
X159781833Y-98095551D01*
X159627502Y-97907498D01*
X159439448Y-97753167D01*
X159224900Y-97638489D01*
X158992101Y-97567870D01*
X158750000Y-97544025D01*
X158507898Y-97567870D01*
X158435010Y-97589980D01*
X158435010Y-95736000D01*
X170691928Y-95736000D01*
X170691928Y-99336000D01*
X170704188Y-99460482D01*
X170740498Y-99580180D01*
X170799463Y-99690494D01*
X170878815Y-99787185D01*
X170975506Y-99866537D01*
X171085820Y-99925502D01*
X171205518Y-99961812D01*
X171330000Y-99974072D01*
X173930000Y-99974072D01*
X174054482Y-99961812D01*
X174174180Y-99925502D01*
X174284494Y-99866537D01*
X174381185Y-99787185D01*
X174460537Y-99690494D01*
X174519502Y-99580180D01*
X174555812Y-99460482D01*
X174568072Y-99336000D01*
X174568072Y-98296000D01*
X188145289Y-98296000D01*
X188189226Y-98339937D01*
X188358744Y-98453205D01*
X188547102Y-98531226D01*
X188747061Y-98571000D01*
X188950939Y-98571000D01*
X189150898Y-98531226D01*
X189339256Y-98453205D01*
X189508774Y-98339937D01*
X189652937Y-98195774D01*
X189766205Y-98026256D01*
X189844226Y-97837898D01*
X189884000Y-97637939D01*
X189884000Y-97434061D01*
X189844226Y-97234102D01*
X189766205Y-97045744D01*
X189652937Y-96876226D01*
X189508774Y-96732063D01*
X189339256Y-96618795D01*
X189150898Y-96540774D01*
X188950939Y-96501000D01*
X188747061Y-96501000D01*
X188547102Y-96540774D01*
X188358744Y-96618795D01*
X188189226Y-96732063D01*
X188145289Y-96776000D01*
X174568072Y-96776000D01*
X174568072Y-95736000D01*
X174555812Y-95611518D01*
X174519502Y-95491820D01*
X174460537Y-95381506D01*
X174381185Y-95284815D01*
X174284494Y-95205463D01*
X174174180Y-95146498D01*
X174054482Y-95110188D01*
X173930000Y-95097928D01*
X171330000Y-95097928D01*
X171205518Y-95110188D01*
X171085820Y-95146498D01*
X170975506Y-95205463D01*
X170878815Y-95284815D01*
X170799463Y-95381506D01*
X170740498Y-95491820D01*
X170704188Y-95611518D01*
X170691928Y-95736000D01*
X158435010Y-95736000D01*
X158435010Y-94607791D01*
X159229003Y-93813799D01*
X159258001Y-93790001D01*
X159352974Y-93674276D01*
X159423546Y-93542247D01*
X159467003Y-93398986D01*
X159478000Y-93287333D01*
X159481677Y-93250000D01*
X159478000Y-93212667D01*
X159478000Y-92688933D01*
X159595502Y-92592502D01*
X159749833Y-92404449D01*
X159864511Y-92189900D01*
X159935130Y-91957101D01*
X159953000Y-91775664D01*
X159953000Y-91104335D01*
X159935130Y-90922898D01*
X159902400Y-90814999D01*
X163099928Y-90814999D01*
X163099928Y-92065001D01*
X163116992Y-92238255D01*
X163167528Y-92404851D01*
X163249595Y-92558387D01*
X163360038Y-92692962D01*
X163494613Y-92803405D01*
X163648149Y-92885472D01*
X163814745Y-92936008D01*
X163987999Y-92953072D01*
X164688001Y-92953072D01*
X164861255Y-92936008D01*
X165027851Y-92885472D01*
X165181387Y-92803405D01*
X165315962Y-92692962D01*
X165426405Y-92558387D01*
X165428810Y-92553888D01*
X165460499Y-92592502D01*
X165648552Y-92746833D01*
X165863100Y-92861511D01*
X166095899Y-92932130D01*
X166338000Y-92955975D01*
X166580102Y-92932130D01*
X166812901Y-92861511D01*
X167027449Y-92746833D01*
X167215502Y-92592502D01*
X167369833Y-92404449D01*
X167484511Y-92189900D01*
X167555130Y-91957101D01*
X167573000Y-91775664D01*
X167573000Y-91104335D01*
X167555130Y-90922898D01*
X167484511Y-90690099D01*
X167369833Y-90475551D01*
X167215502Y-90287498D01*
X167027448Y-90133167D01*
X166812900Y-90018489D01*
X166580101Y-89947870D01*
X166338000Y-89924025D01*
X166095898Y-89947870D01*
X165863099Y-90018489D01*
X165648551Y-90133167D01*
X165460498Y-90287498D01*
X165428809Y-90326111D01*
X165426405Y-90321613D01*
X165315962Y-90187038D01*
X165181387Y-90076595D01*
X165027851Y-89994528D01*
X164861255Y-89943992D01*
X164688001Y-89926928D01*
X163987999Y-89926928D01*
X163814745Y-89943992D01*
X163648149Y-89994528D01*
X163494613Y-90076595D01*
X163360038Y-90187038D01*
X163249595Y-90321613D01*
X163167528Y-90475149D01*
X163116992Y-90641745D01*
X163099928Y-90814999D01*
X159902400Y-90814999D01*
X159864511Y-90690099D01*
X159749833Y-90475551D01*
X159595502Y-90287498D01*
X159407448Y-90133167D01*
X159192900Y-90018489D01*
X158960101Y-89947870D01*
X158718000Y-89924025D01*
X158475898Y-89947870D01*
X158243099Y-90018489D01*
X158028551Y-90133167D01*
X157840498Y-90287498D01*
X157808809Y-90326111D01*
X157806405Y-90321613D01*
X157695962Y-90187038D01*
X157561387Y-90076595D01*
X157407851Y-89994528D01*
X157241255Y-89943992D01*
X157068001Y-89926928D01*
X156367999Y-89926928D01*
X156194745Y-89943992D01*
X156028149Y-89994528D01*
X155874613Y-90076595D01*
X155740038Y-90187038D01*
X155629595Y-90321613D01*
X155547528Y-90475149D01*
X155496992Y-90641745D01*
X155479928Y-90814999D01*
X155479928Y-92065001D01*
X155496992Y-92238255D01*
X155547528Y-92404851D01*
X155629595Y-92558387D01*
X155740038Y-92692962D01*
X155874613Y-92803405D01*
X156028149Y-92885472D01*
X156194745Y-92936008D01*
X156367999Y-92953072D01*
X157068001Y-92953072D01*
X157241255Y-92936008D01*
X157407851Y-92885472D01*
X157561387Y-92803405D01*
X157695962Y-92692962D01*
X157806405Y-92558387D01*
X157808810Y-92553888D01*
X157840499Y-92592502D01*
X157958001Y-92688933D01*
X157958001Y-92935197D01*
X157164008Y-93729191D01*
X157135010Y-93752989D01*
X157111212Y-93781987D01*
X157111211Y-93781988D01*
X157040036Y-93868714D01*
X156969464Y-94000744D01*
X156958294Y-94037569D01*
X156926008Y-94144004D01*
X156916848Y-94237002D01*
X156911334Y-94292990D01*
X156915011Y-94330322D01*
X156915010Y-97546928D01*
X156399999Y-97546928D01*
X156226745Y-97563992D01*
X156060149Y-97614528D01*
X155906613Y-97696595D01*
X155772038Y-97807038D01*
X155661595Y-97941613D01*
X155579528Y-98095149D01*
X155528992Y-98261745D01*
X155511928Y-98434999D01*
X155511928Y-99685001D01*
X155528992Y-99858255D01*
X155579528Y-100024851D01*
X155661595Y-100178387D01*
X155772038Y-100312962D01*
X155906613Y-100423405D01*
X156060149Y-100505472D01*
X156226745Y-100556008D01*
X156347483Y-100567900D01*
X156162102Y-100604774D01*
X155973744Y-100682795D01*
X155804226Y-100796063D01*
X155660063Y-100940226D01*
X155546795Y-101109744D01*
X155468774Y-101298102D01*
X155429000Y-101498061D01*
X152356863Y-101498061D01*
X151970030Y-101111229D01*
X151970028Y-89140131D01*
X151973705Y-89102798D01*
X151959031Y-88953812D01*
X151915574Y-88810552D01*
X151845002Y-88678522D01*
X151773828Y-88591795D01*
X151773818Y-88591785D01*
X151750029Y-88562798D01*
X151721041Y-88539009D01*
X149565011Y-86382982D01*
X149541209Y-86353979D01*
X149425484Y-86259006D01*
X149293455Y-86188434D01*
X149150194Y-86144977D01*
X149038541Y-86133980D01*
X149038530Y-86133980D01*
X149001208Y-86130304D01*
X148963885Y-86133980D01*
X132477784Y-86133980D01*
X131721805Y-85378001D01*
X131698002Y-85348998D01*
X131582277Y-85254025D01*
X131450248Y-85183453D01*
X131306987Y-85139996D01*
X131195334Y-85128999D01*
X131195323Y-85128999D01*
X131158001Y-85125323D01*
X131120679Y-85128999D01*
X128270323Y-85128999D01*
X128233000Y-85125323D01*
X128195677Y-85128999D01*
X128195668Y-85128999D01*
X128084015Y-85139996D01*
X127940754Y-85183453D01*
X127808725Y-85254025D01*
X127693000Y-85348998D01*
X127669202Y-85377996D01*
X125981003Y-87066196D01*
X125951999Y-87089999D01*
X125899474Y-87154001D01*
X125857026Y-87205724D01*
X125786455Y-87337753D01*
X125786454Y-87337754D01*
X125742997Y-87481015D01*
X125732000Y-87592668D01*
X125732000Y-87592678D01*
X125728324Y-87630000D01*
X125732000Y-87667323D01*
X125732001Y-90151000D01*
X125628061Y-90151000D01*
X125428102Y-90190774D01*
X125239744Y-90268795D01*
X125070226Y-90382063D01*
X124968000Y-90484289D01*
X124865774Y-90382063D01*
X124696256Y-90268795D01*
X124507898Y-90190774D01*
X124307939Y-90151000D01*
X124104061Y-90151000D01*
X123904102Y-90190774D01*
X123715744Y-90268795D01*
X123546226Y-90382063D01*
X123444000Y-90484289D01*
X123341774Y-90382063D01*
X123172256Y-90268795D01*
X122983898Y-90190774D01*
X122783939Y-90151000D01*
X122580061Y-90151000D01*
X122380102Y-90190774D01*
X122191744Y-90268795D01*
X122022226Y-90382063D01*
X121920000Y-90484289D01*
X121817774Y-90382063D01*
X121648256Y-90268795D01*
X121459898Y-90190774D01*
X121259939Y-90151000D01*
X121056061Y-90151000D01*
X120856102Y-90190774D01*
X120667744Y-90268795D01*
X120498226Y-90382063D01*
X120396000Y-90484289D01*
X120293774Y-90382063D01*
X120124256Y-90268795D01*
X119935898Y-90190774D01*
X119735939Y-90151000D01*
X119532061Y-90151000D01*
X119332102Y-90190774D01*
X119143744Y-90268795D01*
X118974226Y-90382063D01*
X118830063Y-90526226D01*
X118745000Y-90653532D01*
X118659937Y-90526226D01*
X118515774Y-90382063D01*
X118346256Y-90268795D01*
X118157898Y-90190774D01*
X117957939Y-90151000D01*
X117754061Y-90151000D01*
X117554102Y-90190774D01*
X117365744Y-90268795D01*
X117196226Y-90382063D01*
X117052063Y-90526226D01*
X116938795Y-90695744D01*
X116860774Y-90884102D01*
X116821000Y-91084061D01*
X116821000Y-91287939D01*
X116860774Y-91487898D01*
X116938795Y-91676256D01*
X117052063Y-91845774D01*
X117096000Y-91889711D01*
X117096000Y-92031885D01*
X117092324Y-92069207D01*
X117096000Y-92106529D01*
X117096000Y-92106540D01*
X117106998Y-92218193D01*
X117117246Y-92251978D01*
X117150454Y-92361453D01*
X117221026Y-92493483D01*
X117274292Y-92558387D01*
X117316000Y-92609208D01*
X117344998Y-92633006D01*
X117895994Y-93184003D01*
X117919793Y-93213002D01*
X118035518Y-93307975D01*
X118167547Y-93378547D01*
X118310808Y-93422004D01*
X118422461Y-93433001D01*
X118422469Y-93433001D01*
X118459794Y-93436677D01*
X118463672Y-93436295D01*
X119245961Y-94218585D01*
X119227939Y-94215000D01*
X119024061Y-94215000D01*
X118824102Y-94254774D01*
X118635744Y-94332795D01*
X118466226Y-94446063D01*
X118322063Y-94590226D01*
X118208795Y-94759744D01*
X118130774Y-94948102D01*
X118091000Y-95148061D01*
X118091000Y-95201105D01*
X117972243Y-95250296D01*
X117802725Y-95363564D01*
X117658562Y-95507727D01*
X117545294Y-95677245D01*
X117467273Y-95865603D01*
X117427499Y-96065562D01*
X117427499Y-96269440D01*
X117467273Y-96469399D01*
X117545294Y-96657757D01*
X117604308Y-96746078D01*
X117573795Y-96791744D01*
X117495774Y-96980102D01*
X117456000Y-97180061D01*
X117456000Y-97383939D01*
X117483807Y-97523737D01*
X117449939Y-97517000D01*
X117246061Y-97517000D01*
X117046102Y-97556774D01*
X116857744Y-97634795D01*
X116688226Y-97748063D01*
X116544063Y-97892226D01*
X116430795Y-98061744D01*
X116352774Y-98250102D01*
X116313000Y-98450061D01*
X116313000Y-98653939D01*
X116352774Y-98853898D01*
X116430795Y-99042256D01*
X116544063Y-99211774D01*
X116688226Y-99355937D01*
X116857744Y-99469205D01*
X116982214Y-99520763D01*
X116938795Y-99585744D01*
X116860774Y-99774102D01*
X116821000Y-99974061D01*
X116821000Y-100177939D01*
X116823928Y-100192661D01*
X116702476Y-100273813D01*
X116558313Y-100417976D01*
X116445045Y-100587494D01*
X116367024Y-100775852D01*
X116327250Y-100975811D01*
X116327250Y-101179689D01*
X116367024Y-101379648D01*
X116445045Y-101568006D01*
X116558313Y-101737524D01*
X116702476Y-101881687D01*
X116871994Y-101994955D01*
X117060352Y-102072976D01*
X117087870Y-102078450D01*
X117087871Y-105063217D01*
X116819945Y-105331144D01*
X116695484Y-105206683D01*
X116741205Y-105138256D01*
X116819226Y-104949898D01*
X116859000Y-104749939D01*
X116859000Y-104546061D01*
X116819226Y-104346102D01*
X116741205Y-104157744D01*
X116627937Y-103988226D01*
X116483774Y-103844063D01*
X116314256Y-103730795D01*
X116125898Y-103652774D01*
X115925939Y-103613000D01*
X115722061Y-103613000D01*
X115522102Y-103652774D01*
X115333744Y-103730795D01*
X115164226Y-103844063D01*
X115020063Y-103988226D01*
X114906795Y-104157744D01*
X114828774Y-104346102D01*
X114789000Y-104546061D01*
X114789000Y-104749939D01*
X114828774Y-104949898D01*
X114906795Y-105138256D01*
X115020063Y-105307774D01*
X115064000Y-105351711D01*
X115064000Y-105372678D01*
X115060324Y-105410000D01*
X115064000Y-105447322D01*
X115064000Y-105447333D01*
X115074997Y-105558986D01*
X115097146Y-105632000D01*
X115118454Y-105702246D01*
X115189026Y-105834276D01*
X115260201Y-105921002D01*
X115284000Y-105950001D01*
X115312998Y-105973799D01*
X115863935Y-106524737D01*
X115863936Y-107851262D01*
X115730198Y-107985000D01*
X115234335Y-107985000D01*
X115052898Y-108002870D01*
X114820099Y-108073489D01*
X114605551Y-108188167D01*
X114417498Y-108342498D01*
X114263167Y-108530551D01*
X114148489Y-108745099D01*
X114077870Y-108977898D01*
X114054025Y-109220000D01*
X107160000Y-109220000D01*
X107160000Y-89008074D01*
X107299238Y-89216458D01*
X107783542Y-89700762D01*
X108353023Y-90081278D01*
X108985796Y-90343381D01*
X109657545Y-90477000D01*
X110342455Y-90477000D01*
X111014204Y-90343381D01*
X111646977Y-90081278D01*
X112216458Y-89700762D01*
X112700762Y-89216458D01*
X113081278Y-88646977D01*
X113343381Y-88014204D01*
X113477000Y-87342455D01*
X113477000Y-86657545D01*
X113343381Y-85985796D01*
X113081278Y-85353023D01*
X112700762Y-84783542D01*
X112216458Y-84299238D01*
X112008074Y-84160000D01*
X200991926Y-84160000D01*
X200783542Y-84299238D01*
G37*
X200783542Y-84299238D02*
X200299238Y-84783542D01*
X199918722Y-85353023D01*
X199656619Y-85985796D01*
X199523000Y-86657545D01*
X199523000Y-87342455D01*
X199656619Y-88014204D01*
X199918722Y-88646977D01*
X200299238Y-89216458D01*
X200783542Y-89700762D01*
X201353023Y-90081278D01*
X201985796Y-90343381D01*
X202657545Y-90477000D01*
X203342455Y-90477000D01*
X204014204Y-90343381D01*
X204646977Y-90081278D01*
X205216458Y-89700762D01*
X205700762Y-89216458D01*
X205840001Y-89008073D01*
X205840000Y-114117629D01*
X205742369Y-113967236D01*
X205586169Y-113806839D01*
X205401678Y-113679997D01*
X205195987Y-113591585D01*
X204977000Y-113545000D01*
X204677000Y-113545000D01*
X204677000Y-114553000D01*
X204697000Y-114553000D01*
X204697000Y-114807000D01*
X204677000Y-114807000D01*
X204677000Y-115815000D01*
X204977000Y-115815000D01*
X205195987Y-115768415D01*
X205401678Y-115680003D01*
X205586169Y-115553161D01*
X205742369Y-115392764D01*
X205840000Y-115242371D01*
X205840000Y-122757629D01*
X205742369Y-122607236D01*
X205586169Y-122446839D01*
X205401678Y-122319997D01*
X205195987Y-122231585D01*
X204977000Y-122185000D01*
X204677000Y-122185000D01*
X204677000Y-123193000D01*
X204697000Y-123193000D01*
X204697000Y-123447000D01*
X204677000Y-123447000D01*
X204677000Y-124455000D01*
X204977000Y-124455000D01*
X205195987Y-124408415D01*
X205401678Y-124320003D01*
X205586169Y-124193161D01*
X205742369Y-124032764D01*
X205840000Y-123882371D01*
X205840000Y-127991926D01*
X205700762Y-127783542D01*
X205216458Y-127299238D01*
X204646977Y-126918722D01*
X204014204Y-126656619D01*
X203342455Y-126523000D01*
X202657545Y-126523000D01*
X201985796Y-126656619D01*
X201353023Y-126918722D01*
X200783542Y-127299238D01*
X200299238Y-127783542D01*
X199918722Y-128353023D01*
X199656619Y-128985796D01*
X199523000Y-129657545D01*
X199523000Y-130342455D01*
X199656619Y-131014204D01*
X199918722Y-131646977D01*
X200299238Y-132216458D01*
X200783542Y-132700762D01*
X200991926Y-132840000D01*
X112008074Y-132840000D01*
X112216458Y-132700762D01*
X112700762Y-132216458D01*
X113081278Y-131646977D01*
X113343381Y-131014204D01*
X113477000Y-130342455D01*
X113477000Y-129657545D01*
X113343381Y-128985796D01*
X113081278Y-128353023D01*
X112700762Y-127783542D01*
X112216458Y-127299238D01*
X111646977Y-126918722D01*
X111014204Y-126656619D01*
X110342455Y-126523000D01*
X109657545Y-126523000D01*
X108985796Y-126656619D01*
X108353023Y-126918722D01*
X107783542Y-127299238D01*
X107299238Y-127783542D01*
X107160000Y-127991926D01*
X107160000Y-109220000D01*
X114054025Y-109220000D01*
X114077870Y-109462102D01*
X114148489Y-109694901D01*
X114263167Y-109909449D01*
X114417498Y-110097502D01*
X114566762Y-110220000D01*
X114417498Y-110342498D01*
X114263167Y-110530551D01*
X114148489Y-110745099D01*
X114077870Y-110977898D01*
X114054025Y-111220000D01*
X114077870Y-111462102D01*
X114148489Y-111694901D01*
X114263167Y-111909449D01*
X114417498Y-112097502D01*
X114566762Y-112220000D01*
X114417498Y-112342498D01*
X114263167Y-112530551D01*
X114148489Y-112745099D01*
X114077870Y-112977898D01*
X114054025Y-113220000D01*
X114077870Y-113462102D01*
X114148489Y-113694901D01*
X114263167Y-113909449D01*
X114417498Y-114097502D01*
X114566762Y-114220000D01*
X114417498Y-114342498D01*
X114263167Y-114530551D01*
X114148489Y-114745099D01*
X114077870Y-114977898D01*
X114054025Y-115220000D01*
X114077870Y-115462102D01*
X114148489Y-115694901D01*
X114263167Y-115909449D01*
X114417498Y-116097502D01*
X114566762Y-116220000D01*
X114417498Y-116342498D01*
X114263167Y-116530551D01*
X114148489Y-116745099D01*
X114077870Y-116977898D01*
X114054025Y-117220000D01*
X114077870Y-117462102D01*
X114148489Y-117694901D01*
X114263167Y-117909449D01*
X114417498Y-118097502D01*
X114566762Y-118220000D01*
X114417498Y-118342498D01*
X114263167Y-118530551D01*
X114148489Y-118745099D01*
X114077870Y-118977898D01*
X114054025Y-119220000D01*
X114077870Y-119462102D01*
X114148489Y-119694901D01*
X114263167Y-119909449D01*
X114417498Y-120097502D01*
X114566762Y-120220000D01*
X114417498Y-120342498D01*
X114263167Y-120530551D01*
X114148489Y-120745099D01*
X114077870Y-120977898D01*
X114054025Y-121220000D01*
X114077870Y-121462102D01*
X114148489Y-121694901D01*
X114263167Y-121909449D01*
X114417498Y-122097502D01*
X114566762Y-122220000D01*
X114417498Y-122342498D01*
X114263167Y-122530551D01*
X114148489Y-122745099D01*
X114077870Y-122977898D01*
X114054025Y-123220000D01*
X114077870Y-123462102D01*
X114148489Y-123694901D01*
X114263167Y-123909449D01*
X114417498Y-124097502D01*
X114566762Y-124220000D01*
X114417498Y-124342498D01*
X114263167Y-124530551D01*
X114148489Y-124745099D01*
X114077870Y-124977898D01*
X114054025Y-125220000D01*
X114077870Y-125462102D01*
X114148489Y-125694901D01*
X114263167Y-125909449D01*
X114417498Y-126097502D01*
X114566762Y-126220000D01*
X114417498Y-126342498D01*
X114263167Y-126530551D01*
X114148489Y-126745099D01*
X114077870Y-126977898D01*
X114054025Y-127220000D01*
X114077870Y-127462102D01*
X114148489Y-127694901D01*
X114263167Y-127909449D01*
X114417498Y-128097502D01*
X114456111Y-128129191D01*
X114451613Y-128131595D01*
X114317038Y-128242038D01*
X114206595Y-128376613D01*
X114124528Y-128530149D01*
X114073992Y-128696745D01*
X114056928Y-128869999D01*
X114056928Y-129570001D01*
X114073992Y-129743255D01*
X114124528Y-129909851D01*
X114206595Y-130063387D01*
X114317038Y-130197962D01*
X114451613Y-130308405D01*
X114605149Y-130390472D01*
X114771745Y-130441008D01*
X114944999Y-130458072D01*
X116195001Y-130458072D01*
X116368255Y-130441008D01*
X116534851Y-130390472D01*
X116688387Y-130308405D01*
X116822962Y-130197962D01*
X116933405Y-130063387D01*
X117015472Y-129909851D01*
X117066008Y-129743255D01*
X117083072Y-129570001D01*
X117083072Y-128869999D01*
X117066008Y-128696745D01*
X117015472Y-128530149D01*
X116933405Y-128376613D01*
X116822962Y-128242038D01*
X116688387Y-128131595D01*
X116683889Y-128129191D01*
X116722502Y-128097502D01*
X116876833Y-127909449D01*
X116991511Y-127694901D01*
X117062130Y-127462102D01*
X117085975Y-127220000D01*
X117062130Y-126977898D01*
X116991511Y-126745099D01*
X116876833Y-126530551D01*
X116722502Y-126342498D01*
X116573238Y-126220000D01*
X116722502Y-126097502D01*
X116876833Y-125909449D01*
X116991511Y-125694901D01*
X117062130Y-125462102D01*
X117085975Y-125220000D01*
X117062130Y-124977898D01*
X117021347Y-124843454D01*
X119925951Y-121938851D01*
X119925951Y-126014617D01*
X119922274Y-126051950D01*
X119936948Y-126200935D01*
X119980404Y-126344196D01*
X120050976Y-126476226D01*
X120089363Y-126523000D01*
X120145950Y-126591951D01*
X120174948Y-126615749D01*
X120468653Y-126909454D01*
X120427870Y-127043898D01*
X120404025Y-127286000D01*
X120427870Y-127528102D01*
X120498489Y-127760901D01*
X120613167Y-127975449D01*
X120767498Y-128163502D01*
X120806111Y-128195191D01*
X120801613Y-128197595D01*
X120667038Y-128308038D01*
X120556595Y-128442613D01*
X120474528Y-128596149D01*
X120423992Y-128762745D01*
X120406928Y-128935999D01*
X120406928Y-129636001D01*
X120423992Y-129809255D01*
X120474528Y-129975851D01*
X120556595Y-130129387D01*
X120667038Y-130263962D01*
X120801613Y-130374405D01*
X120955149Y-130456472D01*
X121121745Y-130507008D01*
X121294999Y-130524072D01*
X122545001Y-130524072D01*
X122718255Y-130507008D01*
X122884851Y-130456472D01*
X123038387Y-130374405D01*
X123172962Y-130263962D01*
X123283405Y-130129387D01*
X123365472Y-129975851D01*
X123416008Y-129809255D01*
X123433072Y-129636001D01*
X123433072Y-128935999D01*
X123416008Y-128762745D01*
X123365472Y-128596149D01*
X123283405Y-128442613D01*
X123172962Y-128308038D01*
X123038387Y-128197595D01*
X123033889Y-128195191D01*
X123072502Y-128163502D01*
X123226833Y-127975449D01*
X123341511Y-127760901D01*
X123412130Y-127528102D01*
X123435975Y-127286000D01*
X123412130Y-127043898D01*
X123341511Y-126811099D01*
X123226833Y-126596551D01*
X123072502Y-126408498D01*
X122923238Y-126286000D01*
X123072502Y-126163502D01*
X123226833Y-125975449D01*
X123341511Y-125760901D01*
X123412130Y-125528102D01*
X123435975Y-125286000D01*
X123412130Y-125043898D01*
X123356451Y-124860350D01*
X126769875Y-121446928D01*
X126777870Y-121528102D01*
X126848489Y-121760901D01*
X126963167Y-121975449D01*
X127117498Y-122163502D01*
X127266762Y-122286000D01*
X127117498Y-122408498D01*
X126963167Y-122596551D01*
X126848489Y-122811099D01*
X126777870Y-123043898D01*
X126754025Y-123286000D01*
X126777870Y-123528102D01*
X126848489Y-123760901D01*
X126963167Y-123975449D01*
X127117498Y-124163502D01*
X127266762Y-124286000D01*
X127117498Y-124408498D01*
X126963167Y-124596551D01*
X126848489Y-124811099D01*
X126777870Y-125043898D01*
X126754025Y-125286000D01*
X126777870Y-125528102D01*
X126848489Y-125760901D01*
X126963167Y-125975449D01*
X127117498Y-126163502D01*
X127266762Y-126286000D01*
X127117498Y-126408498D01*
X126963167Y-126596551D01*
X126848489Y-126811099D01*
X126777870Y-127043898D01*
X126754025Y-127286000D01*
X126777870Y-127528102D01*
X126848489Y-127760901D01*
X126963167Y-127975449D01*
X127117498Y-128163502D01*
X127156111Y-128195191D01*
X127151613Y-128197595D01*
X127017038Y-128308038D01*
X126906595Y-128442613D01*
X126824528Y-128596149D01*
X126773992Y-128762745D01*
X126756928Y-128935999D01*
X126756928Y-129636001D01*
X126773992Y-129809255D01*
X126824528Y-129975851D01*
X126906595Y-130129387D01*
X127017038Y-130263962D01*
X127151613Y-130374405D01*
X127305149Y-130456472D01*
X127471745Y-130507008D01*
X127644999Y-130524072D01*
X128895001Y-130524072D01*
X129068255Y-130507008D01*
X129234851Y-130456472D01*
X129388387Y-130374405D01*
X129522962Y-130263962D01*
X129633405Y-130129387D01*
X129715472Y-129975851D01*
X129766008Y-129809255D01*
X129783072Y-129636001D01*
X129783072Y-128935999D01*
X129766008Y-128762745D01*
X129715472Y-128596149D01*
X129633405Y-128442613D01*
X129522962Y-128308038D01*
X129388387Y-128197595D01*
X129383889Y-128195191D01*
X129422502Y-128163502D01*
X129576833Y-127975449D01*
X129691511Y-127760901D01*
X129762130Y-127528102D01*
X129785975Y-127286000D01*
X129762130Y-127043898D01*
X129691511Y-126811099D01*
X129576833Y-126596551D01*
X129422502Y-126408498D01*
X129273238Y-126286000D01*
X129422502Y-126163502D01*
X129576833Y-125975449D01*
X129691511Y-125760901D01*
X129762130Y-125528102D01*
X129785975Y-125286000D01*
X129762130Y-125043898D01*
X129691511Y-124811099D01*
X129576833Y-124596551D01*
X129422502Y-124408498D01*
X129273238Y-124286000D01*
X129422502Y-124163502D01*
X129576833Y-123975449D01*
X129691511Y-123760901D01*
X129762130Y-123528102D01*
X129785975Y-123286000D01*
X129762130Y-123043898D01*
X129691511Y-122811099D01*
X129576833Y-122596551D01*
X129422502Y-122408498D01*
X129273238Y-122286000D01*
X129422502Y-122163502D01*
X129576833Y-121975449D01*
X129691511Y-121760901D01*
X129762130Y-121528102D01*
X129785975Y-121286000D01*
X129762130Y-121043898D01*
X129691511Y-120811099D01*
X129576833Y-120596551D01*
X129422502Y-120408498D01*
X129273238Y-120286000D01*
X129422502Y-120163502D01*
X129576833Y-119975449D01*
X129691511Y-119760901D01*
X129762130Y-119528102D01*
X129785975Y-119286000D01*
X129762130Y-119043898D01*
X129691511Y-118811099D01*
X129576833Y-118596551D01*
X129422502Y-118408498D01*
X129273238Y-118286000D01*
X129422502Y-118163502D01*
X129576833Y-117975449D01*
X129691511Y-117760901D01*
X129762130Y-117528102D01*
X129785975Y-117286000D01*
X129762130Y-117043898D01*
X129721347Y-116909454D01*
X132416030Y-114214772D01*
X132416030Y-115804707D01*
X132412354Y-115842030D01*
X132416030Y-115879352D01*
X132416030Y-115879362D01*
X132427027Y-115991015D01*
X132450644Y-116068870D01*
X132470484Y-116134276D01*
X132541056Y-116266306D01*
X132578298Y-116311685D01*
X132636029Y-116382031D01*
X132665033Y-116405834D01*
X133168653Y-116909454D01*
X133127870Y-117043898D01*
X133104025Y-117286000D01*
X133127870Y-117528102D01*
X133198489Y-117760901D01*
X133313167Y-117975449D01*
X133467498Y-118163502D01*
X133616762Y-118286000D01*
X133467498Y-118408498D01*
X133313167Y-118596551D01*
X133198489Y-118811099D01*
X133127870Y-119043898D01*
X133104025Y-119286000D01*
X133127870Y-119528102D01*
X133198489Y-119760901D01*
X133313167Y-119975449D01*
X133467498Y-120163502D01*
X133616762Y-120286000D01*
X133467498Y-120408498D01*
X133313167Y-120596551D01*
X133198489Y-120811099D01*
X133127870Y-121043898D01*
X133104025Y-121286000D01*
X133127870Y-121528102D01*
X133198489Y-121760901D01*
X133313167Y-121975449D01*
X133467498Y-122163502D01*
X133616762Y-122286000D01*
X133467498Y-122408498D01*
X133313167Y-122596551D01*
X133198489Y-122811099D01*
X133127870Y-123043898D01*
X133104025Y-123286000D01*
X133127870Y-123528102D01*
X133198489Y-123760901D01*
X133313167Y-123975449D01*
X133467498Y-124163502D01*
X133616762Y-124286000D01*
X133467498Y-124408498D01*
X133313167Y-124596551D01*
X133198489Y-124811099D01*
X133127870Y-125043898D01*
X133104025Y-125286000D01*
X133127870Y-125528102D01*
X133198489Y-125760901D01*
X133313167Y-125975449D01*
X133467498Y-126163502D01*
X133616762Y-126286000D01*
X133467498Y-126408498D01*
X133313167Y-126596551D01*
X133198489Y-126811099D01*
X133127870Y-127043898D01*
X133104025Y-127286000D01*
X133127870Y-127528102D01*
X133198489Y-127760901D01*
X133313167Y-127975449D01*
X133467498Y-128163502D01*
X133506111Y-128195191D01*
X133501613Y-128197595D01*
X133367038Y-128308038D01*
X133256595Y-128442613D01*
X133174528Y-128596149D01*
X133123992Y-128762745D01*
X133106928Y-128935999D01*
X133106928Y-129636001D01*
X133123992Y-129809255D01*
X133174528Y-129975851D01*
X133256595Y-130129387D01*
X133367038Y-130263962D01*
X133501613Y-130374405D01*
X133655149Y-130456472D01*
X133821745Y-130507008D01*
X133994999Y-130524072D01*
X135245001Y-130524072D01*
X135418255Y-130507008D01*
X135584851Y-130456472D01*
X135738387Y-130374405D01*
X135872962Y-130263962D01*
X135983405Y-130129387D01*
X136065472Y-129975851D01*
X136116008Y-129809255D01*
X136133072Y-129636001D01*
X136133072Y-128935999D01*
X136116008Y-128762745D01*
X136065472Y-128596149D01*
X135983405Y-128442613D01*
X135872962Y-128308038D01*
X135738387Y-128197595D01*
X135733889Y-128195191D01*
X135772502Y-128163502D01*
X135926833Y-127975449D01*
X136041511Y-127760901D01*
X136112130Y-127528102D01*
X136135975Y-127286000D01*
X136112130Y-127043898D01*
X136041511Y-126811099D01*
X135926833Y-126596551D01*
X135772502Y-126408498D01*
X135623238Y-126286000D01*
X135772502Y-126163502D01*
X135926833Y-125975449D01*
X136041511Y-125760901D01*
X136112130Y-125528102D01*
X136135975Y-125286000D01*
X136112130Y-125043898D01*
X136041511Y-124811099D01*
X135926833Y-124596551D01*
X135772502Y-124408498D01*
X135623238Y-124286000D01*
X135772502Y-124163502D01*
X135926833Y-123975449D01*
X136041511Y-123760901D01*
X136112130Y-123528102D01*
X136135975Y-123286000D01*
X136112130Y-123043898D01*
X136041511Y-122811099D01*
X135926833Y-122596551D01*
X135772502Y-122408498D01*
X135623238Y-122286000D01*
X135772502Y-122163502D01*
X135926833Y-121975449D01*
X136041511Y-121760901D01*
X136112130Y-121528102D01*
X136135975Y-121286000D01*
X136112130Y-121043898D01*
X136041511Y-120811099D01*
X135926833Y-120596551D01*
X135772502Y-120408498D01*
X135623238Y-120286000D01*
X135772502Y-120163502D01*
X135926833Y-119975449D01*
X136041511Y-119760901D01*
X136112130Y-119528102D01*
X136135975Y-119286000D01*
X136112130Y-119043898D01*
X136041511Y-118811099D01*
X135926833Y-118596551D01*
X135772502Y-118408498D01*
X135623238Y-118286000D01*
X135772502Y-118163502D01*
X135926833Y-117975449D01*
X136041511Y-117760901D01*
X136112130Y-117528102D01*
X136135975Y-117286000D01*
X136112130Y-117043898D01*
X136041511Y-116811099D01*
X135926833Y-116596551D01*
X135772502Y-116408498D01*
X135623238Y-116286000D01*
X135772502Y-116163502D01*
X135926833Y-115975449D01*
X136041511Y-115760901D01*
X136112130Y-115528102D01*
X136135975Y-115286000D01*
X136112130Y-115043898D01*
X136071347Y-114909455D01*
X137799169Y-113181633D01*
X137805784Y-113214888D01*
X137883805Y-113403246D01*
X137997073Y-113572764D01*
X138041010Y-113616701D01*
X138041011Y-114749278D01*
X137997073Y-114793216D01*
X137883805Y-114962734D01*
X137805784Y-115151092D01*
X137766010Y-115351051D01*
X137766010Y-115554929D01*
X137805784Y-115754888D01*
X137883805Y-115943246D01*
X137997073Y-116112764D01*
X138141236Y-116256927D01*
X138310754Y-116370195D01*
X138499112Y-116448216D01*
X138699071Y-116487990D01*
X138902949Y-116487990D01*
X139102908Y-116448216D01*
X139291266Y-116370195D01*
X139460784Y-116256927D01*
X139604947Y-116112764D01*
X139681650Y-115997970D01*
X139817498Y-116163502D01*
X139966762Y-116286000D01*
X139817498Y-116408498D01*
X139663167Y-116596551D01*
X139548489Y-116811099D01*
X139477870Y-117043898D01*
X139454025Y-117286000D01*
X139477870Y-117528102D01*
X139548489Y-117760901D01*
X139663167Y-117975449D01*
X139817498Y-118163502D01*
X139966762Y-118286000D01*
X139817498Y-118408498D01*
X139663167Y-118596551D01*
X139548489Y-118811099D01*
X139477870Y-119043898D01*
X139454025Y-119286000D01*
X139477870Y-119528102D01*
X139548489Y-119760901D01*
X139663167Y-119975449D01*
X139817498Y-120163502D01*
X139966762Y-120286000D01*
X139817498Y-120408498D01*
X139663167Y-120596551D01*
X139548489Y-120811099D01*
X139477870Y-121043898D01*
X139454025Y-121286000D01*
X139477870Y-121528102D01*
X139548489Y-121760901D01*
X139663167Y-121975449D01*
X139817498Y-122163502D01*
X139966762Y-122286000D01*
X139817498Y-122408498D01*
X139663167Y-122596551D01*
X139548489Y-122811099D01*
X139477870Y-123043898D01*
X139454025Y-123286000D01*
X139477870Y-123528102D01*
X139548489Y-123760901D01*
X139663167Y-123975449D01*
X139817498Y-124163502D01*
X139966762Y-124286000D01*
X139817498Y-124408498D01*
X139663167Y-124596551D01*
X139548489Y-124811099D01*
X139477870Y-125043898D01*
X139454025Y-125286000D01*
X139477870Y-125528102D01*
X139548489Y-125760901D01*
X139663167Y-125975449D01*
X139817498Y-126163502D01*
X139966762Y-126286000D01*
X139817498Y-126408498D01*
X139663167Y-126596551D01*
X139548489Y-126811099D01*
X139477870Y-127043898D01*
X139454025Y-127286000D01*
X139477870Y-127528102D01*
X139548489Y-127760901D01*
X139663167Y-127975449D01*
X139817498Y-128163502D01*
X139856111Y-128195191D01*
X139851613Y-128197595D01*
X139717038Y-128308038D01*
X139606595Y-128442613D01*
X139524528Y-128596149D01*
X139473992Y-128762745D01*
X139456928Y-128935999D01*
X139456928Y-129636001D01*
X139473992Y-129809255D01*
X139524528Y-129975851D01*
X139606595Y-130129387D01*
X139717038Y-130263962D01*
X139851613Y-130374405D01*
X140005149Y-130456472D01*
X140171745Y-130507008D01*
X140344999Y-130524072D01*
X141595001Y-130524072D01*
X141768255Y-130507008D01*
X141934851Y-130456472D01*
X142088387Y-130374405D01*
X142222962Y-130263962D01*
X142333405Y-130129387D01*
X142415472Y-129975851D01*
X142466008Y-129809255D01*
X142483072Y-129636001D01*
X142483072Y-128935999D01*
X142466008Y-128762745D01*
X142415472Y-128596149D01*
X142333405Y-128442613D01*
X142222962Y-128308038D01*
X142088387Y-128197595D01*
X142083889Y-128195191D01*
X142122502Y-128163502D01*
X142276833Y-127975449D01*
X142391511Y-127760901D01*
X142462130Y-127528102D01*
X142485975Y-127286000D01*
X142462130Y-127043898D01*
X142391511Y-126811099D01*
X142276833Y-126596551D01*
X142122502Y-126408498D01*
X141973238Y-126286000D01*
X142122502Y-126163502D01*
X142276833Y-125975449D01*
X142391511Y-125760901D01*
X142462130Y-125528102D01*
X142485975Y-125286000D01*
X142462130Y-125043898D01*
X142421347Y-124909455D01*
X144608031Y-122722772D01*
X144608031Y-125296697D01*
X144604354Y-125334030D01*
X144619028Y-125483015D01*
X144662484Y-125626276D01*
X144733056Y-125758306D01*
X144804231Y-125845032D01*
X144828030Y-125874031D01*
X144857028Y-125897829D01*
X145868653Y-126909455D01*
X145827870Y-127043898D01*
X145804025Y-127286000D01*
X145827870Y-127528102D01*
X145898489Y-127760901D01*
X146013167Y-127975449D01*
X146167498Y-128163502D01*
X146206111Y-128195191D01*
X146201613Y-128197595D01*
X146067038Y-128308038D01*
X145956595Y-128442613D01*
X145874528Y-128596149D01*
X145823992Y-128762745D01*
X145806928Y-128935999D01*
X145806928Y-129636001D01*
X145823992Y-129809255D01*
X145874528Y-129975851D01*
X145956595Y-130129387D01*
X146067038Y-130263962D01*
X146201613Y-130374405D01*
X146355149Y-130456472D01*
X146521745Y-130507008D01*
X146694999Y-130524072D01*
X147945001Y-130524072D01*
X148118255Y-130507008D01*
X148284851Y-130456472D01*
X148438387Y-130374405D01*
X148572962Y-130263962D01*
X148683405Y-130129387D01*
X148765472Y-129975851D01*
X148782110Y-129921000D01*
X185547000Y-129921000D01*
X185549440Y-129945776D01*
X185556667Y-129969601D01*
X185568403Y-129991557D01*
X185584197Y-130010803D01*
X185603443Y-130026597D01*
X185625399Y-130038333D01*
X185649224Y-130045560D01*
X185674000Y-130048000D01*
X196342000Y-130048000D01*
X196356835Y-130047131D01*
X196381157Y-130041813D01*
X196403974Y-130031852D01*
X196424409Y-130017632D01*
X196441678Y-129999698D01*
X196455116Y-129978739D01*
X196464207Y-129955562D01*
X196468601Y-129931057D01*
X196468131Y-129906165D01*
X196462813Y-129881843D01*
X196452852Y-129859026D01*
X192965863Y-123621874D01*
X198725881Y-123621874D01*
X198805724Y-123844976D01*
X198927631Y-124032764D01*
X199083831Y-124193161D01*
X199268322Y-124320003D01*
X199474013Y-124408415D01*
X199693000Y-124455000D01*
X200243000Y-124455000D01*
X200243000Y-123447000D01*
X200497000Y-123447000D01*
X200497000Y-124455000D01*
X201047000Y-124455000D01*
X201265987Y-124408415D01*
X201471678Y-124320003D01*
X201656169Y-124193161D01*
X201812369Y-124032764D01*
X201934276Y-123844976D01*
X202014119Y-123621874D01*
X203155881Y-123621874D01*
X203235724Y-123844976D01*
X203357631Y-124032764D01*
X203513831Y-124193161D01*
X203698322Y-124320003D01*
X203904013Y-124408415D01*
X204123000Y-124455000D01*
X204423000Y-124455000D01*
X204423000Y-123447000D01*
X203282046Y-123447000D01*
X203155881Y-123621874D01*
X202014119Y-123621874D01*
X201887954Y-123447000D01*
X200497000Y-123447000D01*
X200243000Y-123447000D01*
X198852046Y-123447000D01*
X198725881Y-123621874D01*
X192965863Y-123621874D01*
X192628328Y-123018126D01*
X198725881Y-123018126D01*
X198852046Y-123193000D01*
X200243000Y-123193000D01*
X200243000Y-122185000D01*
X200497000Y-122185000D01*
X200497000Y-123193000D01*
X201887954Y-123193000D01*
X202014119Y-123018126D01*
X203155881Y-123018126D01*
X203282046Y-123193000D01*
X204423000Y-123193000D01*
X204423000Y-122185000D01*
X204123000Y-122185000D01*
X203904013Y-122231585D01*
X203698322Y-122319997D01*
X203513831Y-122446839D01*
X203357631Y-122607236D01*
X203235724Y-122795024D01*
X203155881Y-123018126D01*
X202014119Y-123018126D01*
X201934276Y-122795024D01*
X201812369Y-122607236D01*
X201656169Y-122446839D01*
X201471678Y-122319997D01*
X201265987Y-122231585D01*
X201047000Y-122185000D01*
X200497000Y-122185000D01*
X200243000Y-122185000D01*
X199693000Y-122185000D01*
X199474013Y-122231585D01*
X199268322Y-122319997D01*
X199083831Y-122446839D01*
X198927631Y-122607236D01*
X198805724Y-122795024D01*
X198725881Y-123018126D01*
X192628328Y-123018126D01*
X191127734Y-120334026D01*
X191116671Y-120317444D01*
X191099428Y-120299485D01*
X191079013Y-120285236D01*
X191056210Y-120275243D01*
X191031896Y-120269891D01*
X191007005Y-120269385D01*
X190982493Y-120273744D01*
X190959303Y-120282802D01*
X190938326Y-120296211D01*
X190920367Y-120313454D01*
X190906118Y-120333869D01*
X185563236Y-129858869D01*
X185556667Y-129872399D01*
X185549440Y-129896224D01*
X185547000Y-129921000D01*
X148782110Y-129921000D01*
X148816008Y-129809255D01*
X148833072Y-129636001D01*
X148833072Y-128935999D01*
X148816008Y-128762745D01*
X148765472Y-128596149D01*
X148683405Y-128442613D01*
X148572962Y-128308038D01*
X148438387Y-128197595D01*
X148433889Y-128195191D01*
X148472502Y-128163502D01*
X148626833Y-127975449D01*
X148741511Y-127760901D01*
X148812130Y-127528102D01*
X148835975Y-127286000D01*
X148812130Y-127043898D01*
X148741511Y-126811099D01*
X148626833Y-126596551D01*
X148472502Y-126408498D01*
X148323238Y-126286000D01*
X148472502Y-126163502D01*
X148626833Y-125975449D01*
X148741511Y-125760901D01*
X148812130Y-125528102D01*
X148835975Y-125286000D01*
X148812130Y-125043898D01*
X148771347Y-124909454D01*
X152181081Y-121499721D01*
X152210079Y-121475923D01*
X152305052Y-121360198D01*
X152375624Y-121228169D01*
X152419081Y-121084908D01*
X152430078Y-120973255D01*
X152430078Y-120973246D01*
X152433754Y-120935923D01*
X152430078Y-120898600D01*
X152430078Y-107969000D01*
X152501939Y-107969000D01*
X152701898Y-107929226D01*
X152804956Y-107886538D01*
X152861811Y-107943392D01*
X153867106Y-108948689D01*
X153867112Y-108948694D01*
X154057451Y-109139033D01*
X154081250Y-109168032D01*
X154110248Y-109191830D01*
X154196975Y-109263005D01*
X154329004Y-109333577D01*
X154472265Y-109377034D01*
X154621251Y-109391708D01*
X154658584Y-109388031D01*
X165522125Y-109388031D01*
X165456226Y-109432063D01*
X165312063Y-109576226D01*
X165198795Y-109745744D01*
X165120774Y-109934102D01*
X165081000Y-110134061D01*
X165081000Y-110337939D01*
X165120774Y-110537898D01*
X165198795Y-110726256D01*
X165312063Y-110895774D01*
X165456226Y-111039937D01*
X165625744Y-111153205D01*
X165814102Y-111231226D01*
X166014061Y-111271000D01*
X166076199Y-111271000D01*
X169742198Y-114937000D01*
X166057711Y-114937000D01*
X166013774Y-114893063D01*
X165844256Y-114779795D01*
X165655898Y-114701774D01*
X165455939Y-114662000D01*
X165252061Y-114662000D01*
X165052102Y-114701774D01*
X164863744Y-114779795D01*
X164694226Y-114893063D01*
X164550063Y-115037226D01*
X164436795Y-115206744D01*
X164358774Y-115395102D01*
X164319000Y-115595061D01*
X164319000Y-115798939D01*
X164358774Y-115998898D01*
X164436795Y-116187256D01*
X164550063Y-116356774D01*
X164694226Y-116500937D01*
X164863744Y-116614205D01*
X165052102Y-116692226D01*
X165252061Y-116732000D01*
X165455939Y-116732000D01*
X165655898Y-116692226D01*
X165844256Y-116614205D01*
X166013774Y-116500937D01*
X166057711Y-116457000D01*
X176584368Y-116457000D01*
X176550774Y-116538102D01*
X176511000Y-116738061D01*
X176511000Y-116941939D01*
X176550774Y-117141898D01*
X176628795Y-117330256D01*
X176742063Y-117499774D01*
X176886226Y-117643937D01*
X177055744Y-117757205D01*
X177244102Y-117835226D01*
X177444061Y-117875000D01*
X177647939Y-117875000D01*
X177847898Y-117835226D01*
X178036256Y-117757205D01*
X178205774Y-117643937D01*
X178349937Y-117499774D01*
X178463205Y-117330256D01*
X178541226Y-117141898D01*
X178581000Y-116941939D01*
X178581000Y-116907010D01*
X181053207Y-116907010D01*
X181079195Y-116932998D01*
X181102998Y-116962002D01*
X181218723Y-117056975D01*
X181350752Y-117127547D01*
X181494013Y-117171004D01*
X181605666Y-117182001D01*
X181605676Y-117182001D01*
X181642998Y-117185677D01*
X181680321Y-117182001D01*
X182301679Y-117182001D01*
X182339001Y-117185677D01*
X182376323Y-117182001D01*
X182376334Y-117182001D01*
X182487987Y-117171004D01*
X182631248Y-117127547D01*
X182763277Y-117056975D01*
X182879002Y-116962002D01*
X182902804Y-116932999D01*
X183251804Y-116584000D01*
X186621289Y-116584000D01*
X186665226Y-116627937D01*
X186834744Y-116741205D01*
X187023102Y-116819226D01*
X187223061Y-116859000D01*
X187426939Y-116859000D01*
X187626898Y-116819226D01*
X187815256Y-116741205D01*
X187984774Y-116627937D01*
X188128937Y-116483774D01*
X188242205Y-116314256D01*
X188320226Y-116125898D01*
X188360000Y-115925939D01*
X188360000Y-115722061D01*
X188320226Y-115522102D01*
X188242205Y-115333744D01*
X188128937Y-115164226D01*
X187984774Y-115020063D01*
X187927620Y-114981874D01*
X198725881Y-114981874D01*
X198805724Y-115204976D01*
X198927631Y-115392764D01*
X199083831Y-115553161D01*
X199268322Y-115680003D01*
X199474013Y-115768415D01*
X199693000Y-115815000D01*
X200243000Y-115815000D01*
X200243000Y-114807000D01*
X200497000Y-114807000D01*
X200497000Y-115815000D01*
X201047000Y-115815000D01*
X201265987Y-115768415D01*
X201471678Y-115680003D01*
X201656169Y-115553161D01*
X201812369Y-115392764D01*
X201934276Y-115204976D01*
X202014119Y-114981874D01*
X203155881Y-114981874D01*
X203235724Y-115204976D01*
X203357631Y-115392764D01*
X203513831Y-115553161D01*
X203698322Y-115680003D01*
X203904013Y-115768415D01*
X204123000Y-115815000D01*
X204423000Y-115815000D01*
X204423000Y-114807000D01*
X203282046Y-114807000D01*
X203155881Y-114981874D01*
X202014119Y-114981874D01*
X201887954Y-114807000D01*
X200497000Y-114807000D01*
X200243000Y-114807000D01*
X198852046Y-114807000D01*
X198725881Y-114981874D01*
X187927620Y-114981874D01*
X187815256Y-114906795D01*
X187626898Y-114828774D01*
X187426939Y-114789000D01*
X187223061Y-114789000D01*
X187023102Y-114828774D01*
X186834744Y-114906795D01*
X186665226Y-115020063D01*
X186621289Y-115064000D01*
X182974324Y-115064000D01*
X182937001Y-115060324D01*
X182899678Y-115064000D01*
X182899669Y-115064000D01*
X182818189Y-115072025D01*
X182794937Y-115037226D01*
X182650774Y-114893063D01*
X182481256Y-114779795D01*
X182292898Y-114701774D01*
X182092939Y-114662000D01*
X181889061Y-114662000D01*
X181689102Y-114701774D01*
X181500744Y-114779795D01*
X181331226Y-114893063D01*
X181287289Y-114937000D01*
X181137362Y-114937000D01*
X181187000Y-114687456D01*
X181187000Y-114420544D01*
X181134928Y-114158761D01*
X181032785Y-113912167D01*
X180969238Y-113817061D01*
X191370000Y-113817061D01*
X191370000Y-114020939D01*
X191409774Y-114220898D01*
X191487795Y-114409256D01*
X191601063Y-114578774D01*
X191745226Y-114722937D01*
X191914744Y-114836205D01*
X192103102Y-114914226D01*
X192303061Y-114954000D01*
X192506939Y-114954000D01*
X192706898Y-114914226D01*
X192895256Y-114836205D01*
X193064774Y-114722937D01*
X193108711Y-114679000D01*
X194526678Y-114679000D01*
X194564000Y-114682676D01*
X194601322Y-114679000D01*
X194601333Y-114679000D01*
X194712986Y-114668003D01*
X194856247Y-114624546D01*
X194988276Y-114553974D01*
X195104001Y-114459001D01*
X195127804Y-114429997D01*
X195179675Y-114378126D01*
X198725881Y-114378126D01*
X198852046Y-114553000D01*
X200243000Y-114553000D01*
X200243000Y-113545000D01*
X200497000Y-113545000D01*
X200497000Y-114553000D01*
X201887954Y-114553000D01*
X202014119Y-114378126D01*
X203155881Y-114378126D01*
X203282046Y-114553000D01*
X204423000Y-114553000D01*
X204423000Y-113545000D01*
X204123000Y-113545000D01*
X203904013Y-113591585D01*
X203698322Y-113679997D01*
X203513831Y-113806839D01*
X203357631Y-113967236D01*
X203235724Y-114155024D01*
X203155881Y-114378126D01*
X202014119Y-114378126D01*
X201934276Y-114155024D01*
X201812369Y-113967236D01*
X201656169Y-113806839D01*
X201471678Y-113679997D01*
X201265987Y-113591585D01*
X201047000Y-113545000D01*
X200497000Y-113545000D01*
X200243000Y-113545000D01*
X199693000Y-113545000D01*
X199474013Y-113591585D01*
X199268322Y-113679997D01*
X199083831Y-113806839D01*
X198927631Y-113967236D01*
X198805724Y-114155024D01*
X198725881Y-114378126D01*
X195179675Y-114378126D01*
X197291802Y-112266000D01*
X203058091Y-112266000D01*
X203140201Y-112388886D01*
X203333114Y-112581799D01*
X203559957Y-112733371D01*
X203812011Y-112837775D01*
X204079589Y-112891000D01*
X204352411Y-112891000D01*
X204619989Y-112837775D01*
X204872043Y-112733371D01*
X205098886Y-112581799D01*
X205291799Y-112388886D01*
X205443371Y-112162043D01*
X205547775Y-111909989D01*
X205601000Y-111642411D01*
X205601000Y-111369589D01*
X205547775Y-111102011D01*
X205443371Y-110849957D01*
X205291799Y-110623114D01*
X205098886Y-110430201D01*
X204872043Y-110278629D01*
X204619989Y-110174225D01*
X204352411Y-110121000D01*
X204079589Y-110121000D01*
X203812011Y-110174225D01*
X203559957Y-110278629D01*
X203333114Y-110430201D01*
X203140201Y-110623114D01*
X203058091Y-110746000D01*
X197014322Y-110746000D01*
X196976999Y-110742324D01*
X196939676Y-110746000D01*
X196939667Y-110746000D01*
X196828014Y-110756997D01*
X196684753Y-110800454D01*
X196552724Y-110871026D01*
X196436999Y-110965999D01*
X196413201Y-110994997D01*
X194249199Y-113159000D01*
X193108711Y-113159000D01*
X193064774Y-113115063D01*
X192895256Y-113001795D01*
X192706898Y-112923774D01*
X192506939Y-112884000D01*
X192303061Y-112884000D01*
X192103102Y-112923774D01*
X191914744Y-113001795D01*
X191745226Y-113115063D01*
X191601063Y-113259226D01*
X191487795Y-113428744D01*
X191409774Y-113617102D01*
X191370000Y-113817061D01*
X180969238Y-113817061D01*
X180884497Y-113690238D01*
X180695762Y-113501503D01*
X180473833Y-113353215D01*
X180227239Y-113251072D01*
X179965456Y-113199000D01*
X179698544Y-113199000D01*
X179436761Y-113251072D01*
X179190167Y-113353215D01*
X178968238Y-113501503D01*
X178779503Y-113690238D01*
X178631215Y-113912167D01*
X178529072Y-114158761D01*
X178477000Y-114420544D01*
X178477000Y-114687456D01*
X178526638Y-114937000D01*
X176057362Y-114937000D01*
X176107000Y-114687456D01*
X176107000Y-114420544D01*
X176054928Y-114158761D01*
X175952785Y-113912167D01*
X175804497Y-113690238D01*
X175615762Y-113501503D01*
X175393833Y-113353215D01*
X175147239Y-113251072D01*
X174885456Y-113199000D01*
X174618544Y-113199000D01*
X174356761Y-113251072D01*
X174110167Y-113353215D01*
X173888238Y-113501503D01*
X173699503Y-113690238D01*
X173630172Y-113794000D01*
X170748802Y-113794000D01*
X168835346Y-111880544D01*
X175937000Y-111880544D01*
X175937000Y-112147456D01*
X175989072Y-112409239D01*
X176091215Y-112655833D01*
X176239503Y-112877762D01*
X176428238Y-113066497D01*
X176650167Y-113214785D01*
X176896761Y-113316928D01*
X177158544Y-113369000D01*
X177425456Y-113369000D01*
X177687239Y-113316928D01*
X177933833Y-113214785D01*
X178155762Y-113066497D01*
X178344497Y-112877762D01*
X178492785Y-112655833D01*
X178594928Y-112409239D01*
X178647000Y-112147456D01*
X178647000Y-111880544D01*
X178594928Y-111618761D01*
X178492785Y-111372167D01*
X178344497Y-111150238D01*
X178155762Y-110961503D01*
X177933833Y-110813215D01*
X177687239Y-110711072D01*
X177425456Y-110659000D01*
X177158544Y-110659000D01*
X176896761Y-110711072D01*
X176650167Y-110813215D01*
X176428238Y-110961503D01*
X176239503Y-111150238D01*
X176091215Y-111372167D01*
X175989072Y-111618761D01*
X175937000Y-111880544D01*
X168835346Y-111880544D01*
X167151000Y-110196199D01*
X167151000Y-110134061D01*
X167111226Y-109934102D01*
X167033205Y-109745744D01*
X166919937Y-109576226D01*
X166775774Y-109432063D01*
X166709875Y-109388031D01*
X180703230Y-109388031D01*
X180829000Y-109513801D01*
X180829000Y-109575939D01*
X180868774Y-109775898D01*
X180946795Y-109964256D01*
X181060063Y-110133774D01*
X181204226Y-110277937D01*
X181373744Y-110391205D01*
X181562102Y-110469226D01*
X181762061Y-110509000D01*
X181965939Y-110509000D01*
X182165898Y-110469226D01*
X182354256Y-110391205D01*
X182523774Y-110277937D01*
X182667937Y-110133774D01*
X182781205Y-109964256D01*
X182859226Y-109775898D01*
X182899000Y-109575939D01*
X182899000Y-109372061D01*
X182859226Y-109172102D01*
X182781205Y-108983744D01*
X182750654Y-108938021D01*
X185389177Y-108938021D01*
X185380198Y-108947000D01*
X185318061Y-108947000D01*
X185118102Y-108986774D01*
X184929744Y-109064795D01*
X184760226Y-109178063D01*
X184616063Y-109322226D01*
X184502795Y-109491744D01*
X184424774Y-109680102D01*
X184385000Y-109880061D01*
X184385000Y-110083939D01*
X184424774Y-110283898D01*
X184502795Y-110472256D01*
X184594635Y-110609704D01*
X184493045Y-110761744D01*
X184415024Y-110950102D01*
X184375250Y-111150061D01*
X184375250Y-111353939D01*
X184415024Y-111553898D01*
X184493045Y-111742256D01*
X184606313Y-111911774D01*
X184750476Y-112055937D01*
X184919994Y-112169205D01*
X185108352Y-112247226D01*
X185308311Y-112287000D01*
X185512189Y-112287000D01*
X185712148Y-112247226D01*
X185900506Y-112169205D01*
X186070024Y-112055937D01*
X186214187Y-111911774D01*
X186327455Y-111742256D01*
X186405476Y-111553898D01*
X186445250Y-111353939D01*
X186445250Y-111291801D01*
X186600038Y-111137013D01*
X187291021Y-110446031D01*
X187888927Y-109848125D01*
X193519783Y-109848125D01*
X193557105Y-109851801D01*
X193594427Y-109848125D01*
X193594438Y-109848125D01*
X193706091Y-109837128D01*
X193849352Y-109793671D01*
X193981381Y-109723099D01*
X194097106Y-109628126D01*
X194120909Y-109599122D01*
X197296032Y-106424000D01*
X200599199Y-106424000D01*
X201112201Y-106937002D01*
X201135999Y-106966001D01*
X201251724Y-107060974D01*
X201383753Y-107131546D01*
X201527014Y-107175003D01*
X201638667Y-107186000D01*
X201638675Y-107186000D01*
X201676000Y-107189676D01*
X201713325Y-107186000D01*
X203058091Y-107186000D01*
X203140201Y-107308886D01*
X203333114Y-107501799D01*
X203559957Y-107653371D01*
X203812011Y-107757775D01*
X204079589Y-107811000D01*
X204352411Y-107811000D01*
X204619989Y-107757775D01*
X204872043Y-107653371D01*
X205098886Y-107501799D01*
X205291799Y-107308886D01*
X205443371Y-107082043D01*
X205547775Y-106829989D01*
X205601000Y-106562411D01*
X205601000Y-106289589D01*
X205547775Y-106022011D01*
X205443371Y-105769957D01*
X205291799Y-105543114D01*
X205098886Y-105350201D01*
X204872043Y-105198629D01*
X204769127Y-105156000D01*
X204872043Y-105113371D01*
X205098886Y-104961799D01*
X205291799Y-104768886D01*
X205443371Y-104542043D01*
X205547775Y-104289989D01*
X205601000Y-104022411D01*
X205601000Y-103749589D01*
X205547775Y-103482011D01*
X205443371Y-103229957D01*
X205291799Y-103003114D01*
X205098886Y-102810201D01*
X204872043Y-102658629D01*
X204619989Y-102554225D01*
X204352411Y-102501000D01*
X204079589Y-102501000D01*
X203812011Y-102554225D01*
X203559957Y-102658629D01*
X203333114Y-102810201D01*
X203140201Y-103003114D01*
X203058091Y-103126000D01*
X201713325Y-103126000D01*
X201676000Y-103122324D01*
X201638675Y-103126000D01*
X201638667Y-103126000D01*
X201527014Y-103136997D01*
X201383753Y-103180454D01*
X201251724Y-103251026D01*
X201135999Y-103345999D01*
X201112201Y-103374998D01*
X200597789Y-103889410D01*
X196885915Y-103889410D01*
X196848590Y-103885734D01*
X196811265Y-103889410D01*
X196811257Y-103889410D01*
X196699604Y-103900407D01*
X196556343Y-103943864D01*
X196424314Y-104014436D01*
X196308589Y-104109409D01*
X196284791Y-104138407D01*
X195388379Y-105034819D01*
X195367937Y-105004226D01*
X195223774Y-104860063D01*
X195054256Y-104746795D01*
X194865898Y-104668774D01*
X194665939Y-104629000D01*
X194462061Y-104629000D01*
X194262102Y-104668774D01*
X194073744Y-104746795D01*
X193904226Y-104860063D01*
X193760063Y-105004226D01*
X193646795Y-105173744D01*
X193568774Y-105362102D01*
X193529000Y-105562061D01*
X193529000Y-105624199D01*
X193355500Y-105797699D01*
X193355500Y-105351711D01*
X193399437Y-105307774D01*
X193512705Y-105138256D01*
X193590726Y-104949898D01*
X193630500Y-104749939D01*
X193630500Y-104546061D01*
X193590726Y-104346102D01*
X193512705Y-104157744D01*
X193399437Y-103988226D01*
X193255274Y-103844063D01*
X193085756Y-103730795D01*
X192897398Y-103652774D01*
X192697439Y-103613000D01*
X192493561Y-103613000D01*
X192403000Y-103631014D01*
X192403000Y-94906322D01*
X192406676Y-94868999D01*
X192403000Y-94831676D01*
X192403000Y-94831667D01*
X192392003Y-94720014D01*
X192348546Y-94576753D01*
X192334240Y-94549989D01*
X192277974Y-94444723D01*
X192206799Y-94357997D01*
X192183001Y-94328999D01*
X192154003Y-94305201D01*
X191535000Y-93686199D01*
X191535000Y-93624061D01*
X191495226Y-93424102D01*
X191417205Y-93235744D01*
X191303937Y-93066226D01*
X191159774Y-92922063D01*
X190990256Y-92808795D01*
X190801898Y-92730774D01*
X190601939Y-92691000D01*
X190398061Y-92691000D01*
X190198102Y-92730774D01*
X190009744Y-92808795D01*
X189840226Y-92922063D01*
X189696063Y-93066226D01*
X189582795Y-93235744D01*
X189504774Y-93424102D01*
X189465000Y-93624061D01*
X189465000Y-93827939D01*
X189504774Y-94027898D01*
X189582795Y-94216256D01*
X189696063Y-94385774D01*
X189840226Y-94529937D01*
X190009744Y-94643205D01*
X190198102Y-94721226D01*
X190398061Y-94761000D01*
X190460199Y-94761000D01*
X190883001Y-95183803D01*
X190883000Y-103190597D01*
X190860226Y-103076102D01*
X190782205Y-102887744D01*
X190668937Y-102718226D01*
X190524774Y-102574063D01*
X190355256Y-102460795D01*
X190166898Y-102382774D01*
X189966939Y-102343000D01*
X189763061Y-102343000D01*
X189563102Y-102382774D01*
X189374744Y-102460795D01*
X189205226Y-102574063D01*
X189061063Y-102718226D01*
X188947795Y-102887744D01*
X188869774Y-103076102D01*
X188830000Y-103276061D01*
X188830000Y-103479939D01*
X188869774Y-103679898D01*
X188947795Y-103868256D01*
X189061063Y-104037774D01*
X189105001Y-104081712D01*
X189105001Y-104460198D01*
X189042199Y-104523000D01*
X188409711Y-104523000D01*
X188365774Y-104479063D01*
X188196256Y-104365795D01*
X188007898Y-104287774D01*
X187807939Y-104248000D01*
X187604061Y-104248000D01*
X187404102Y-104287774D01*
X187215744Y-104365795D01*
X187046226Y-104479063D01*
X187002289Y-104523000D01*
X183194802Y-104523000D01*
X182835500Y-104163699D01*
X182835500Y-104101561D01*
X182795726Y-103901602D01*
X182717705Y-103713244D01*
X182604437Y-103543726D01*
X182460274Y-103399563D01*
X182290756Y-103286295D01*
X182102398Y-103208274D01*
X181902439Y-103168500D01*
X181698561Y-103168500D01*
X181498602Y-103208274D01*
X181310244Y-103286295D01*
X181140726Y-103399563D01*
X180996563Y-103543726D01*
X180883295Y-103713244D01*
X180805274Y-103901602D01*
X180765500Y-104101561D01*
X180765500Y-104305439D01*
X180805274Y-104505398D01*
X180834318Y-104575517D01*
X179887804Y-103629003D01*
X179864001Y-103599999D01*
X179748276Y-103505026D01*
X179616247Y-103434454D01*
X179472986Y-103390997D01*
X179361333Y-103380000D01*
X179361322Y-103380000D01*
X179324000Y-103376324D01*
X179286678Y-103380000D01*
X174947711Y-103380000D01*
X174903774Y-103336063D01*
X174734256Y-103222795D01*
X174545898Y-103144774D01*
X174345939Y-103105000D01*
X174142061Y-103105000D01*
X173942102Y-103144774D01*
X173753744Y-103222795D01*
X173584226Y-103336063D01*
X173440063Y-103480226D01*
X173326795Y-103649744D01*
X173248774Y-103838102D01*
X173209000Y-104038061D01*
X173209000Y-104241939D01*
X173248774Y-104441898D01*
X173326795Y-104630256D01*
X173440063Y-104799774D01*
X173584226Y-104943937D01*
X173753744Y-105057205D01*
X173942102Y-105135226D01*
X174142061Y-105175000D01*
X174345939Y-105175000D01*
X174545898Y-105135226D01*
X174734256Y-105057205D01*
X174903774Y-104943937D01*
X174947711Y-104900000D01*
X179009199Y-104900000D01*
X180627199Y-106518001D01*
X178204803Y-106518001D01*
X178073000Y-106386198D01*
X178073000Y-106324061D01*
X178033226Y-106124102D01*
X177955205Y-105935744D01*
X177841937Y-105766226D01*
X177697774Y-105622063D01*
X177528256Y-105508795D01*
X177339898Y-105430774D01*
X177139939Y-105391000D01*
X176936061Y-105391000D01*
X176736102Y-105430774D01*
X176547744Y-105508795D01*
X176378226Y-105622063D01*
X176234063Y-105766226D01*
X176120795Y-105935744D01*
X176042774Y-106124102D01*
X176003000Y-106324061D01*
X176003000Y-106527939D01*
X176042774Y-106727898D01*
X176120795Y-106916256D01*
X176155376Y-106968011D01*
X155308853Y-106968011D01*
X153762414Y-105421572D01*
X153803754Y-105449195D01*
X153992112Y-105527216D01*
X154192071Y-105566990D01*
X154395949Y-105566990D01*
X154595908Y-105527216D01*
X154784266Y-105449195D01*
X154953784Y-105335927D01*
X155097947Y-105191764D01*
X155211215Y-105022246D01*
X155289236Y-104833888D01*
X155329010Y-104633929D01*
X155329010Y-104430051D01*
X155289236Y-104230092D01*
X155211215Y-104041734D01*
X155097947Y-103872216D01*
X154953784Y-103728053D01*
X154784266Y-103614785D01*
X154595908Y-103536764D01*
X154395949Y-103496990D01*
X154192071Y-103496990D01*
X153992112Y-103536764D01*
X153829383Y-103604169D01*
X153903226Y-103425898D01*
X153943000Y-103225939D01*
X153943000Y-103022061D01*
X153903226Y-102822102D01*
X153825205Y-102633744D01*
X153711937Y-102464226D01*
X153567774Y-102320063D01*
X153398256Y-102206795D01*
X153209898Y-102128774D01*
X153009939Y-102089000D01*
X152947802Y-102089000D01*
X152356863Y-101498061D01*
X155429000Y-101498061D01*
X155429000Y-101701939D01*
X155468774Y-101901898D01*
X155546795Y-102090256D01*
X155660063Y-102259774D01*
X155804226Y-102403937D01*
X155973744Y-102517205D01*
X156162102Y-102595226D01*
X156362061Y-102635000D01*
X156565939Y-102635000D01*
X156765898Y-102595226D01*
X156954256Y-102517205D01*
X157123774Y-102403937D01*
X157267937Y-102259774D01*
X157381205Y-102090256D01*
X157459226Y-101901898D01*
X157499000Y-101701939D01*
X157499000Y-101639801D01*
X158036099Y-101102703D01*
X158044454Y-101130246D01*
X158115026Y-101262276D01*
X158181205Y-101342914D01*
X158210000Y-101378001D01*
X158238998Y-101401799D01*
X158477000Y-101639801D01*
X158477000Y-101701939D01*
X158516774Y-101901898D01*
X158594795Y-102090256D01*
X158708063Y-102259774D01*
X158852226Y-102403937D01*
X159021744Y-102517205D01*
X159210102Y-102595226D01*
X159410061Y-102635000D01*
X159613939Y-102635000D01*
X159813898Y-102595226D01*
X160002256Y-102517205D01*
X160171774Y-102403937D01*
X160315937Y-102259774D01*
X160429205Y-102090256D01*
X160507226Y-101901898D01*
X160547000Y-101701939D01*
X160547000Y-101498061D01*
X160507226Y-101298102D01*
X160429205Y-101109744D01*
X160315937Y-100940226D01*
X160171774Y-100796063D01*
X160002256Y-100682795D01*
X159813898Y-100604774D01*
X159613939Y-100565000D01*
X159551801Y-100565000D01*
X159510000Y-100523199D01*
X159510000Y-100308933D01*
X159627502Y-100212502D01*
X159781833Y-100024449D01*
X159896511Y-99809900D01*
X159967130Y-99577101D01*
X159985000Y-99395664D01*
X159985000Y-98724335D01*
X159967130Y-98542898D01*
X159934400Y-98434999D01*
X163099928Y-98434999D01*
X163099928Y-99685001D01*
X163116992Y-99858255D01*
X163167528Y-100024851D01*
X163249595Y-100178387D01*
X163360038Y-100312962D01*
X163494613Y-100423405D01*
X163648149Y-100505472D01*
X163814745Y-100556008D01*
X163987999Y-100573072D01*
X164688001Y-100573072D01*
X164861255Y-100556008D01*
X165027851Y-100505472D01*
X165181387Y-100423405D01*
X165315962Y-100312962D01*
X165426405Y-100178387D01*
X165428810Y-100173888D01*
X165460499Y-100212502D01*
X165648552Y-100366833D01*
X165863100Y-100481511D01*
X166095899Y-100552130D01*
X166338000Y-100575975D01*
X166580102Y-100552130D01*
X166812901Y-100481511D01*
X167027449Y-100366833D01*
X167215502Y-100212502D01*
X167369833Y-100024449D01*
X167484511Y-99809900D01*
X167555130Y-99577101D01*
X167573000Y-99395664D01*
X167573000Y-98724335D01*
X167555130Y-98542898D01*
X167484511Y-98310099D01*
X167369833Y-98095551D01*
X167215502Y-97907498D01*
X167027448Y-97753167D01*
X166812900Y-97638489D01*
X166580101Y-97567870D01*
X166338000Y-97544025D01*
X166095898Y-97567870D01*
X165863099Y-97638489D01*
X165648551Y-97753167D01*
X165460498Y-97907498D01*
X165428809Y-97946111D01*
X165426405Y-97941613D01*
X165315962Y-97807038D01*
X165181387Y-97696595D01*
X165027851Y-97614528D01*
X164861255Y-97563992D01*
X164688001Y-97546928D01*
X163987999Y-97546928D01*
X163814745Y-97563992D01*
X163648149Y-97614528D01*
X163494613Y-97696595D01*
X163360038Y-97807038D01*
X163249595Y-97941613D01*
X163167528Y-98095149D01*
X163116992Y-98261745D01*
X163099928Y-98434999D01*
X159934400Y-98434999D01*
X159896511Y-98310099D01*
X159781833Y-98095551D01*
X159627502Y-97907498D01*
X159439448Y-97753167D01*
X159224900Y-97638489D01*
X158992101Y-97567870D01*
X158750000Y-97544025D01*
X158507898Y-97567870D01*
X158435010Y-97589980D01*
X158435010Y-95736000D01*
X170691928Y-95736000D01*
X170691928Y-99336000D01*
X170704188Y-99460482D01*
X170740498Y-99580180D01*
X170799463Y-99690494D01*
X170878815Y-99787185D01*
X170975506Y-99866537D01*
X171085820Y-99925502D01*
X171205518Y-99961812D01*
X171330000Y-99974072D01*
X173930000Y-99974072D01*
X174054482Y-99961812D01*
X174174180Y-99925502D01*
X174284494Y-99866537D01*
X174381185Y-99787185D01*
X174460537Y-99690494D01*
X174519502Y-99580180D01*
X174555812Y-99460482D01*
X174568072Y-99336000D01*
X174568072Y-98296000D01*
X188145289Y-98296000D01*
X188189226Y-98339937D01*
X188358744Y-98453205D01*
X188547102Y-98531226D01*
X188747061Y-98571000D01*
X188950939Y-98571000D01*
X189150898Y-98531226D01*
X189339256Y-98453205D01*
X189508774Y-98339937D01*
X189652937Y-98195774D01*
X189766205Y-98026256D01*
X189844226Y-97837898D01*
X189884000Y-97637939D01*
X189884000Y-97434061D01*
X189844226Y-97234102D01*
X189766205Y-97045744D01*
X189652937Y-96876226D01*
X189508774Y-96732063D01*
X189339256Y-96618795D01*
X189150898Y-96540774D01*
X188950939Y-96501000D01*
X188747061Y-96501000D01*
X188547102Y-96540774D01*
X188358744Y-96618795D01*
X188189226Y-96732063D01*
X188145289Y-96776000D01*
X174568072Y-96776000D01*
X174568072Y-95736000D01*
X174555812Y-95611518D01*
X174519502Y-95491820D01*
X174460537Y-95381506D01*
X174381185Y-95284815D01*
X174284494Y-95205463D01*
X174174180Y-95146498D01*
X174054482Y-95110188D01*
X173930000Y-95097928D01*
X171330000Y-95097928D01*
X171205518Y-95110188D01*
X171085820Y-95146498D01*
X170975506Y-95205463D01*
X170878815Y-95284815D01*
X170799463Y-95381506D01*
X170740498Y-95491820D01*
X170704188Y-95611518D01*
X170691928Y-95736000D01*
X158435010Y-95736000D01*
X158435010Y-94607791D01*
X159229003Y-93813799D01*
X159258001Y-93790001D01*
X159352974Y-93674276D01*
X159423546Y-93542247D01*
X159467003Y-93398986D01*
X159478000Y-93287333D01*
X159481677Y-93250000D01*
X159478000Y-93212667D01*
X159478000Y-92688933D01*
X159595502Y-92592502D01*
X159749833Y-92404449D01*
X159864511Y-92189900D01*
X159935130Y-91957101D01*
X159953000Y-91775664D01*
X159953000Y-91104335D01*
X159935130Y-90922898D01*
X159902400Y-90814999D01*
X163099928Y-90814999D01*
X163099928Y-92065001D01*
X163116992Y-92238255D01*
X163167528Y-92404851D01*
X163249595Y-92558387D01*
X163360038Y-92692962D01*
X163494613Y-92803405D01*
X163648149Y-92885472D01*
X163814745Y-92936008D01*
X163987999Y-92953072D01*
X164688001Y-92953072D01*
X164861255Y-92936008D01*
X165027851Y-92885472D01*
X165181387Y-92803405D01*
X165315962Y-92692962D01*
X165426405Y-92558387D01*
X165428810Y-92553888D01*
X165460499Y-92592502D01*
X165648552Y-92746833D01*
X165863100Y-92861511D01*
X166095899Y-92932130D01*
X166338000Y-92955975D01*
X166580102Y-92932130D01*
X166812901Y-92861511D01*
X167027449Y-92746833D01*
X167215502Y-92592502D01*
X167369833Y-92404449D01*
X167484511Y-92189900D01*
X167555130Y-91957101D01*
X167573000Y-91775664D01*
X167573000Y-91104335D01*
X167555130Y-90922898D01*
X167484511Y-90690099D01*
X167369833Y-90475551D01*
X167215502Y-90287498D01*
X167027448Y-90133167D01*
X166812900Y-90018489D01*
X166580101Y-89947870D01*
X166338000Y-89924025D01*
X166095898Y-89947870D01*
X165863099Y-90018489D01*
X165648551Y-90133167D01*
X165460498Y-90287498D01*
X165428809Y-90326111D01*
X165426405Y-90321613D01*
X165315962Y-90187038D01*
X165181387Y-90076595D01*
X165027851Y-89994528D01*
X164861255Y-89943992D01*
X164688001Y-89926928D01*
X163987999Y-89926928D01*
X163814745Y-89943992D01*
X163648149Y-89994528D01*
X163494613Y-90076595D01*
X163360038Y-90187038D01*
X163249595Y-90321613D01*
X163167528Y-90475149D01*
X163116992Y-90641745D01*
X163099928Y-90814999D01*
X159902400Y-90814999D01*
X159864511Y-90690099D01*
X159749833Y-90475551D01*
X159595502Y-90287498D01*
X159407448Y-90133167D01*
X159192900Y-90018489D01*
X158960101Y-89947870D01*
X158718000Y-89924025D01*
X158475898Y-89947870D01*
X158243099Y-90018489D01*
X158028551Y-90133167D01*
X157840498Y-90287498D01*
X157808809Y-90326111D01*
X157806405Y-90321613D01*
X157695962Y-90187038D01*
X157561387Y-90076595D01*
X157407851Y-89994528D01*
X157241255Y-89943992D01*
X157068001Y-89926928D01*
X156367999Y-89926928D01*
X156194745Y-89943992D01*
X156028149Y-89994528D01*
X155874613Y-90076595D01*
X155740038Y-90187038D01*
X155629595Y-90321613D01*
X155547528Y-90475149D01*
X155496992Y-90641745D01*
X155479928Y-90814999D01*
X155479928Y-92065001D01*
X155496992Y-92238255D01*
X155547528Y-92404851D01*
X155629595Y-92558387D01*
X155740038Y-92692962D01*
X155874613Y-92803405D01*
X156028149Y-92885472D01*
X156194745Y-92936008D01*
X156367999Y-92953072D01*
X157068001Y-92953072D01*
X157241255Y-92936008D01*
X157407851Y-92885472D01*
X157561387Y-92803405D01*
X157695962Y-92692962D01*
X157806405Y-92558387D01*
X157808810Y-92553888D01*
X157840499Y-92592502D01*
X157958001Y-92688933D01*
X157958001Y-92935197D01*
X157164008Y-93729191D01*
X157135010Y-93752989D01*
X157111212Y-93781987D01*
X157111211Y-93781988D01*
X157040036Y-93868714D01*
X156969464Y-94000744D01*
X156958294Y-94037569D01*
X156926008Y-94144004D01*
X156916848Y-94237002D01*
X156911334Y-94292990D01*
X156915011Y-94330322D01*
X156915010Y-97546928D01*
X156399999Y-97546928D01*
X156226745Y-97563992D01*
X156060149Y-97614528D01*
X155906613Y-97696595D01*
X155772038Y-97807038D01*
X155661595Y-97941613D01*
X155579528Y-98095149D01*
X155528992Y-98261745D01*
X155511928Y-98434999D01*
X155511928Y-99685001D01*
X155528992Y-99858255D01*
X155579528Y-100024851D01*
X155661595Y-100178387D01*
X155772038Y-100312962D01*
X155906613Y-100423405D01*
X156060149Y-100505472D01*
X156226745Y-100556008D01*
X156347483Y-100567900D01*
X156162102Y-100604774D01*
X155973744Y-100682795D01*
X155804226Y-100796063D01*
X155660063Y-100940226D01*
X155546795Y-101109744D01*
X155468774Y-101298102D01*
X155429000Y-101498061D01*
X152356863Y-101498061D01*
X151970030Y-101111229D01*
X151970028Y-89140131D01*
X151973705Y-89102798D01*
X151959031Y-88953812D01*
X151915574Y-88810552D01*
X151845002Y-88678522D01*
X151773828Y-88591795D01*
X151773818Y-88591785D01*
X151750029Y-88562798D01*
X151721041Y-88539009D01*
X149565011Y-86382982D01*
X149541209Y-86353979D01*
X149425484Y-86259006D01*
X149293455Y-86188434D01*
X149150194Y-86144977D01*
X149038541Y-86133980D01*
X149038530Y-86133980D01*
X149001208Y-86130304D01*
X148963885Y-86133980D01*
X132477784Y-86133980D01*
X131721805Y-85378001D01*
X131698002Y-85348998D01*
X131582277Y-85254025D01*
X131450248Y-85183453D01*
X131306987Y-85139996D01*
X131195334Y-85128999D01*
X131195323Y-85128999D01*
X131158001Y-85125323D01*
X131120679Y-85128999D01*
X128270323Y-85128999D01*
X128233000Y-85125323D01*
X128195677Y-85128999D01*
X128195668Y-85128999D01*
X128084015Y-85139996D01*
X127940754Y-85183453D01*
X127808725Y-85254025D01*
X127693000Y-85348998D01*
X127669202Y-85377996D01*
X125981003Y-87066196D01*
X125951999Y-87089999D01*
X125899474Y-87154001D01*
X125857026Y-87205724D01*
X125786455Y-87337753D01*
X125786454Y-87337754D01*
X125742997Y-87481015D01*
X125732000Y-87592668D01*
X125732000Y-87592678D01*
X125728324Y-87630000D01*
X125732000Y-87667323D01*
X125732001Y-90151000D01*
X125628061Y-90151000D01*
X125428102Y-90190774D01*
X125239744Y-90268795D01*
X125070226Y-90382063D01*
X124968000Y-90484289D01*
X124865774Y-90382063D01*
X124696256Y-90268795D01*
X124507898Y-90190774D01*
X124307939Y-90151000D01*
X124104061Y-90151000D01*
X123904102Y-90190774D01*
X123715744Y-90268795D01*
X123546226Y-90382063D01*
X123444000Y-90484289D01*
X123341774Y-90382063D01*
X123172256Y-90268795D01*
X122983898Y-90190774D01*
X122783939Y-90151000D01*
X122580061Y-90151000D01*
X122380102Y-90190774D01*
X122191744Y-90268795D01*
X122022226Y-90382063D01*
X121920000Y-90484289D01*
X121817774Y-90382063D01*
X121648256Y-90268795D01*
X121459898Y-90190774D01*
X121259939Y-90151000D01*
X121056061Y-90151000D01*
X120856102Y-90190774D01*
X120667744Y-90268795D01*
X120498226Y-90382063D01*
X120396000Y-90484289D01*
X120293774Y-90382063D01*
X120124256Y-90268795D01*
X119935898Y-90190774D01*
X119735939Y-90151000D01*
X119532061Y-90151000D01*
X119332102Y-90190774D01*
X119143744Y-90268795D01*
X118974226Y-90382063D01*
X118830063Y-90526226D01*
X118745000Y-90653532D01*
X118659937Y-90526226D01*
X118515774Y-90382063D01*
X118346256Y-90268795D01*
X118157898Y-90190774D01*
X117957939Y-90151000D01*
X117754061Y-90151000D01*
X117554102Y-90190774D01*
X117365744Y-90268795D01*
X117196226Y-90382063D01*
X117052063Y-90526226D01*
X116938795Y-90695744D01*
X116860774Y-90884102D01*
X116821000Y-91084061D01*
X116821000Y-91287939D01*
X116860774Y-91487898D01*
X116938795Y-91676256D01*
X117052063Y-91845774D01*
X117096000Y-91889711D01*
X117096000Y-92031885D01*
X117092324Y-92069207D01*
X117096000Y-92106529D01*
X117096000Y-92106540D01*
X117106998Y-92218193D01*
X117117246Y-92251978D01*
X117150454Y-92361453D01*
X117221026Y-92493483D01*
X117274292Y-92558387D01*
X117316000Y-92609208D01*
X117344998Y-92633006D01*
X117895994Y-93184003D01*
X117919793Y-93213002D01*
X118035518Y-93307975D01*
X118167547Y-93378547D01*
X118310808Y-93422004D01*
X118422461Y-93433001D01*
X118422469Y-93433001D01*
X118459794Y-93436677D01*
X118463672Y-93436295D01*
X119245961Y-94218585D01*
X119227939Y-94215000D01*
X119024061Y-94215000D01*
X118824102Y-94254774D01*
X118635744Y-94332795D01*
X118466226Y-94446063D01*
X118322063Y-94590226D01*
X118208795Y-94759744D01*
X118130774Y-94948102D01*
X118091000Y-95148061D01*
X118091000Y-95201105D01*
X117972243Y-95250296D01*
X117802725Y-95363564D01*
X117658562Y-95507727D01*
X117545294Y-95677245D01*
X117467273Y-95865603D01*
X117427499Y-96065562D01*
X117427499Y-96269440D01*
X117467273Y-96469399D01*
X117545294Y-96657757D01*
X117604308Y-96746078D01*
X117573795Y-96791744D01*
X117495774Y-96980102D01*
X117456000Y-97180061D01*
X117456000Y-97383939D01*
X117483807Y-97523737D01*
X117449939Y-97517000D01*
X117246061Y-97517000D01*
X117046102Y-97556774D01*
X116857744Y-97634795D01*
X116688226Y-97748063D01*
X116544063Y-97892226D01*
X116430795Y-98061744D01*
X116352774Y-98250102D01*
X116313000Y-98450061D01*
X116313000Y-98653939D01*
X116352774Y-98853898D01*
X116430795Y-99042256D01*
X116544063Y-99211774D01*
X116688226Y-99355937D01*
X116857744Y-99469205D01*
X116982214Y-99520763D01*
X116938795Y-99585744D01*
X116860774Y-99774102D01*
X116821000Y-99974061D01*
X116821000Y-100177939D01*
X116823928Y-100192661D01*
X116702476Y-100273813D01*
X116558313Y-100417976D01*
X116445045Y-100587494D01*
X116367024Y-100775852D01*
X116327250Y-100975811D01*
X116327250Y-101179689D01*
X116367024Y-101379648D01*
X116445045Y-101568006D01*
X116558313Y-101737524D01*
X116702476Y-101881687D01*
X116871994Y-101994955D01*
X117060352Y-102072976D01*
X117087870Y-102078450D01*
X117087871Y-105063217D01*
X116819945Y-105331144D01*
X116695484Y-105206683D01*
X116741205Y-105138256D01*
X116819226Y-104949898D01*
X116859000Y-104749939D01*
X116859000Y-104546061D01*
X116819226Y-104346102D01*
X116741205Y-104157744D01*
X116627937Y-103988226D01*
X116483774Y-103844063D01*
X116314256Y-103730795D01*
X116125898Y-103652774D01*
X115925939Y-103613000D01*
X115722061Y-103613000D01*
X115522102Y-103652774D01*
X115333744Y-103730795D01*
X115164226Y-103844063D01*
X115020063Y-103988226D01*
X114906795Y-104157744D01*
X114828774Y-104346102D01*
X114789000Y-104546061D01*
X114789000Y-104749939D01*
X114828774Y-104949898D01*
X114906795Y-105138256D01*
X115020063Y-105307774D01*
X115064000Y-105351711D01*
X115064000Y-105372678D01*
X115060324Y-105410000D01*
X115064000Y-105447322D01*
X115064000Y-105447333D01*
X115074997Y-105558986D01*
X115097146Y-105632000D01*
X115118454Y-105702246D01*
X115189026Y-105834276D01*
X115260201Y-105921002D01*
X115284000Y-105950001D01*
X115312998Y-105973799D01*
X115863935Y-106524737D01*
X115863936Y-107851262D01*
X115730198Y-107985000D01*
X115234335Y-107985000D01*
X115052898Y-108002870D01*
X114820099Y-108073489D01*
X114605551Y-108188167D01*
X114417498Y-108342498D01*
X114263167Y-108530551D01*
X114148489Y-108745099D01*
X114077870Y-108977898D01*
X114054025Y-109220000D01*
X107160000Y-109220000D01*
X107160000Y-89008074D01*
X107299238Y-89216458D01*
X107783542Y-89700762D01*
X108353023Y-90081278D01*
X108985796Y-90343381D01*
X109657545Y-90477000D01*
X110342455Y-90477000D01*
X111014204Y-90343381D01*
X111646977Y-90081278D01*
X112216458Y-89700762D01*
X112700762Y-89216458D01*
X113081278Y-88646977D01*
X113343381Y-88014204D01*
X113477000Y-87342455D01*
X113477000Y-86657545D01*
X113343381Y-85985796D01*
X113081278Y-85353023D01*
X112700762Y-84783542D01*
X112216458Y-84299238D01*
X112008074Y-84160000D01*
X200991926Y-84160000D01*
X200783542Y-84299238D01*
%TD*%
M02*
