M48
; DRILL file {KiCad (5.1.6)-1} date 01/29/21 14:11:23
; FORMAT={-:-/ absolute / inch / decimal}
; #@! TF.CreationDate,2021-01-29T14:11:23+08:00
; #@! TF.GenerationSoftware,Kicad,Pcbnew,(5.1.6)-1
; #@! TF.FileFunction,Plated,1,2,PTH
FMAT,2
INCH
T1C0.0157
T2C0.0236
T3C0.0295
T4C0.0315
%
G90
G05
T1
X4.3Y-3.6
X4.3Y-3.7
X4.3Y-3.8
X4.3Y-3.9
X4.3Y-4.0
X4.3Y-4.1
X4.3Y-4.2
X4.3Y-4.3
X4.3Y-4.4
X4.3Y-4.5
X4.3Y-4.6
X4.3Y-4.7
X4.3Y-4.8
X4.3Y-4.9
X4.35Y-3.65
X4.35Y-3.75
X4.35Y-3.85
X4.35Y-3.95
X4.35Y-4.05
X4.35Y-4.15
X4.35Y-4.25
X4.35Y-4.35
X4.35Y-4.45
X4.35Y-4.55
X4.35Y-4.65
X4.35Y-4.75
X4.35Y-4.85
X4.4Y-3.6
X4.4Y-3.7
X4.4Y-3.8
X4.4Y-3.9
X4.4Y-4.0
X4.4Y-4.1
X4.4Y-4.2
X4.4Y-4.3
X4.4Y-4.4
X4.4Y-4.5
X4.4Y-4.6
X4.4Y-4.7
X4.4Y-4.8
X4.4Y-4.9
X4.525Y-4.225
X4.56Y-4.12
X4.62Y-3.88
X4.6206Y-3.9794
X4.64Y-3.59
X4.64Y-3.94
X4.6639Y-3.7861
X4.665Y-3.83
X4.665Y-3.88
X4.6775Y-3.62
X4.69Y-3.75
X4.71Y-3.59
X4.73Y-3.75
X4.74Y-3.62
X4.77Y-3.59
X4.8Y-3.62
X4.8Y-5.16
X4.83Y-3.59
X4.86Y-3.62
X4.89Y-3.59
X4.92Y-3.62
X4.95Y-3.59
X4.97Y-4.13
X4.98Y-3.62
X5.01Y-3.55
X5.01Y-4.24
X5.04Y-3.52
X5.09Y-3.59
X5.09Y-4.17
X5.09Y-4.21
X5.09Y-4.25
X5.1Y-3.51
X5.1Y-3.7
X5.1Y-3.75
X5.1Y-3.8
X5.1Y-3.95
X5.105Y-3.85
X5.11Y-4.13
X5.15Y-3.41
X5.23Y-3.5
X5.25Y-3.55
X5.25Y-3.6
X5.25Y-3.65
X5.25Y-4.13
X5.275Y-3.485
X5.38Y-4.05
X5.4085Y-4.1315
X5.44Y-3.85
X5.44Y-3.9
X5.44Y-3.95
X5.46Y-3.51
X5.46Y-3.555
X5.4646Y-4.4454
X5.4646Y-4.5454
X5.54Y-3.57
X5.5411Y-3.5289
X5.59Y-3.53
X5.64Y-3.53
X5.68Y-3.64
X5.69Y-3.53
X5.72Y-3.64
X5.74Y-3.53
X5.76Y-3.64
X5.8Y-3.64
X5.84Y-3.73
X5.84Y-3.77
X5.84Y-3.81
X5.84Y-3.85
X5.84Y-3.89
X5.8422Y-3.69
X6.0Y-4.21
X6.005Y-4.145
X6.02Y-4.06
X6.05Y-4.4
X6.05Y-4.45
X6.05Y-4.63
X6.05Y-4.68
X6.0746Y-4.1154
X6.075Y-4.0
X6.1Y-3.4
X6.1Y-3.5
X6.15Y-3.45
X6.16Y-4.0
X6.2Y-3.4
X6.2Y-3.5
X6.25Y-3.45
X6.28Y-4.0
X6.3Y-3.4
X6.3Y-3.5
X6.35Y-3.45
X6.4Y-3.4
X6.4Y-3.5
X6.41Y-4.19
X6.45Y-3.45
X6.5Y-3.4
X6.5Y-3.5
X6.51Y-4.555
X6.54Y-4.34
X6.55Y-3.45
X6.6Y-3.4
X6.6Y-3.5
X6.65Y-3.45
X6.7Y-3.4
X6.7Y-3.5
X6.75Y-3.45
X6.8Y-3.4
X6.8Y-3.5
X6.85Y-3.45
X6.86Y-4.1
X6.9Y-3.4
X6.95Y-3.45
X6.97Y-4.19
X6.99Y-4.6
X7.0Y-3.4
X7.0Y-3.5
X7.05Y-3.45
X7.1Y-3.4
X7.1Y-3.5
X7.15Y-3.45
X7.155Y-4.15
X7.155Y-4.195
X7.1575Y-4.1025
X7.16Y-4.31
X7.165Y-4.555
X7.2Y-3.4
X7.2Y-3.5
X7.25Y-3.45
X7.2996Y-4.38
X7.3Y-3.4
X7.3Y-3.5
X7.3Y-4.33
X7.31Y-4.21
X7.35Y-3.45
X7.375Y-4.56
X7.375Y-4.605
X7.39Y-4.145
X7.39Y-4.19
X7.4Y-3.4
X7.4Y-3.5
X7.435Y-3.84
X7.45Y-3.45
X7.475Y-4.07
X7.5Y-3.4
X7.5Y-3.5
X7.5Y-3.69
X7.545Y-4.185
X7.55Y-3.45
X7.575Y-4.485
X7.5825Y-4.12
X7.6Y-3.4
X7.6Y-3.5
X7.65Y-3.45
X7.65Y-3.55
X7.65Y-3.65
X7.66Y-4.16
X7.7Y-3.4
X7.7Y-3.5
X7.7Y-3.6
X7.7Y-3.7
X7.75Y-3.45
X7.75Y-3.55
X7.75Y-3.65
X7.8Y-3.4
X7.8Y-3.5
X7.8Y-3.6
X7.8Y-3.7
X7.85Y-3.55
X7.85Y-3.65
X7.9Y-3.6
X7.9Y-3.7
X7.95Y-3.65
X7.95Y-4.6
X7.95Y-4.7
X8.0Y-3.6
X8.0Y-3.7
X8.0Y-4.65
X8.0Y-4.75
X8.05Y-4.6
X8.05Y-4.7
T3
X4.8Y-4.3026
X4.8Y-4.3813
X4.8Y-4.4601
X4.8Y-4.5388
X4.8Y-4.6176
X4.8Y-4.6963
X4.8Y-4.775
X4.8Y-4.8538
X4.8Y-4.9325
X4.8Y-5.0113
X4.8Y-5.09
X5.55Y-4.3026
X5.55Y-4.3813
X5.55Y-4.4601
X5.55Y-4.5388
X5.55Y-4.6176
X5.55Y-4.6963
X5.55Y-4.775
X5.55Y-4.8538
X5.55Y-4.9325
X5.55Y-5.0113
X5.55Y-5.09
X5.05Y-4.3026
X5.05Y-4.3813
X5.05Y-4.4601
X5.05Y-4.5388
X5.05Y-4.6176
X5.05Y-4.6963
X5.05Y-4.775
X5.05Y-4.8538
X5.05Y-4.9325
X5.05Y-5.0113
X5.05Y-5.09
X4.55Y-4.3
X4.55Y-4.3787
X4.55Y-4.4575
X4.55Y-4.5362
X4.55Y-4.615
X4.55Y-4.6937
X4.55Y-4.7724
X4.55Y-4.8512
X4.55Y-4.9299
X4.55Y-5.0087
X4.55Y-5.0874
X5.3Y-4.3026
X5.3Y-4.3813
X5.3Y-4.4601
X5.3Y-4.5388
X5.3Y-4.6176
X5.3Y-4.6963
X5.3Y-4.775
X5.3Y-4.8538
X5.3Y-4.9325
X5.3Y-5.0113
X5.3Y-5.09
X6.47Y-3.6
X6.5487Y-3.6
X6.17Y-3.6
X6.2487Y-3.6
X6.1713Y-3.9
X6.25Y-3.9
X6.47Y-3.9
X6.5487Y-3.9
X5.8Y-4.3026
X5.8Y-4.3813
X5.8Y-4.4601
X5.8Y-4.5388
X5.8Y-4.6176
X5.8Y-4.6963
X5.8Y-4.775
X5.8Y-4.8538
X5.8Y-4.9325
X5.8Y-5.0113
X5.8Y-5.09
T4
X6.88Y-4.51
X6.98Y-4.41
X7.08Y-4.51
T2
G00X7.8669Y-4.515
M15
G01X7.9102Y-4.515
M16
G05
G00X7.8669Y-4.8551
M15
G01X7.9102Y-4.8551
M16
G05
G00X8.0413Y-4.515
M15
G01X8.065Y-4.515
M16
G05
G00X8.0413Y-4.8551
M15
G01X8.065Y-4.8551
M16
G05
T0
M30
