%TF.GenerationSoftware,KiCad,Pcbnew,(5.1.6)-1*%
%TF.CreationDate,2021-01-29T14:11:21+08:00*%
%TF.ProjectId,STM32F0_Nixie_Clock,53544d33-3246-4305-9f4e-697869655f43,V3.0*%
%TF.SameCoordinates,Original*%
%TF.FileFunction,Soldermask,Bot*%
%TF.FilePolarity,Negative*%
%FSLAX46Y46*%
G04 Gerber Fmt 4.6, Leading zero omitted, Abs format (unit mm)*
G04 Created by KiCad (PCBNEW (5.1.6)-1) date 2021-01-29 14:11:21*
%MOMM*%
%LPD*%
G01*
G04 APERTURE LIST*
%ADD10C,1.600000*%
%ADD11R,2.700000X3.700000*%
%ADD12C,5.600000*%
%ADD13O,1.850000X1.300000*%
%ADD14C,1.540000*%
%ADD15O,1.700000X1.100000*%
%ADD16O,2.200000X1.100000*%
%ADD17O,1.300000X1.850000*%
G04 APERTURE END LIST*
D10*
%TO.C,TP101*%
X204216000Y-111506000D03*
%TD*%
%TO.C,TP107*%
X204216000Y-108966000D03*
%TD*%
%TO.C,TP104*%
X204216000Y-106426000D03*
%TD*%
%TO.C,TP103*%
X204216000Y-103886000D03*
%TD*%
D11*
%TO.C,BT101*%
X172630000Y-97536000D03*
X201930000Y-97536000D03*
%TD*%
D12*
%TO.C,H101*%
X110000000Y-87000000D03*
%TD*%
%TO.C,H102*%
X203000000Y-87000000D03*
%TD*%
%TO.C,H104*%
X203000000Y-130000000D03*
%TD*%
%TO.C,H103*%
X110000000Y-130000000D03*
%TD*%
D13*
%TO.C,DS103*%
X128270000Y-109286000D03*
X128270000Y-111286000D03*
X128270000Y-113286000D03*
X128270000Y-115286000D03*
X128270000Y-117286000D03*
X128270000Y-119286000D03*
X128270000Y-121286000D03*
X128270000Y-123286000D03*
X128270000Y-125286000D03*
X128270000Y-127286000D03*
G36*
G01*
X128924168Y-129936000D02*
X127615832Y-129936000D01*
G75*
G02*
X127345000Y-129665168I0J270832D01*
G01*
X127345000Y-128906832D01*
G75*
G02*
X127615832Y-128636000I270832J0D01*
G01*
X128924168Y-128636000D01*
G75*
G02*
X129195000Y-128906832I0J-270832D01*
G01*
X129195000Y-129665168D01*
G75*
G02*
X128924168Y-129936000I-270832J0D01*
G01*
G37*
%TD*%
%TO.C,DS102*%
X121920000Y-109286000D03*
X121920000Y-111286000D03*
X121920000Y-113286000D03*
X121920000Y-115286000D03*
X121920000Y-117286000D03*
X121920000Y-119286000D03*
X121920000Y-121286000D03*
X121920000Y-123286000D03*
X121920000Y-125286000D03*
X121920000Y-127286000D03*
G36*
G01*
X122574168Y-129936000D02*
X121265832Y-129936000D01*
G75*
G02*
X120995000Y-129665168I0J270832D01*
G01*
X120995000Y-128906832D01*
G75*
G02*
X121265832Y-128636000I270832J0D01*
G01*
X122574168Y-128636000D01*
G75*
G02*
X122845000Y-128906832I0J-270832D01*
G01*
X122845000Y-129665168D01*
G75*
G02*
X122574168Y-129936000I-270832J0D01*
G01*
G37*
%TD*%
D14*
%TO.C,RV101*%
X179832000Y-114554000D03*
X177292000Y-112014000D03*
X174752000Y-114554000D03*
%TD*%
D15*
%TO.C,P101*%
X204550000Y-114680000D03*
X204550000Y-123320000D03*
D16*
X200370000Y-123320000D03*
X200370000Y-114680000D03*
%TD*%
D17*
%TO.C,NE104*%
X166338000Y-99060000D03*
G36*
G01*
X163688000Y-99714168D02*
X163688000Y-98405832D01*
G75*
G02*
X163958832Y-98135000I270832J0D01*
G01*
X164717168Y-98135000D01*
G75*
G02*
X164988000Y-98405832I0J-270832D01*
G01*
X164988000Y-99714168D01*
G75*
G02*
X164717168Y-99985000I-270832J0D01*
G01*
X163958832Y-99985000D01*
G75*
G02*
X163688000Y-99714168I0J270832D01*
G01*
G37*
%TD*%
%TO.C,NE103*%
G36*
G01*
X156100000Y-99714168D02*
X156100000Y-98405832D01*
G75*
G02*
X156370832Y-98135000I270832J0D01*
G01*
X157129168Y-98135000D01*
G75*
G02*
X157400000Y-98405832I0J-270832D01*
G01*
X157400000Y-99714168D01*
G75*
G02*
X157129168Y-99985000I-270832J0D01*
G01*
X156370832Y-99985000D01*
G75*
G02*
X156100000Y-99714168I0J270832D01*
G01*
G37*
X158750000Y-99060000D03*
%TD*%
%TO.C,NE102*%
X166338000Y-91440000D03*
G36*
G01*
X163688000Y-92094168D02*
X163688000Y-90785832D01*
G75*
G02*
X163958832Y-90515000I270832J0D01*
G01*
X164717168Y-90515000D01*
G75*
G02*
X164988000Y-90785832I0J-270832D01*
G01*
X164988000Y-92094168D01*
G75*
G02*
X164717168Y-92365000I-270832J0D01*
G01*
X163958832Y-92365000D01*
G75*
G02*
X163688000Y-92094168I0J270832D01*
G01*
G37*
%TD*%
%TO.C,NE101*%
X158718000Y-91440000D03*
G36*
G01*
X156068000Y-92094168D02*
X156068000Y-90785832D01*
G75*
G02*
X156338832Y-90515000I270832J0D01*
G01*
X157097168Y-90515000D01*
G75*
G02*
X157368000Y-90785832I0J-270832D01*
G01*
X157368000Y-92094168D01*
G75*
G02*
X157097168Y-92365000I-270832J0D01*
G01*
X156338832Y-92365000D01*
G75*
G02*
X156068000Y-92094168I0J270832D01*
G01*
G37*
%TD*%
D13*
%TO.C,DS106*%
X147320000Y-109286000D03*
X147320000Y-111286000D03*
X147320000Y-113286000D03*
X147320000Y-115286000D03*
X147320000Y-117286000D03*
X147320000Y-119286000D03*
X147320000Y-121286000D03*
X147320000Y-123286000D03*
X147320000Y-125286000D03*
X147320000Y-127286000D03*
G36*
G01*
X147974168Y-129936000D02*
X146665832Y-129936000D01*
G75*
G02*
X146395000Y-129665168I0J270832D01*
G01*
X146395000Y-128906832D01*
G75*
G02*
X146665832Y-128636000I270832J0D01*
G01*
X147974168Y-128636000D01*
G75*
G02*
X148245000Y-128906832I0J-270832D01*
G01*
X148245000Y-129665168D01*
G75*
G02*
X147974168Y-129936000I-270832J0D01*
G01*
G37*
%TD*%
%TO.C,DS105*%
X140970000Y-109286000D03*
X140970000Y-111286000D03*
X140970000Y-113286000D03*
X140970000Y-115286000D03*
X140970000Y-117286000D03*
X140970000Y-119286000D03*
X140970000Y-121286000D03*
X140970000Y-123286000D03*
X140970000Y-125286000D03*
X140970000Y-127286000D03*
G36*
G01*
X141624168Y-129936000D02*
X140315832Y-129936000D01*
G75*
G02*
X140045000Y-129665168I0J270832D01*
G01*
X140045000Y-128906832D01*
G75*
G02*
X140315832Y-128636000I270832J0D01*
G01*
X141624168Y-128636000D01*
G75*
G02*
X141895000Y-128906832I0J-270832D01*
G01*
X141895000Y-129665168D01*
G75*
G02*
X141624168Y-129936000I-270832J0D01*
G01*
G37*
%TD*%
%TO.C,DS104*%
G36*
G01*
X135274168Y-129936000D02*
X133965832Y-129936000D01*
G75*
G02*
X133695000Y-129665168I0J270832D01*
G01*
X133695000Y-128906832D01*
G75*
G02*
X133965832Y-128636000I270832J0D01*
G01*
X135274168Y-128636000D01*
G75*
G02*
X135545000Y-128906832I0J-270832D01*
G01*
X135545000Y-129665168D01*
G75*
G02*
X135274168Y-129936000I-270832J0D01*
G01*
G37*
X134620000Y-127286000D03*
X134620000Y-125286000D03*
X134620000Y-123286000D03*
X134620000Y-121286000D03*
X134620000Y-119286000D03*
X134620000Y-117286000D03*
X134620000Y-115286000D03*
X134620000Y-113286000D03*
X134620000Y-111286000D03*
X134620000Y-109286000D03*
%TD*%
%TO.C,DS101*%
X115570000Y-109220000D03*
X115570000Y-111220000D03*
X115570000Y-113220000D03*
X115570000Y-115220000D03*
X115570000Y-117220000D03*
X115570000Y-119220000D03*
X115570000Y-121220000D03*
X115570000Y-123220000D03*
X115570000Y-125220000D03*
X115570000Y-127220000D03*
G36*
G01*
X116224168Y-129870000D02*
X114915832Y-129870000D01*
G75*
G02*
X114645000Y-129599168I0J270832D01*
G01*
X114645000Y-128840832D01*
G75*
G02*
X114915832Y-128570000I270832J0D01*
G01*
X116224168Y-128570000D01*
G75*
G02*
X116495000Y-128840832I0J-270832D01*
G01*
X116495000Y-129599168D01*
G75*
G02*
X116224168Y-129870000I-270832J0D01*
G01*
G37*
%TD*%
M02*
